<?xml version="1.0" encoding="utf-8"?>
<!-- Generator: Adobe Illustrator 24.1.3, SVG Export Plug-In . SVG Version: 6.00 Build 0)  -->
<svg version="1.1" id="Шар_1" xmlns="http://www.w3.org/2000/svg" xmlns:xlink="http://www.w3.org/1999/xlink" x="0px" y="0px"
	 viewBox="0 0 730 730" style="enable-background:new 0 0 730 730;" xml:space="preserve">
<style type="text/css">
	.st0{fill:#05ACED;}
	.st1{fill:#EA008A;}
	.st2{fill:#FDF002;}
	.st3{fill:#231F20;}
	.st4{fill:none;}
	.st5{fill:none;stroke:#000000;stroke-width:2;stroke-miterlimit:10;}
	.st6{fill:#10ACED;}
	.st7{fill:#EB008A;}
	.st8{fill:none;stroke:#000000;stroke-miterlimit:10;}
</style>
<g id="background">
</g>
<g>
	<g>
		<circle class="st0" cx="130.11" cy="115.67" r="65.83"/>
		<circle class="st1" cx="286.7" cy="115.67" r="65.83"/>
		<circle class="st2" cx="443.3" cy="115.67" r="65.83"/>
		<circle class="st3" cx="599.89" cy="115.67" r="65.83"/>
	</g>
	<g>
		<path d="M271.7,665.61h5.32v3.52h-5.32v7.22h6.69v3.52h-10.57v-24.66h10.57v3.52h-6.69V665.61z"/>
		<path d="M285.86,670.05l-1.2,2.25v7.57h-3.88v-24.66h3.88v10.75l5.07-10.75h3.88l-5.39,10.99l5.39,13.67h-3.98L285.86,670.05z"/>
		<path d="M294.81,661.14c0-3.95,2.08-6.2,5.88-6.2c3.81,0,5.88,2.25,5.88,6.2v12.82c0,3.95-2.08,6.2-5.88,6.2
			c-3.8,0-5.88-2.25-5.88-6.2V661.14z M298.68,674.21c0,1.76,0.77,2.43,2.01,2.43c1.23,0,2.01-0.67,2.01-2.43v-13.32
			c0-1.76-0.77-2.43-2.01-2.43c-1.23,0-2.01,0.67-2.01,2.43V674.21z"/>
		<path d="M320.67,660.89v0.88c0,2.54-0.77,4.16-2.5,4.97c2.08,0.81,2.89,2.68,2.89,5.28v2.01c0,3.8-2.01,5.85-5.88,5.85h-6.09
			v-24.66h5.85C318.94,655.22,320.67,657.09,320.67,660.89z M312.95,658.74v6.52h1.52c1.44,0,2.33-0.63,2.33-2.61v-1.37
			c0-1.76-0.6-2.54-1.97-2.54H312.95z M312.95,668.78v7.57h2.22c1.3,0,2.01-0.6,2.01-2.43v-2.15c0-2.29-0.74-2.99-2.5-2.99H312.95z"
			/>
		<path d="M323.38,655.22h3.88v24.66h-3.88V655.22z"/>
		<path d="M330.07,655.22h3.88v21.14h6.38v3.52h-10.25V655.22z"/>
		<path d="M347.23,654.94c3.77,0,5.71,2.25,5.71,6.2v0.78h-3.66v-1.02c0-1.76-0.7-2.43-1.94-2.43c-1.23,0-1.94,0.67-1.94,2.43
			c0,5.07,7.57,6.02,7.57,13.07c0,3.95-1.97,6.2-5.78,6.2c-3.8,0-5.78-2.25-5.78-6.2v-1.52h3.66v1.76c0,1.76,0.78,2.4,2.01,2.4
			c1.23,0,2.01-0.63,2.01-2.4c0-5.07-7.57-6.02-7.57-13.07C341.52,657.19,343.46,654.94,347.23,654.94z"/>
		<path d="M360.26,670.05l-1.2,2.25v7.57h-3.88v-24.66h3.88v10.75l5.07-10.75h3.88l-5.39,10.99l5.39,13.67h-3.98L360.26,670.05z"/>
		<path d="M373.65,665.61h5.32v3.52h-5.32v7.22h6.69v3.52h-10.57v-24.66h10.57v3.52h-6.69V665.61z"/>
		<path d="M386.47,676.15v3.73h-3.73v-3.73H386.47z"/>
		<path d="M388.62,661.14c0-3.95,2.08-6.2,5.88-6.2c3.81,0,5.88,2.25,5.88,6.2v12.82c0,3.95-2.08,6.2-5.88,6.2
			c-3.8,0-5.88-2.25-5.88-6.2V661.14z M392.5,674.21c0,1.76,0.77,2.43,2.01,2.43c1.23,0,2.01-0.67,2.01-2.43v-13.32
			c0-1.76-0.77-2.43-2.01-2.43c-1.23,0-2.01,0.67-2.01,2.43V674.21z"/>
		<path d="M406.34,662.02v17.86h-3.49v-24.66h4.86l3.98,14.76v-14.76h3.45v24.66h-3.98L406.34,662.02z"/>
		<path d="M417.93,655.22h3.88v21.14h6.38v3.52h-10.25V655.22z"/>
		<path d="M429.87,655.22h3.88v24.66h-3.88V655.22z"/>
		<path d="M440.02,662.02v17.86h-3.49v-24.66h4.86l3.98,14.76v-14.76h3.45v24.66h-3.98L440.02,662.02z"/>
		<path d="M455.48,665.61h5.32v3.52h-5.32v7.22h6.69v3.52h-10.57v-24.66h10.57v3.52h-6.69V665.61z"/>
	</g>
	<g>
		<g>
			<polygon class="st4" points="326.43,572.99 326.43,602.04 365.5,602.04 404.56,602.04 404.56,572.99 404.56,543.94 365.5,543.94 
				326.43,543.94 			"/>
			<polygon class="st1" points="365.5,536.09 365.5,543.94 404.56,543.94 404.56,572.99 412.41,572.99 412.41,536.09 			"/>
			<polygon class="st2" points="404.56,602.04 365.5,602.04 365.5,609.9 412.41,609.9 412.41,572.99 404.56,572.99 			"/>
			<polygon class="st0" points="326.43,543.94 365.5,543.94 365.5,536.09 318.58,536.09 318.58,572.99 326.43,572.99 			"/>
			<polygon class="st3" points="326.43,602.04 326.43,572.99 318.58,572.99 318.58,609.9 365.5,609.9 365.5,602.04 			"/>
		</g>
		<g>
			<line class="st5" x1="380.1" y1="571.66" x2="389.84" y2="571.66"/>
			<line class="st5" x1="341.16" y1="571.66" x2="348.59" y2="571.66"/>
			<line class="st5" x1="365.5" y1="584.82" x2="365.5" y2="596"/>
			<line class="st5" x1="365.5" y1="547.32" x2="365.5" y2="558.22"/>
			<g>
				<path class="st4" d="M365.5,582.78c0.05,0,0.09,0.01,0.14,0.01c6.61,0,11.96-4.98,11.96-11.13h-12.1V582.78z"/>
				<path class="st6" d="M353.68,571.66h-5.08c0,8.71,7.56,15.78,16.91,15.85v-4.73C358.96,582.71,353.68,577.76,353.68,571.66z"/>
				<path class="st7" d="M365.5,560.54v-4.73c-9.35,0.07-16.91,7.14-16.91,15.85h5.08C353.68,565.56,358.96,560.61,365.5,560.54z"/>
				<path class="st2" d="M365.64,555.81c-0.05,0-0.09,0-0.14,0v4.73c0.05,0,0.09-0.01,0.14-0.01c6.61,0,11.96,4.98,11.96,11.13h5.08
					C382.68,562.9,375.05,555.81,365.64,555.81z"/>
				<path d="M365.64,582.79c-0.05,0-0.09-0.01-0.14-0.01v4.73c0.05,0,0.09,0,0.14,0c9.41,0,17.04-7.1,17.04-15.86h-5.08
					C377.6,577.81,372.24,582.79,365.64,582.79z"/>
			</g>
			<line class="st8" x1="370.09" y1="571.66" x2="373.01" y2="571.66"/>
			<line class="st8" x1="358.27" y1="571.66" x2="361.18" y2="571.66"/>
			<line class="st8" x1="365.64" y1="576.11" x2="365.64" y2="579.03"/>
			<line class="st8" x1="365.64" y1="564.29" x2="365.64" y2="567.21"/>
			<g>
				<path d="M365.32,571.34v-4.12c-2.2,0.16-3.96,1.91-4.12,4.12H365.32z"/>
				<path d="M365.96,571.34h4.12c-0.16-2.2-1.91-3.96-4.12-4.12V571.34z"/>
				<path d="M365.96,571.98v4.12c2.2-0.16,3.96-1.91,4.12-4.12H365.96z"/>
				<path d="M365.32,571.98h-4.12c0.16,2.2,1.91,3.96,4.12,4.12V571.98z"/>
			</g>
			<g>
				<g>
					<path class="st6" d="M346.31,596c-1.42,0-2.64-0.5-3.64-1.51s-1.51-2.22-1.51-3.64c0-1.43,0.5-2.64,1.51-3.64
						c1.01-1.01,2.22-1.51,3.64-1.51c1.42,0,2.64,0.51,3.64,1.51c0.21,0.21,0.32,0.47,0.32,0.76c0,0.3-0.11,0.55-0.32,0.76
						c-0.21,0.22-0.47,0.32-0.76,0.32c-0.3,0-0.56-0.11-0.77-0.32c-0.58-0.58-1.29-0.87-2.11-0.87c-0.82,0-1.52,0.29-2.11,0.87
						c-0.58,0.58-0.87,1.29-0.87,2.11c0,0.82,0.29,1.52,0.87,2.11s1.29,0.87,2.11,0.87c0.82,0,1.52-0.29,2.11-0.87
						c0.21-0.21,0.47-0.32,0.77-0.32c0.3,0,0.55,0.11,0.76,0.32c0.21,0.21,0.32,0.47,0.32,0.76c0,0.3-0.11,0.56-0.32,0.77
						C348.95,595.5,347.73,596,346.31,596z"/>
				</g>
			</g>
			<g>
				<g>
					<path class="st7" d="M346.31,550.94l3.31-3.3c0.16-0.16,0.34-0.26,0.55-0.3c0.22-0.04,0.42-0.02,0.63,0.06
						c0.21,0.09,0.37,0.22,0.49,0.4c0.12,0.18,0.19,0.39,0.19,0.61v8.13c0,0.3-0.11,0.56-0.32,0.77c-0.21,0.21-0.47,0.32-0.76,0.32
						c-0.3,0-0.55-0.11-0.76-0.32s-0.32-0.47-0.32-0.77v-5.52l-2.22,2.22c-0.21,0.21-0.47,0.32-0.77,0.32
						c-0.3,0-0.55-0.11-0.76-0.32l-2.22-2.22v5.52c0,0.3-0.11,0.56-0.32,0.77s-0.47,0.32-0.76,0.32c-0.3,0-0.56-0.11-0.77-0.32
						c-0.21-0.21-0.32-0.47-0.32-0.77v-8.13c0-0.22,0.06-0.42,0.19-0.61c0.12-0.18,0.28-0.31,0.48-0.4c0.2-0.08,0.41-0.1,0.63-0.06
						c0.22,0.05,0.4,0.15,0.56,0.3L346.31,550.94z"/>
				</g>
			</g>
			<g>
				<path d="M389.36,585.88c0.25,0.17,0.4,0.39,0.46,0.69c0.06,0.29,0,0.56-0.17,0.81l-2.31,3.47l2.31,3.46
					c0.17,0.25,0.22,0.52,0.17,0.81c-0.06,0.29-0.21,0.53-0.46,0.7c-0.18,0.12-0.39,0.18-0.61,0.18c-0.39,0-0.69-0.16-0.9-0.48
					l-2.39-3.59h-2.4v2.98c0,0.3-0.11,0.56-0.32,0.77c-0.21,0.21-0.47,0.32-0.76,0.32c-0.3,0-0.56-0.11-0.77-0.32
					c-0.21-0.21-0.32-0.47-0.32-0.77v-8.13c0-0.3,0.11-0.55,0.32-0.76c0.21-0.22,0.47-0.32,0.77-0.32c0.3,0,0.55,0.11,0.76,0.32
					c0.21,0.21,0.32,0.47,0.32,0.76v2.98h2.4l2.39-3.58c0.17-0.25,0.39-0.41,0.69-0.47C388.83,585.66,389.1,585.71,389.36,585.88z"
					/>
			</g>
			<g>
				<g>
					<path class="st2" d="M389.32,547.49c0.25,0.16,0.41,0.39,0.48,0.67c0.07,0.29,0.02,0.57-0.14,0.82l-3.22,5.16v2.4
						c0,0.3-0.11,0.56-0.32,0.77c-0.22,0.21-0.47,0.32-0.77,0.32s-0.55-0.11-0.76-0.32s-0.32-0.47-0.32-0.77v-2.4l-3.23-5.16
						c-0.16-0.25-0.2-0.53-0.14-0.82c0.07-0.29,0.23-0.51,0.48-0.67c0.26-0.16,0.53-0.2,0.82-0.14c0.29,0.07,0.52,0.23,0.67,0.48
						l2.47,3.95l2.47-3.95c0.16-0.25,0.38-0.41,0.67-0.48C388.8,547.29,389.07,547.33,389.32,547.49z"/>
				</g>
			</g>
		</g>
	</g>
	<g>
		<path d="M163.94,248.07v73.51H64.28v-73.51h20.48v57.03h19.22v-57.03h20.48v57.03h19.01v-57.03H163.94z"/>
		<path d="M243.18,289.66c2.27,2.94,3.41,6.58,3.41,10.92c0,6.51-2.54,11.64-7.61,15.39c-5.08,3.75-12.27,5.62-21.58,5.62h-37.7
			v-73.51h35.71c8.82,0,15.66,1.66,20.53,4.99c4.87,3.33,7.3,8.03,7.3,14.13c0,3.57-0.86,6.72-2.57,9.45
			c-1.72,2.73-4.18,4.9-7.4,6.51C237.59,284.55,240.9,286.72,243.18,289.66z M200.17,277.47h13.23c5.88,0,8.82-2.42,8.82-7.25
			c0-4.83-2.94-7.25-8.82-7.25h-13.23V277.47z M225.59,299c0-4.97-3.01-7.46-9.03-7.46h-16.38v15.12h16.38
			C222.58,306.67,225.59,304.11,225.59,299z"/>
		<path d="M257.83,248.07h20.48v43.16l30.35-43.16h19.53v73.51h-20.48v-43.06l-30.25,43.06h-19.64V248.07z"/>
		<path d="M422.71,305.09v31.3H403.7v-14.81h-47.05v14.81h-19.11v-31.3h2.63c4.34-0.07,7.4-3.05,9.19-8.93
			c1.79-5.88,2.89-14.35,3.31-25.41l0.84-22.68h59.23v57.03H422.71z M368.94,292.49c-0.98,5.46-2.49,9.66-4.52,12.6h27.83v-40.54
			h-21.11l-0.32,7.98C370.55,280.38,369.92,287.03,368.94,292.49z"/>
		<path d="M462.4,293.44h-9.45v28.15h-20.69v-73.51h20.69v28.57h9.98l17.54-28.57h21.84l-23,35.5l23.21,38.02H479.1L462.4,293.44z"
			/>
		<path d="M509.24,248.07h20.48v43.16l30.35-43.16h19.53v73.51h-20.48v-43.06l-30.25,43.06h-19.64V248.07z"/>
		<path d="M595.36,248.07h20.48v43.16l30.35-43.16h19.53v73.51h-20.48v-43.06L615,321.58h-19.64V248.07z M614.11,239.35
			c-3.47-2.87-5.2-7.14-5.2-12.81h13.97c0.07,2.45,0.7,4.27,1.89,5.46c1.19,1.19,3.08,1.79,5.67,1.79c2.59,0,4.52-0.59,5.78-1.79
			c1.26-1.19,1.92-3.01,1.99-5.46h13.97c0,5.67-1.75,9.94-5.25,12.81c-3.5,2.87-9,4.31-16.49,4.31
			C623.01,243.66,617.57,242.22,614.11,239.35z"/>
		<path d="M269.27,449.58v41.46h-25.18v-19.62h-62.33v19.62h-25.32v-41.46h3.48c5.75-0.09,9.81-4.03,12.17-11.83
			c2.37-7.79,3.83-19.01,4.38-33.67l1.11-30.05h78.48v75.55H269.27z M198.03,432.88c-1.3,7.24-3.29,12.8-5.98,16.7h36.87v-53.71
			h-27.97l-0.42,10.57C200.16,416.84,199.33,425.65,198.03,432.88z"/>
		<path d="M349.97,378.41c6.49,2.92,11.5,7.1,15.03,12.52c3.52,5.43,5.29,11.81,5.29,19.13c0,7.33-1.76,13.68-5.29,19.06
			c-3.53,5.38-8.54,9.53-15.03,12.45c-6.49,2.92-14.15,4.38-22.96,4.38h-16.97v25.46h-27.55v-97.4h44.52
			C335.82,374.03,343.48,375.49,349.97,378.41z M338.14,420.57c2.87-2.46,4.31-5.96,4.31-10.51c0-4.54-1.44-8.07-4.31-10.57
			c-2.88-2.5-7.14-3.76-12.8-3.76h-15.31v28.52h15.31C331,424.26,335.27,423.03,338.14,420.57z"/>
		<path d="M473.11,374.03l-40.35,75.28c-4.27,8.07-9.49,14.19-15.65,18.37c-6.17,4.17-12.92,6.26-20.24,6.26
			c-5.38,0-11.13-1.21-17.25-3.62l6.54-20.31c3.8,1.11,7.05,1.67,9.74,1.67c2.69,0,5.08-0.6,7.17-1.81
			c2.09-1.21,4.01-3.11,5.77-5.71l-37.85-70.13h29.08l22.68,47.03l23.51-47.03H473.11z"/>
		<path d="M521.25,434.14h-12.52v37.29h-27.41v-97.4h27.41v37.85h13.22l23.24-37.85h28.94l-30.47,47.03l30.75,50.37h-31.03
			L521.25,434.14z"/>
	</g>
</g>
</svg>
