<?xml version="1.0" encoding="utf-8"?>
<!-- Generator: Adobe Illustrator 24.1.3, SVG Export Plug-In . SVG Version: 6.00 Build 0)  -->
<svg version="1.1" xmlns="http://www.w3.org/2000/svg" xmlns:xlink="http://www.w3.org/1999/xlink" x="0px" y="0px"
	 viewBox="0 0 341.16 341.16" style="enable-background:new 0 0 341.16 341.16;" xml:space="preserve">
<style type="text/css">
	.st0{fill:#282828;}
	.st1{fill:#FFFFFF;}
	.st2{fill:#C6FF00;}
	.st3{fill:#263238;}
	.st4{fill:#272425;}
	.st5{fill:#F8EF39;}
	.st6{fill:#C70085;}
	.st7{fill:#61A9E9;}
</style>
<g id="Background">
</g>
<g id="Object">
	<g>
		<path class="st0" d="M302.26,13.46H38.9c-1.04,0-1.88,0.84-1.88,1.88v310.47c0,1.03,0.84,1.88,1.88,1.88h263.35
			c1.04,0,1.88-0.85,1.88-1.88V15.34C304.13,14.3,303.29,13.46,302.26,13.46z M300.38,281.22H40.78V17.22h259.6V281.22z"/>
		<g>
			<path class="st1" d="M74.54,301.57h5.48v3.62h-5.48v7.43h6.89v3.62H70.55v-25.38h10.88v3.62h-6.89V301.57z"/>
			<path class="st1" d="M89.12,306.14l-1.24,2.32v7.79h-3.99v-25.38h3.99v11.07l5.22-11.07h3.99l-5.55,11.31l5.55,14.07H93
				L89.12,306.14z"/>
			<path class="st1" d="M98.33,296.97c0-4.07,2.14-6.38,6.05-6.38c3.92,0,6.05,2.32,6.05,6.38v13.2c0,4.07-2.14,6.38-6.05,6.38
				c-3.91,0-6.05-2.32-6.05-6.38V296.97z M102.31,310.43c0,1.81,0.79,2.5,2.07,2.5c1.27,0,2.07-0.69,2.07-2.5v-13.71
				c0-1.81-0.79-2.5-2.07-2.5c-1.27,0-2.07,0.69-2.07,2.5V310.43z"/>
			<path class="st1" d="M124.95,296.72v0.91c0,2.61-0.79,4.28-2.57,5.12c2.14,0.83,2.97,2.76,2.97,5.44v2.07
				c0,3.91-2.07,6.02-6.05,6.02h-6.27v-25.38h6.02C123.17,290.88,124.95,292.8,124.95,296.72z M117,294.5v6.71h1.56
				c1.48,0,2.4-0.65,2.4-2.69v-1.41c0-1.81-0.62-2.61-2.03-2.61L117,294.5L117,294.5z M117,304.84v7.79h2.29
				c1.34,0,2.07-0.62,2.07-2.5v-2.21c0-2.36-0.76-3.08-2.57-3.08H117z"/>
			<path class="st1" d="M127.74,290.88h3.99v25.38h-3.99V290.88z"/>
			<path class="st1" d="M134.63,290.88h3.99v21.76h6.57v3.62h-10.55v-25.38H134.63z"/>
			<path class="st1" d="M152.29,290.59c3.88,0,5.88,2.32,5.88,6.38v0.8h-3.77v-1.05c0-1.81-0.72-2.5-2-2.5c-1.27,0-2,0.69-2,2.5
				c0,5.22,7.79,6.2,7.79,13.45c0,4.07-2.03,6.38-5.95,6.38c-3.91,0-5.95-2.32-5.95-6.38v-1.56h3.77v1.81c0,1.81,0.8,2.47,2.07,2.47
				s2.07-0.65,2.07-2.47c0-5.22-7.79-6.2-7.79-13.45C146.41,292.91,148.41,290.59,152.29,290.59z"/>
			<path class="st1" d="M165.7,306.14l-1.24,2.32v7.79h-3.99v-25.38h3.99v11.07l5.22-11.07h3.99l-5.55,11.31l5.55,14.07h-4.1
				L165.7,306.14z"/>
			<path class="st1" d="M179.49,301.57h5.48v3.62h-5.48v7.43h6.89v3.62h-10.88v-25.38h10.88v3.62h-6.89V301.57z"/>
			<path class="st1" d="M192.68,312.42v3.84h-3.84v-3.84H192.68z"/>
			<path class="st1" d="M194.9,296.97c0-4.07,2.14-6.38,6.05-6.38c3.92,0,6.05,2.32,6.05,6.38v13.2c0,4.07-2.14,6.38-6.05,6.38
				c-3.91,0-6.05-2.32-6.05-6.38V296.97z M198.89,310.43c0,1.81,0.79,2.5,2.07,2.5c1.27,0,2.07-0.69,2.07-2.5v-13.71
				c0-1.81-0.79-2.5-2.07-2.5c-1.27,0-2.07,0.69-2.07,2.5V310.43z"/>
			<path class="st1" d="M213.14,297.88v18.38h-3.59v-25.38h5l4.1,15.19v-15.19h3.55v25.38h-4.1L213.14,297.88z"/>
			<path class="st1" d="M225.07,290.88h3.99v21.76h6.57v3.62h-10.55v-25.38H225.07z"/>
			<path class="st1" d="M237.36,290.88h3.99v25.38h-3.99V290.88z"/>
			<path class="st1" d="M247.81,297.88v18.38h-3.59v-25.38h5l4.1,15.19v-15.19h3.55v25.38h-4.1L247.81,297.88z"/>
			<path class="st1" d="M263.72,301.57h5.48v3.62h-5.48v7.43h6.89v3.62h-10.88v-25.38h10.88v3.62h-6.89V301.57z"/>
		</g>
		<g>
			<g>
				<circle class="st2" cx="172.57" cy="136.79" r="56.29"/>
			</g>
			<g>
				<g>
					<path class="st1" d="M172.03,146v19.89h-16.87L144.79,142l23.58-55.4h3.66v48.96c-2.53,0.39-4.47,2.57-4.47,5.22
						C167.55,143.42,169.5,145.61,172.03,146z M177.72,86.6h-3.66v49.04c2.33,0.55,4.07,2.64,4.07,5.14c0,2.5-1.74,4.59-4.07,5.14
						v19.97h16.87L201.3,142L177.72,86.6z"/>
					<path class="st3" d="M190.93,166.26h-16.87c-0.21,0-0.37-0.17-0.37-0.37v-19.97c0-0.17,0.12-0.32,0.29-0.36
						c2.22-0.53,3.78-2.49,3.78-4.77c0-2.28-1.55-4.25-3.78-4.78c-0.17-0.04-0.29-0.19-0.29-0.36V86.6c0-0.21,0.17-0.37,0.37-0.37
						h3.66c0.15,0,0.29,0.09,0.34,0.23l23.58,55.4c0.04,0.09,0.04,0.2,0,0.3l-10.37,23.89
						C191.22,166.17,191.08,166.26,190.93,166.26z M174.43,165.51h16.26L200.9,142l-23.42-55.02h-3.04v48.38
						c2.41,0.7,4.07,2.89,4.07,5.43c0,2.53-1.66,4.72-4.07,5.43V165.51z M172.03,166.26h-16.87c-0.15,0-0.28-0.09-0.34-0.22
						l-10.37-23.89c-0.04-0.09-0.04-0.2,0-0.3l23.58-55.4c0.06-0.14,0.19-0.23,0.34-0.23h3.66c0.21,0,0.37,0.17,0.37,0.37v48.96
						c0,0.18-0.13,0.34-0.32,0.37c-2.41,0.37-4.16,2.41-4.16,4.85c0,2.44,1.75,4.47,4.16,4.85c0.18,0.03,0.32,0.18,0.32,0.37v19.89
						C172.4,166.09,172.23,166.26,172.03,166.26z M155.4,165.51h16.26v-19.2c-2.61-0.55-4.47-2.83-4.47-5.53
						c0-2.7,1.86-4.98,4.47-5.53V86.97h-3.04L145.19,142L155.4,165.51z"/>
				</g>
				<g>
					<rect x="155.41" y="168.55" class="st3" width="35.43" height="11.98"/>
					<path class="st3" d="M190.84,180.9h-35.43c-0.21,0-0.37-0.17-0.37-0.37v-11.98c0-0.21,0.17-0.37,0.37-0.37h35.43
						c0.21,0,0.37,0.17,0.37,0.37v11.98C191.21,180.73,191.05,180.9,190.84,180.9z M155.79,180.15h34.68v-11.23h-34.68V180.15z"/>
				</g>
				<g>
					<g>
						<path class="st3" d="M178.13,140.78c0,2.5-1.74,4.59-4.07,5.14v19.97h16.87L201.3,142l-6.82-16.02
							c-5.56,4.41-11.44,8.37-17.25,11.86C177.8,138.68,178.13,139.69,178.13,140.78z"/>
						<path class="st3" d="M190.93,166.26h-16.87c-0.21,0-0.37-0.17-0.37-0.37v-19.97c0-0.17,0.12-0.32,0.29-0.36
							c2.22-0.53,3.78-2.49,3.78-4.77c0-0.98-0.29-1.92-0.83-2.73c-0.06-0.08-0.08-0.19-0.05-0.29c0.02-0.1,0.08-0.19,0.17-0.24
							c6.28-3.78,12.07-7.76,17.21-11.84c0.09-0.07,0.21-0.1,0.32-0.07c0.11,0.03,0.21,0.11,0.25,0.22l6.82,16.02
							c0.04,0.09,0.04,0.2,0,0.3l-10.37,23.89C191.22,166.17,191.08,166.26,190.93,166.26z M174.43,165.51h16.26L200.9,142
							l-6.57-15.43c-4.98,3.92-10.55,7.75-16.58,11.39c0.49,0.85,0.75,1.82,0.75,2.82c0,2.53-1.66,4.72-4.07,5.43V165.51z"/>
					</g>
					<g>
						<path class="st3" d="M155.15,165.89h16.87V146c-1.76-0.27-3.23-1.41-3.97-2.96c-6.97,3.72-13.52,6.72-18.92,9.01
							L155.15,165.89z"/>
						<path class="st3" d="M172.03,166.26h-16.87c-0.15,0-0.28-0.09-0.34-0.22l-6.01-13.85c-0.04-0.09-0.04-0.19,0-0.29
							c0.04-0.09,0.11-0.17,0.2-0.21c6.5-2.75,12.86-5.78,18.89-8.99c0.09-0.05,0.19-0.06,0.29-0.02c0.1,0.03,0.18,0.1,0.22,0.19
							c0.7,1.48,2.08,2.51,3.69,2.75c0.18,0.03,0.32,0.18,0.32,0.37v19.89C172.4,166.09,172.23,166.26,172.03,166.26z M155.4,165.51
							h16.26v-19.21c-1.59-0.34-2.96-1.35-3.75-2.77c-5.84,3.1-11.98,6.03-18.27,8.7L155.4,165.51z"/>
					</g>
				</g>
			</g>
			<g>
				<path class="st3" d="M254.77,136.79h-2.99c0-43.68-35.53-79.21-79.21-79.21s-79.21,35.53-79.21,79.21h-2.99
					c0-45.32,36.87-82.2,82.2-82.2S254.77,91.47,254.77,136.79z"/>
			</g>
			<g>
				<rect x="123.05" y="54.59" class="st3" width="99.03" height="2.99"/>
			</g>
			<g>
				<circle class="st1" cx="172.57" cy="56.09" r="5.33"/>
				<path class="st3" d="M172.57,62.91c-3.76,0-6.82-3.06-6.82-6.82s3.06-6.82,6.82-6.82s6.82,3.06,6.82,6.82
					S176.33,62.91,172.57,62.91z M172.57,52.25c-2.11,0-3.83,1.72-3.83,3.83c0,2.11,1.72,3.83,3.83,3.83c2.11,0,3.83-1.72,3.83-3.83
					C176.4,53.97,174.68,52.25,172.57,52.25z"/>
			</g>
			<g>
				<circle class="st1" cx="123.7" cy="56.09" r="5.33"/>
				<path class="st3" d="M123.7,62.91c-3.76,0-6.82-3.06-6.82-6.82s3.06-6.82,6.82-6.82s6.82,3.06,6.82,6.82
					S127.46,62.91,123.7,62.91z M123.7,52.25c-2.11,0-3.83,1.72-3.83,3.83c0,2.11,1.72,3.83,3.83,3.83c2.11,0,3.83-1.72,3.83-3.83
					C127.53,53.97,125.81,52.25,123.7,52.25z"/>
			</g>
			<g>
				<circle class="st1" cx="221.4" cy="56.09" r="5.33"/>
				<path class="st3" d="M221.4,62.91c-3.76,0-6.82-3.06-6.82-6.82s3.06-6.82,6.82-6.82s6.82,3.06,6.82,6.82
					S225.16,62.91,221.4,62.91z M221.4,52.25c-2.11,0-3.83,1.72-3.83,3.83c0,2.11,1.72,3.83,3.83,3.83c2.11,0,3.83-1.72,3.83-3.83
					C225.23,53.97,223.51,52.25,221.4,52.25z"/>
			</g>
			<g>
				
					<ellipse transform="matrix(0.7071 -0.7071 0.7071 0.7071 -31.5664 228.2596)" class="st4" cx="259.75" cy="152.23" rx="24.41" ry="24.41"/>
			</g>
			<g>
				<g>
					<path class="st1" d="M255.65,171.38c-0.58,0-1.07-0.45-1.11-1.04l-2.34-33.17c-0.03-0.48,0.25-0.93,0.69-1.11
						c0.45-0.18,0.96-0.05,1.27,0.32l20.98,24.88c0.4,0.47,0.34,1.18-0.13,1.57c-0.47,0.4-1.18,0.34-1.57-0.13l-18.77-22.26
						l2.1,29.75c0.04,0.61-0.42,1.15-1.04,1.19C255.71,171.38,255.68,171.38,255.65,171.38z"/>
				</g>
			</g>
			<g>
				
					<ellipse transform="matrix(0.6165 -0.7874 0.7874 0.6165 -84.6635 256.1334)" class="st5" cx="220.59" cy="214.97" rx="24.41" ry="24.41"/>
			</g>
			<g>
				<g>
					<path class="st1" d="M234.41,214.71l6.99-6.99l5.93,5.93l-4.75,12.04l-27.77,11.19l-1.29-1.29l17.21-17.21
						c1.03,0.75,2.48,0.67,3.41-0.26C235.07,217.19,235.16,215.74,234.41,214.71z M211.52,233.59l1.29,1.29l17.24-17.24
						c-0.63-1.01-0.5-2.36,0.38-3.24c0.88-0.88,2.22-1,3.24-0.38l7.02-7.02l-5.93-5.93l-12.04,4.75L211.52,233.59z"/>
					<path class="st3" d="M214.81,237.25c-0.1,0-0.19-0.04-0.26-0.11l-1.29-1.29c-0.15-0.15-0.15-0.38,0-0.53l17.21-17.21
						c0.13-0.13,0.34-0.15,0.48-0.04c0.9,0.66,2.13,0.57,2.92-0.22c0.79-0.79,0.88-2.02,0.22-2.92c-0.11-0.15-0.09-0.35,0.04-0.48
						l6.99-6.99c0.15-0.15,0.38-0.15,0.53,0l5.93,5.93c0.11,0.11,0.14,0.26,0.08,0.4l-4.75,12.04c-0.04,0.1-0.11,0.17-0.21,0.21
						l-27.77,11.19C214.9,237.24,214.86,237.25,214.81,237.25z M214.05,235.59l0.85,0.85l27.39-11.03l4.6-11.67l-5.49-5.5
						l-6.51,6.51c0.68,1.17,0.5,2.65-0.48,3.62c-0.98,0.98-2.45,1.15-3.62,0.48L214.05,235.59z M212.81,235.25
						c-0.1,0-0.19-0.04-0.26-0.11l-1.29-1.29c-0.11-0.11-0.14-0.26-0.08-0.4l11.19-27.77c0.04-0.1,0.11-0.17,0.21-0.21l12.04-4.75
						c0.14-0.05,0.3-0.02,0.4,0.08l5.93,5.93c0.15,0.15,0.15,0.38,0,0.53l-7.02,7.02c-0.12,0.12-0.31,0.14-0.46,0.05
						c-0.89-0.55-2.03-0.42-2.78,0.32c-0.74,0.74-0.87,1.88-0.32,2.78c0.09,0.15,0.07,0.34-0.05,0.46l-17.24,17.24
						C213,235.22,212.9,235.25,212.81,235.25z M211.96,233.5l0.85,0.85l16.78-16.78c-0.56-1.14-0.34-2.52,0.58-3.43
						c0.92-0.92,2.29-1.13,3.43-0.58l6.56-6.56l-5.5-5.49l-11.67,4.6L211.96,233.5z"/>
				</g>
				<g>
					
						<rect x="235.25" y="201.31" transform="matrix(-0.7071 -0.7071 0.7071 -0.7071 272.1722 521.3152)" class="st3" width="17.62" height="5.95"/>
					<path class="st3" d="M248.18,213c-0.1,0-0.19-0.04-0.26-0.11l-12.46-12.46c-0.07-0.07-0.11-0.16-0.11-0.26s0.04-0.19,0.11-0.26
						l4.21-4.21c0.15-0.15,0.38-0.15,0.53,0l12.46,12.46c0.15,0.15,0.15,0.38,0,0.53l-4.21,4.21
						C248.37,212.96,248.28,213,248.18,213z M236.25,200.17l11.93,11.93l3.68-3.68l-11.93-11.93L236.25,200.17z"/>
				</g>
			</g>
			<g>
				<g>
					<path class="st6" d="M210.36,238.52c-0.11,0-0.22-0.02-0.33-0.05c-0.1-0.03-10.46-3.31-9.33-13.02
						c0.53-4.54,2.87-7.22,5.13-9.8c2.4-2.75,4.68-5.35,4.84-10.25c0.3-8.98-7.01-10.98-7.32-11.07c-0.6-0.15-0.95-0.76-0.8-1.36
						c0.15-0.6,0.76-0.96,1.35-0.81c0.09,0.02,9.36,2.49,9,13.3c-0.19,5.7-2.83,8.72-5.39,11.65c-2.13,2.44-4.14,4.74-4.59,8.59
						c-0.92,7.85,7.41,10.52,7.76,10.63c0.59,0.18,0.92,0.81,0.74,1.39C211.27,238.21,210.83,238.52,210.36,238.52z"/>
				</g>
			</g>
			<g>
				
					<ellipse transform="matrix(0.974 -0.2266 0.2266 0.974 -45.7419 33.4304)" class="st6" cx="122.75" cy="215.97" rx="24.41" ry="24.41"/>
			</g>
			<g>
				<g>
					<path class="st1" d="M134.15,215.14l6.99-6.99l5.93,5.93l-4.75,12.04l-27.77,11.19l-1.29-1.29l17.21-17.21
						c1.03,0.75,2.48,0.67,3.41-0.26C134.82,217.61,134.91,216.16,134.15,215.14z M111.27,234.02l1.29,1.29l17.24-17.24
						c-0.63-1.01-0.5-2.36,0.38-3.24c0.88-0.88,2.22-1,3.24-0.38l7.02-7.02l-5.93-5.93l-12.04,4.75L111.27,234.02z"/>
					<path class="st3" d="M114.56,237.68c-0.1,0-0.19-0.04-0.26-0.11l-1.29-1.29c-0.15-0.15-0.15-0.38,0-0.53l17.21-17.22
						c0.13-0.13,0.34-0.15,0.49-0.04c0.9,0.66,2.13,0.57,2.92-0.22c0.79-0.79,0.89-2.02,0.22-2.92c-0.11-0.15-0.09-0.35,0.04-0.48
						l6.99-6.99c0.15-0.15,0.38-0.15,0.53,0l5.93,5.93c0.11,0.11,0.14,0.26,0.08,0.4l-4.75,12.04c-0.04,0.1-0.11,0.17-0.21,0.21
						l-27.77,11.19C114.65,237.67,114.6,237.68,114.56,237.68z M113.8,236.02l0.85,0.85l27.39-11.03l4.6-11.67l-5.49-5.5l-6.51,6.51
						c0.68,1.17,0.5,2.65-0.48,3.62c-0.97,0.98-2.45,1.16-3.62,0.48L113.8,236.02z M112.56,235.68c-0.1,0-0.19-0.04-0.26-0.11
						l-1.29-1.29c-0.11-0.11-0.14-0.26-0.08-0.4l11.19-27.77c0.04-0.1,0.11-0.17,0.21-0.21l12.04-4.75c0.14-0.05,0.3-0.02,0.4,0.08
						l5.93,5.93c0.15,0.15,0.15,0.38,0,0.53l-7.02,7.02c-0.12,0.12-0.31,0.14-0.46,0.05c-0.89-0.55-2.03-0.42-2.78,0.32
						c-0.74,0.74-0.87,1.88-0.32,2.78c0.09,0.15,0.07,0.34-0.05,0.46l-17.24,17.24C112.75,235.64,112.65,235.68,112.56,235.68z
						 M111.71,233.93l0.85,0.85L129.34,218c-0.56-1.14-0.34-2.52,0.58-3.43c0.92-0.92,2.29-1.13,3.43-0.58l6.56-6.56l-5.49-5.49
						l-11.67,4.6L111.71,233.93z"/>
				</g>
				<g>
					
						<rect x="134.99" y="201.74" transform="matrix(-0.7071 -0.7071 0.7071 -0.7071 100.7304 451.1549)" class="st3" width="17.62" height="5.95"/>
					<path class="st3" d="M147.92,213.42c-0.1,0-0.19-0.04-0.26-0.11l-12.46-12.46c-0.15-0.15-0.15-0.38,0-0.53l4.21-4.21
						c0.15-0.15,0.38-0.15,0.53,0l12.46,12.46c0.15,0.15,0.15,0.38,0,0.53l-4.21,4.21C148.12,213.39,148.02,213.42,147.92,213.42z
						 M136,200.59l11.93,11.93l3.68-3.68l-11.93-11.93L136,200.59z"/>
				</g>
			</g>
			<g>
				<rect x="102.65" y="204.21" class="st5" width="2.98" height="21.58"/>
			</g>
			<g>
				
					<rect x="102.65" y="204.21" transform="matrix(-1.836970e-16 1 -1 -1.836970e-16 319.1325 110.8618)" class="st5" width="2.98" height="21.58"/>
			</g>
			<g>
				
					<ellipse transform="matrix(0.4084 -0.9128 0.9128 0.4084 -89.4354 163.4925)" class="st7" cx="81.41" cy="150.74" rx="24.41" ry="24.41"/>
			</g>
			<g>
				<g>
					<g>
						<path class="st1" d="M91.74,147.81l6.99-6.99l5.93,5.93l-4.75,12.04l-27.77,11.19l-1.29-1.29l17.21-17.21
							c1.03,0.75,2.48,0.67,3.41-0.26C92.41,150.29,92.49,148.84,91.74,147.81z M68.85,166.7l1.29,1.29l17.24-17.24
							c-0.63-1.01-0.5-2.36,0.38-3.24c0.88-0.88,2.22-1,3.24-0.38l7.02-7.02l-5.93-5.93l-12.04,4.75L68.85,166.7z"/>
						<path class="st3" d="M72.14,170.36c-0.1,0-0.19-0.04-0.26-0.11l-1.29-1.29c-0.07-0.07-0.11-0.16-0.11-0.26
							s0.04-0.19,0.11-0.26l17.22-17.21c0.13-0.13,0.34-0.14,0.48-0.04c0.9,0.66,2.13,0.57,2.92-0.22c0.79-0.79,0.89-2.02,0.22-2.92
							c-0.11-0.15-0.09-0.35,0.04-0.48l6.99-6.99c0.15-0.15,0.38-0.15,0.53,0l5.93,5.93c0.11,0.11,0.14,0.26,0.08,0.4l-4.75,12.04
							c-0.04,0.1-0.11,0.17-0.21,0.21l-27.77,11.19C72.24,170.35,72.19,170.36,72.14,170.36z M71.38,168.7l0.85,0.85l27.39-11.03
							l4.6-11.67l-5.49-5.5l-6.51,6.51c0.68,1.17,0.5,2.65-0.48,3.62c-0.98,0.98-2.45,1.16-3.62,0.48L71.38,168.7z M70.14,168.36
							L70.14,168.36c-0.1,0-0.19-0.04-0.26-0.11l-1.29-1.29c-0.11-0.11-0.14-0.26-0.08-0.4l11.19-27.77
							c0.04-0.1,0.11-0.17,0.21-0.21l12.04-4.75c0.14-0.05,0.3-0.02,0.4,0.08l5.93,5.93c0.15,0.15,0.15,0.38,0,0.53l-7.02,7.02
							c-0.12,0.12-0.31,0.14-0.46,0.05c-0.89-0.55-2.03-0.42-2.78,0.32c-0.74,0.74-0.87,1.88-0.32,2.78
							c0.09,0.15,0.07,0.34-0.05,0.46l-17.24,17.24C70.33,168.32,70.24,168.36,70.14,168.36z M69.29,166.61l0.85,0.85l16.78-16.78
							c-0.56-1.14-0.34-2.52,0.58-3.43c0.92-0.92,2.29-1.14,3.43-0.58l6.56-6.56l-5.5-5.49l-11.67,4.6L69.29,166.61z"/>
					</g>
					<g>
						
							<rect x="92.58" y="134.41" transform="matrix(-0.7071 -0.7071 0.7071 -0.7071 75.9274 306.2349)" class="st3" width="17.62" height="5.95"/>
						<path class="st3" d="M105.51,146.1c-0.1,0-0.19-0.04-0.26-0.11l-12.46-12.46c-0.15-0.15-0.15-0.38,0-0.53l4.21-4.21
							c0.15-0.15,0.38-0.15,0.53,0l12.46,12.46c0.15,0.15,0.15,0.38,0,0.53l-4.21,4.21C105.7,146.06,105.6,146.1,105.51,146.1z
							 M93.58,133.27l11.93,11.93l3.68-3.68l-11.93-11.93L93.58,133.27z"/>
					</g>
				</g>
				<g>
					
						<rect x="64.07" y="140.72" transform="matrix(-1.836970e-16 1 -1 -1.836970e-16 213.2302 82.1178)" class="st3" width="2.98" height="13.91"/>
				</g>
			</g>
		</g>
	</g>
</g>
</svg>
