<svg id="Слой_1" data-name="Слой 1" xmlns="http://www.w3.org/2000/svg" viewBox="0 0 226.77 226.77"><defs><style>.cls-1{fill:#c1272d;}.cls-2{fill:#2f110c;}</style></defs><path class="cls-1" d="M50.27,74.37c0-7.46-.32-26.81,10.32-34s33.77-10.64,49.53-8.15,38.88,8.2,43.39,8,9.41-1.8,10.33-.38-5.86,2-4.66,3c.3.25,3-.72,5.25-1.24,1.45-.34,4.15.69,3.55,1.56-1.51,2.21-5.58,0-4.85,8.4.49,5.57,16.64,16.11,18.58,19s-1.25,6.08-2.35,7.55-3.18.83-4.56,1.39-5.14,4.5-8.16,5A52.74,52.74,0,0,1,158.5,86c-4.46.44-5.82,2.63-9.27,2.74s-6.77-.53-6.5,1c-.27,7.6-4.3,11.08-3.45,15.76s6.49,14.56,6.49,15.89-6,1-6.65-.25c0,0-.71-1.65-1.56-3.82-.23-.6-1.62,0-1.88-.63-1-2.57-.83-6.75-1.24-8.7-.91-4.29-7.88-10.92-7.88-10.92s-27.36,9.81-38.83,5.39c-5.82-2.24-9.89-6.59-11.48-5.12a49.77,49.77,0,0,1-2.9,6.36c-1.24,2-3.28,3.19-3.18,5.25.14,2.77,5.66,11.5,5,13.29-.1.26-2.5,1.33-5.41.63a13.25,13.25,0,0,0-1.63-5.49c-.66-1.09-1.52.49-2.07-1-.33-.85-.42-4.76-.56-5.67-1-6.49-4.52-9.4-5.8-10.92C51,89.56,50.27,81.84,50.27,74.37Z"/><path class="cls-1" d="M45.63,41.25a3.92,3.92,0,0,0,.8,3.83,3.33,3.33,0,0,0,3.13.5c2-.51,4.6-2.89,2.82-5-1.13-1.33-3-1.73-4.21-.34a5.36,5.36,0,0,0-.76,5.4c1.9,3.95,8.49,3.3,11,.46a4,4,0,0,0,.64-1c.56-1.21-1.14-2.27-1.82-1.06-1.36,2.41-5.15,2.88-7.35,1.42-1.12-.74-1.1-2.31-.77-3.45a1.3,1.3,0,0,1,2.42-.43c1.06,1.39-1.33,2.77-2.35,3.1a2.79,2.79,0,0,1-2.33-.17c-1.07-.67-.86-2.2-.9-3.26a.16.16,0,0,0-.31,0Z"/><path class="cls-1" d="M25.54,177.72,24,177.63l-.6.12-.35-.23-1.55.23H11.56V176l-.32-1.39V148.65l-.35-.16H24.43l.83.32V153l-.64-.28H17l-1.63.08-.24.24v2.78l.2,1.5v2.74l.32.28h4l2.58-.28.08,1.71-.16.16.2,2.82H15.13l.48,2.58v3.26l-.12,1.27.16,1.71h9.89Z"/><path class="cls-1" d="M44.46,177.48l-.14.14h-.77l-1.84-.28-.45.07-.73-.77.07-1.32-.28-.17v-.28l.18-.17-.63-1,.18-.52-1.12.28-.86-.07-2.58.1-.34-.45-.39,1-.55,2.26-.14,1.21-3.44-.31L32,166.25l1.53-8.09.35-1.08v-1.46l.24-.28v-1l.35-.66.21-1.6,4.83.21.13,1.32.28.9.35.7.17.13v1.43l.42.69-.07.77.24,0,.73,3.58.32.42.45,2.67.45,1.67-.1.28.69,2.61.21,1.25.07,1.21.35.66v.18L44,173l.14.39.21,2.22Zm-6.81-18.9h-.42l-.9,8.23h.31V167l-.55,1.22-.32,1.11.73-.14,2.78-.18Z"/><path class="cls-1" d="M60.72,156.53H55.44V178.1l-2.75-.24-.62.28-.66,0v-7.33l-.07-.31.14-.21-.28-3.09-.14-.18.35-.83v-9.62H46.16v-4.31H60.65v.8l-.11.31.18.35Z"/><path class="cls-1" d="M81.67,166l-.12.16v1.47l-.12.75.24.32v.48l-.16,0-.08.87.16.16-.24,2.14v2.39l-.28.39v2.43l-.24.51h-3l-.68-.24-.43-.27V166.64l.31-4.77-.87,2.86-.32,1.83-.59,1.7-.2,2-.64.32-.59-.16-.56-2.26-2.54-7,.32,6.35v6.35l-.4,3.62-.16.35H67.06l-.72-2.26V150.12l.6-1.51.31-.24,2.74-.12,3.26,7.19.64,2.38v-.28l.31-.75,1-4.92.43-.44,1.07-3.06H80.6l.79,6.59h.12v.2l-.2.2.24.79V160l.24.44-.28.68Z"/><path class="cls-1" d="M100.29,177.72l-1.36-.07-.52.1-.31-.2-1.36.2H88.06v-1.56L87.78,175V152.29l-.31-.14H99.31l.73.28v3.68l-.55-.24H92.82l-1.43.07-.21.2v2.44l.18,1.32v2.39l.27.25h3.48l2.26-.25.07,1.5-.14.14.17,2.46H91.18l.42,2.26v2.85l-.1,1.11.13,1.5h8.66Z"/><path class="cls-1" d="M118.67,177.48l-.14.14h-.77l-1.84-.28-.45.07-.73-.77.07-1.32-.28-.17v-.28l.17-.17-.62-1,.17-.52-1.11.28-.87-.07-2.57.1-.35-.45-.38,1-.55,2.26-.14,1.21-3.44-.31,1.32-10.95,1.53-8.09.34-1.08v-1.46l.25-.28v-1l.34-.66.21-1.6,4.83.21.14,1.32.28.9.35.7.17.13v1.43l.42.69-.07.77.24,0,.73,3.58.31.42.45,2.67.46,1.67-.11.28.7,2.61.21,1.25.07,1.21.34.66v.18l-.17.27.14.39.21,2.22Zm-6.81-18.9h-.42l-.9,8.23h.31V167l-.56,1.22-.31,1.11.73-.14,2.78-.18Z"/><path class="cls-1" d="M134.92,156.53h-5.28V178.1l-2.74-.24-.63.28-.66,0v-7.33l-.07-.31.14-.21-.28-3.09-.13-.18.34-.83v-9.62h-5.24v-4.31h14.49v.8l-.11.31.17.35Z"/><path class="cls-1" d="M156.63,172l-.56,2.62v.95l.32.52-.16,1.35-3-.16-.39.08H141.38l-.28-.84-.27-2.5v-8.49l.15-.24,1.67-.08h2.58v1.86l.28.4-.24.2v3.61l-.12.32.2,1.71h7l-.44-7.07-11.15-5.32V148.49H147l.2-.16.67.08.16.16,1.27-.24.2.24,1.23-.32.64,0,.12.2,3-.24.2.24.92.28.16,1.75-.24.11.47.68v1.11l-.15.28.27.52V160l-4-.35-.35-1.27V153.1L151,153l-1.87.12H144.8v1.54l.23.4-.15.44v.95l.15.16-.11.36v.83l.51.4L154.6,163v.32l1.79.8v.27l-.2.12.24,5.68-.24,1.15.28.16,0,.44Z"/><path class="cls-1" d="M177.53,169.73l-.31.59v7.26h-4.07l-.73-1.81v-8l-3.3.21h-1l-.07.07.11.63V169l.31.14-.31.32v.24l.21.14-.18.31-.1,2.5.17,2.47-.1.28v2l-.21.24H164l-.69-.9-.28-.63.42-.35v-1l-.31-.21.41-.83-.31-.42,0-.55.28-1.22-.28-.94v-9.38l.18-.1-.14-.28v-2.61l.17-1.07v-3.69l-.24-1.32.21-.2h4.45l.76,9.72-.21.11,0,.59-.14.1.28.59,2.39-.14,1.6-.27-.14-.59v-6.74l-.17-3.37h4.24l.24.93v1.46l-.21.45.14,1.05.49,2.08L177,158l-.14.21.39,2.81.14.21,0,.24-.17.21.31,1.25v5.91l-.07.35-.17.17.1.11Z"/><path class="cls-1" d="M196.4,171.05l0,.59-.1,1.49-.14.28.17.14-.28.14.11.38.31.56-.31.28.21.07-.18,1,.14,2-.21,0-.28-.27-.17.31h-.21l-.17-.28-.18.17-.27-.1H193.3l-.41-.17v.17h-1.64l-1.66-.17-.11.2h-2.81l-2.26-.2-.11-.11-.17.18h-.28l-.52-6.81V160.14l.21-1.11v-.73l-.21-.21.25-.63v-.24l-.25-.14.21-.24-.28-5h12.09l.59.31v5.11l.35.48,0,.42-.28.8.21.17-.14,1.63.28.18-.14,1.87.21.39v.52l-.32.24.42.8-.21.17.11.42-.11.31v.84l.11.35-.14.2.1.42-.07.31.21.14-.14.38v2.47l.24.14Zm-3.58-.24-.11-2-.24-.49v-7.4l-.28-.11.25-.38v-3.58l.1-1H187l.13,2.09-.13.27.17.07v.18l-.21.31.21.69V164l.21.24-.07.14-.25.14.53.31-.59.49.38,2.29.1,3.2-.31.17.31.38v.77l-.17,1.59.1.21,3.06-.21h2.26V172l-.07-.41.21-.14Z"/><path class="cls-1" d="M215.89,153l-.21.38V162h-10v8.72l.41,6.85-.34.2-.73-.2-.18,0-.17.17-.63-.2h-.9l-.63.17V153l-.2-.38.07-.42,1.94.1.56-.07.24.14,2.54-.1.24.14h5.32l2.36.1v.24Zm-3.55,5.18v-2.29h-6.88l.32,1.28v1Z"/><path class="cls-2" d="M32.35,191.18l-.05,0v.51l0,.25.08.12v.15l-.07,0v.31l0,0-.09.74v.82l-.1.13V195l-.07.17H31l-.24-.08-.15-.09v-1.23l0-2,.05-2H30l-.32,1-.22.9-.42.63-.49-.63-.22-.84-.41-1.09h-.63v2.09l.05,2.06-.13,1.13-.05.12-.41,0-.88,0v-.68l0-.76-.05-.88-.1-.25.1-.09-.07-1.64.09-1.05v-1l-.19-.27.13-1.52v-1.29l.06-.57.52.05.71-.05.34.54.4.59L28,187l.36.7.62,1.11.7-1.1.23-.57.09-.36.08-.33.24-.39.4.13-.32-.27.36-.78.73,0,.57,0,.05.42.07.65,0,1.18h0v.07l-.06.07.08.27v1.33l.09.16-.11.23Z"/><path class="cls-2" d="M41.1,195.15l-.05,0h-.31l-.72-.1-.17,0-.29-.31,0-.5-.12-.07v-.12l.07-.07-.23-.39.06-.2-.44.12-.34,0-1,0-.14-.17-.15.39-.22.88-.05.49L35.68,195l.53-4.28.59-3.17.14-.42v-.58l.1-.1v-.4l.13-.26.07-.62,1.9.08,0,.51.12.35.13.27.07.07v.56l.17.27,0,.29h.1L40,189l.13.16.17,1.05.19.66,0,.1.27,1,.08.49,0,.47.14.28v.06l-.07.1.05.16.09.86Zm-2.67-7.41h-.16L37.92,191H38v.09l-.22.47-.12.44.29-.07,1.08-.06Z"/><path class="cls-2" d="M50,186.86H48.39l-.07.07-.08,0,0-.14-2-.06,0,.06-.1.09.07.3.07.86,0,1.7-.08,1.06v4.45H44.4l.05-.3.07-1.47v-8.29H50Z"/><path class="cls-2" d="M58.74,195.15l-.05,0h-.3l-.73-.1-.17,0-.29-.31,0-.5-.12-.07v-.12l.07-.07-.24-.39.07-.2-.44.12-.34,0-1,0-.13-.17-.16.39-.22.88,0,.49L53.33,195l.52-4.28.6-3.17.13-.42v-.58l.1-.1v-.4l.14-.26.07-.62,1.89.08,0,.51.12.35.14.27.06.07v.56l.17.27,0,.29h.1l.27,1.39.14.16.16,1.05.19.66,0,.1.27,1,.09.49,0,.47.13.28v.06l-.06.1,0,.16.08.86Zm-2.67-7.41h-.15L55.56,191h.12v.09l-.22.47-.12.44.29-.07,1.08-.06Z"/><path class="cls-2" d="M67.64,194.14l-.22.42-.49.64-.41-.08H64.75l-.69.08h-.63l-1-.81v-.68l0-.32.31-.33-.27,0,0-.64v-.66l.59,0,.87,0,0,.49,0,.63v.52l.16.29.27.13h.76l.81,0v-1.62l0-1.3-.39-.22H64.39l0-1.23.66-.09.39,0,.49,0L65.81,188l0-1.18-.32-.22H64l0,.1-.13.17L64,187l-.05.64V188H63l-.51.05-.12-1.57,0-.69.49-.56.88,0,.54,0,.18.15.28-.17.76.07h1l.27.08.27.11.21.5.1,0,0,1,.06,2.5v.49l-.07.31.2.49v1.18l.1.22v.61l-.05.24,0,.1,0,.29.07.5Z"/><path class="cls-2" d="M71.41,188.56l-.08,0v-.13l.07-.07.1-1v-.4l.17-1.71h1.44l.11.32L73,191.25l.06-.07L73.8,189l.47-1,0-.17.15-.34,0-.05.08-.05,1-2.28.23.08h.7l.33-.07.17,1.53v1.93l-.23,6.48-.21,0h-.3l-.1,0-.07.06h-.54l-.24-.06-.1-3.12,0-.1v-.1l.12-.83-.07-.39.08-.2v-.95l-.29.92-.76,2-.69,1.64L73.07,195l0,.12-.09.16H71.46l0-1.55-.08-.29-.1-.13.1-.05v-.16l-.09,0,.09-.15-.07-1.39,0-.05-.07-.2,0-.06Z"/><path class="cls-2" d="M84.44,195.2l.15-.2.07-.3-.07-1-.07-.84-.06-1-.07-1-.14-.15-.08.15-.8-.12-.62.12-.15.12,0,1.11.05,1,0,1.12,0,1.1-.24-.11H81.06l0-1.33-.13-.22-.07-2-.13-.18.18-.22-.1-1.07,0-.85.14-.86-.14-.56-.1-.62,0-1.34.06-.66,1.66-.07,0,.87.07,1.05,0,.87.07,1,.47-.14.34.2.42-.11.64,0,.14-.17v-.34l-.15-.91v-1.9l0-.51.56,0,1.12-.08.07.18,0,.34,0,.58.07.79.05.75,0,.89-.22,1,0,.47.34,1-.19.51,0,.71,0,.78.08.73,0,.84.08.2,0,.22Z"/><path class="cls-2" d="M101.61,195l-.1.1-1.2-.1H96.67l-.08-.57-.1-1.34V192l-.06-.27.07-.7-.08-.25V189.5l.1-.62,0-.76v-2.81h4.58l.24-.05.25.23-.08.31v3.57l-.36-.07-.24-.12-.11,0-.07-.1-.39.06h-.15l-.27-.08v-1.59l0-.22v-.61H98.09v.71l.19,1.85-.07.18v2.74l-.07.07.1.12-.08.22v.24l.08,0,0,.54.44.07H100v-2.08l1.64-.36Z"/><path class="cls-2" d="M110.22,191.48l-.1.75.07,1.89-.07.41.07.83-.2-.07-.27,0-.19-.08h-.69v0h-.65l-.62-.07,0,.09H106l-.41-.09,0,0-.07.07h-.08l-.12-1.36-.1-2.18v-1.5l.1-1.41v-1l-.08-.07v-2.42h3.79l.22.12v2l.13.21,0,.15-.1.3.07.07,0,.64.1.07,0,.14v.62h.93l-.12.41.12.25v1.09l0,.12Zm-2.37-4.67h-1.32l0,.81,0,.11h.07v.07l-.07.14.07.22v1.45h1.25Zm1,5.38-.12-.4v-.85l-.42.19h-1.61l0,.54-.09.2.07.12.07,0,0,.44,0,.2h0l.12.15,0,.79,0,.21,1.18-.09h.88V193l0-.11.08,0Z"/><path class="cls-2" d="M118.58,195.25h-.53l-.2,0-.13-.08-.53.08h-3.38v-.61l-.12-.47v-8.87l-.12,0h4.64l.27.11V187l-.21-.09H115.8l-.55,0-.09.09v.81l.07.52v.93l.1.1h1.22l.9-.1v.59l0,.06.07,1H115.3v2l0,.42,0,.45h3.25Z"/><path class="cls-2" d="M125.24,192.8l-.38.75-.33.71-.45,1-.76-.1-.41.1-.34-.1-.57.1.08-.57-.08-.6h.72l.48-1.2.42-1,.49-1.06,0-.71-.11-.33-.32-1.12.16-.22-.27,0-.33-.54-.16-.4-.17-.39-.22-.61H122l0-1.25.78,0h.58l1-.05.22.93.27.9.27.74.36.9.29,1.18.27.09,0-1.31.06-1.38,0-.49v-.5l0-.47-.05-.46h.56l.59.19.21-.17.61,0-.11.76-.16.71,0,1.74,0,1.59.29,0,.23-.71.24-.73.2-.81.17.3-.1-.62.24-.8.13-.46.16-.47.15-.46,1,0,.61,0,.7,0-.11,1.1-.66,0-.2.65-.25.59-.24.86-.24.61-.32,1.12,0,.67.28.82.32.79.28.95.33.47.63.09-.1,1h-.81l-.19-.31-.08.32-1.05,0-.29-.81-.31-.81-.15-.54-.18-.53-.21-.62-.23-.65-.34.07,0,.36v.89l.21.31-.21.25,0,.44-.09.88.09.81h-1.88l.05-.91,0-.91,0-.92.09-1.35h-.21l-.18.71-.31.51Z"/><path class="cls-2" d="M140,195.25h-.52l-.2,0-.14-.08-.52.08h-3.39v-.61l-.12-.47v-8.87l-.12,0h4.64l.27.11V187l-.2-.09h-2.47l-.56,0-.08.09v.81l.06.52v.93l.1.1h1.22l.9-.1,0,.59,0,.06.06,1h-2.18l0,.88v1.12l0,.42.05.45H140Z"/><path class="cls-2" d="M148.88,186.86h-1.64l-.07.07-.08,0,0-.14-2-.06,0,.06-.1.09.07.3.06.86,0,1.7-.08,1.06v4.45h-1.7l.06-.3.06-1.47v-8.29h5.52Z"/><path class="cls-2" d="M157.73,195.19h-5.21v-6.31l-.17-.9v-1.12l.06-.17v-1.47l1.49.07h3.64v6.38Zm-1.58-1.39v-4.4l-.13-2.52-.1-.15h-2.08L154,189l-.09.14.09.18-.1.12.1.05v4.3Z"/><path class="cls-2" d="M174.68,191.18l-.05,0v.51l0,.25.09.12v.15l-.07,0,0,.31,0,0-.08.74v.82l-.1.13V195l-.07.17h-1l-.24-.08L173,195v-1.23l0-2,.06-2h-.66l-.33,1-.22.9-.42.63-.49-.63-.22-.84-.41-1.09h-.62v2.09l0,2.06-.14,1.13-.05.12-.4,0-.88,0v-.68l0-.76,0-.88-.1-.25.1-.09-.06-1.64.08-1.05v-1l-.19-.27.14-1.52v-1.29l0-.57.52.05.72-.05.33.54.41.59.24.71.35.7.63,1.11.69-1.1.24-.57.08-.36.09-.33.23-.39.41.13-.32-.27.35-.78.73,0,.58,0,.05.42.07.65.05,1.18h0v.07l-.07.07.09.27v1.33l.08.16-.1.23Z"/><path class="cls-2" d="M183.54,194.78l0,.22-.11.12-1.34-.05-.14-1.1L182,193v-1.1l.18-2.15h-1l-.2,1.15-.54,1.86-.19.66-.57,1.69H178l.1-.61.14-.13,0-.19.26-.56.1-.1,0-.05.14-.72.46-1.48.4-1.49-.1-.1h-.35l-.83.07-.11-.07,0-.06.25-2.88-.05-.09v-.37l.19-.76v-.32h5.18v5l.06.36-.1.15v.68l.07.08-.13.09v1.77l.08.14-.12.18Zm-1.32-6.33-.08-.18,0-1.12.09-.4h-2.54l0,.49-.05,1.21Zm1.34,6.3v0l0,0Z"/><path class="cls-2" d="M192.34,195l-.1.1L191,195H187.4l-.09-.57-.1-1.34V192l-.05-.27.07-.7-.09-.25V189.5l.11-.62,0-.76,0-.68v-2.13h4.59l.23-.05.26.23-.09.31v3.57l-.35-.07-.24-.12-.12,0-.07-.1-.38.06h-.16l-.27-.08v-1.59l0-.22v-.61h-1.84v.71l.19,1.85-.07.18v2.74l-.07.07.1.12-.08.22v.24l.08,0,0,.54.44.07h1.32v-2.08l1.64-.36Z"/><path class="cls-2" d="M201.15,195.15l-.05,0h-.3l-.73-.1-.17,0-.29-.31,0-.5-.12-.07v-.12l.07-.07-.24-.39.07-.2-.44.12-.34,0-1,0-.14-.17-.15.39-.22.88,0,.49-1.35-.13.52-4.28.6-3.17.13-.42v-.58l.1-.1v-.4l.14-.26.06-.62,1.9.08.05.51.12.35.13.27.07.07v.56l.17.27,0,.29h.1l.27,1.39.13.16.17,1.05.19.66-.05.1.27,1,.08.49,0,.47.13.28v.06l-.06.1.05.16.08.86Zm-2.67-7.41h-.15L198,191h.12v.09l-.22.47-.12.44.29-.07,1.08-.06Z"/></svg>