<svg id="Layer_3" enable-background="new 0 0 64 64" height="512" viewBox="0 0 64 64" width="512" xmlns="http://www.w3.org/2000/svg"><path d="m20 41c0-1.103-.897-2-2-2s-2 .897-2 2v2h4z"/><path d="m12 47h12v-16h-12zm2-6c0-1.311.642-2.466 1.619-3.195-.383-.504-.619-1.125-.619-1.805 0-1.654 1.346-3 3-3s3 1.346 3 3c0 .68-.236 1.301-.619 1.805.977.729 1.619 1.884 1.619 3.195v3c0 .553-.447 1-1 1h-6c-.553 0-1-.447-1-1z"/><circle cx="18" cy="12" r="1"/><path d="m20 17c0-1.103-.897-2-2-2s-2 .897-2 2v2h4z"/><path d="m30 7h12v2h-12z"/><circle cx="18" cy="36" r="1"/><path d="m55.007 32.812-7.007-10.509v19.697c0 .553-.447 1-1 1-2.757 0-5-2.243-5-5v-7c0-1.103-.897-2-2-2s-2 .897-2 2v8.324c0 2.886.812 5.702 2.347 8.144 1.735 2.761 2.653 5.945 2.653 9.208v4.324h9v-.084c0-6.002.784-11.987 2.331-17.789l1.47-5.509c.132-.496.199-1.01.199-1.524 0-1.172-.344-2.307-.993-3.282z"/><path d="m12 23h12v-16h-12zm2-6c0-1.311.642-2.466 1.619-3.195-.383-.504-.619-1.125-.619-1.805 0-1.654 1.346-3 3-3s3 1.346 3 3c0 .68-.236 1.301-.619 1.805.977.729 1.619 1.884 1.619 3.195v3c0 .553-.447 1-1 1h-6c-.553 0-1-.447-1-1z"/><path d="m37.807 47h-9.807v-2h8.964c-.228-.655-.421-1.322-.568-2h-8.396v-2h8.091c-.054-.556-.091-1.114-.091-1.676v-.324h-8v-2h8v-2h-7c-.553 0-1-.447-1-1v-4c0-.553.447-1 1-1h7.556c.694-1.19 1.97-2 3.444-2 2.206 0 4 1.794 4 4v7c0 1.304.836 2.416 2 2.829v-37.829h-38v51h32.765c-.343-1.934-1.056-3.789-2.111-5.468-.313-.496-.589-1.01-.847-1.532zm-9.807-41c0-.553.447-1 1-1h14c.553 0 1 .447 1 1v4c0 .553-.447 1-1 1h-14c-.553 0-1-.447-1-1zm0 7h16v2h-16zm0 4h16v2h-16zm0 4h16v2h-16zm-2 27c0 .553-.447 1-1 1h-14c-.553 0-1-.447-1-1v-18c0-.553.447-1 1-1h14c.553 0 1 .447 1 1zm0-24c0 .553-.447 1-1 1h-14c-.553 0-1-.447-1-1v-18c0-.553.447-1 1-1h14c.553 0 1 .447 1 1z"/><path d="m30 31h6v2h-6z"/></svg>