<?xml version="1.0" encoding="utf-8"?>
<!-- Generator: Adobe Illustrator 24.1.3, SVG Export Plug-In . SVG Version: 6.00 Build 0)  -->
<svg version="1.1" id="Шар_1" xmlns="http://www.w3.org/2000/svg" xmlns:xlink="http://www.w3.org/1999/xlink" x="0px" y="0px"
	 viewBox="0 0 341.2 341.2" style="enable-background:new 0 0 341.2 341.2;" xml:space="preserve">
<style type="text/css">
	.st0{fill:#282828;}
	.st1{fill:#FFFFFF;}
	.st2{fill:#272425;}
	.st3{fill:#263238;}
	.st4{fill:#F8EF39;}
	.st5{fill:#C70085;}
	.st6{fill:#61A9E9;}
</style>
<g id="Background">
</g>
<path class="st0" d="M302.3,13.5H38.9c-1,0-1.9,0.8-1.9,1.9v310.5c0,1,0.8,1.9,1.9,1.9h263.4c1,0,1.9-0.9,1.9-1.9V15.3
	C304.1,14.3,303.3,13.5,302.3,13.5z M300.4,281.2H40.8v-264h259.6V281.2z"/>
<g>
	<path class="st1" d="M74.5,301.6H80v3.6h-5.5v7.4h6.9v3.6H70.6v-25.4h10.9v3.6h-6.9V301.6z"/>
	<path class="st1" d="M89.1,306.1l-1.2,2.3v7.8h-4v-25.4h4v11.1l5.2-11.1h4l-5.6,11.3l5.6,14.1H93L89.1,306.1z"/>
	<path class="st1" d="M98.3,297c0-4.1,2.1-6.4,6.1-6.4c3.9,0,6.1,2.3,6.1,6.4v13.2c0,4.1-2.1,6.4-6.1,6.4s-6.1-2.3-6.1-6.4V297z
		 M102.3,310.4c0,1.8,0.8,2.5,2.1,2.5c1.3,0,2.1-0.7,2.1-2.5v-13.7c0-1.8-0.8-2.5-2.1-2.5c-1.3,0-2.1,0.7-2.1,2.5V310.4z"/>
	<path class="st1" d="M124.9,296.7v0.9c0,2.6-0.8,4.3-2.6,5.1c2.1,0.8,3,2.8,3,5.4v2.1c0,3.9-2.1,6-6.1,6H113v-25.4h6
		C123.2,290.9,124.9,292.8,124.9,296.7z M117,294.5v6.7h1.6c1.5,0,2.4-0.6,2.4-2.7v-1.4c0-1.8-0.6-2.6-2-2.6H117L117,294.5z
		 M117,304.8v7.8h2.3c1.3,0,2.1-0.6,2.1-2.5v-2.2c0-2.4-0.8-3.1-2.6-3.1L117,304.8L117,304.8z"/>
	<path class="st1" d="M127.7,290.9h4v25.4h-4V290.9z"/>
	<path class="st1" d="M134.6,290.9h4v21.8h6.6v3.6h-10.6L134.6,290.9L134.6,290.9z"/>
	<path class="st1" d="M152.3,290.6c3.9,0,5.9,2.3,5.9,6.4v0.8h-3.8v-1c0-1.8-0.7-2.5-2-2.5c-1.3,0-2,0.7-2,2.5
		c0,5.2,7.8,6.2,7.8,13.5c0,4.1-2,6.4-5.9,6.4c-3.9,0-5.9-2.3-5.9-6.4v-1.6h3.8v1.8c0,1.8,0.8,2.5,2.1,2.5s2.1-0.6,2.1-2.5
		c0-5.2-7.8-6.2-7.8-13.5C146.4,292.9,148.4,290.6,152.3,290.6z"/>
	<path class="st1" d="M165.7,306.1l-1.2,2.3v7.8h-4v-25.4h4v11.1l5.2-11.1h4l-5.6,11.3l5.6,14.1h-4.1L165.7,306.1z"/>
	<path class="st1" d="M179.5,301.6h5.5v3.6h-5.5v7.4h6.9v3.6h-10.9v-25.4h10.9v3.6h-6.9V301.6z"/>
	<path class="st1" d="M192.7,312.4v3.8h-3.8v-3.8H192.7z"/>
	<path class="st1" d="M194.9,297c0-4.1,2.1-6.4,6.1-6.4c3.9,0,6.1,2.3,6.1,6.4v13.2c0,4.1-2.1,6.4-6.1,6.4s-6.1-2.3-6.1-6.4V297z
		 M198.9,310.4c0,1.8,0.8,2.5,2.1,2.5c1.3,0,2.1-0.7,2.1-2.5v-13.7c0-1.8-0.8-2.5-2.1-2.5c-1.3,0-2.1,0.7-2.1,2.5V310.4z"/>
	<path class="st1" d="M213.1,297.9v18.4h-3.6v-25.4h5l4.1,15.2v-15.2h3.6v25.4h-4.1L213.1,297.9z"/>
	<path class="st1" d="M225.1,290.9h4v21.8h6.6v3.6h-10.6L225.1,290.9L225.1,290.9z"/>
	<path class="st1" d="M237.4,290.9h4v25.4h-4V290.9z"/>
	<path class="st1" d="M247.8,297.9v18.4h-3.6v-25.4h5l4.1,15.2v-15.2h3.5v25.4h-4.1L247.8,297.9z"/>
	<path class="st1" d="M263.7,301.6h5.5v3.6h-5.5v7.4h6.9v3.6h-10.9v-25.4h10.9v3.6h-6.9V301.6z"/>
</g>
<path class="st2" d="M172.6,80.5c-31.1,0-56.3,25.2-56.3,56.3c0,31.1,25.2,56.3,56.3,56.3c31.1,0,56.3-25.2,56.3-56.3
	C228.9,105.7,203.7,80.5,172.6,80.5z M154.8,166l-10.4-23.9c0-0.1,0-0.2,0-0.3L168,86.4c0.1-0.1,0.2-0.2,0.3-0.2h3.7
	c0.2,0,0.4,0.2,0.4,0.4v49c0,0.2-0.1,0.3-0.3,0.4c-2.4,0.4-4.2,2.4-4.2,4.9s1.8,4.5,4.2,4.8c0.2,0,0.3,0.2,0.3,0.4v19.9
	c0,0.2-0.2,0.4-0.4,0.4h-16.9C155,166.3,154.9,166.2,154.8,166z M191.2,180.5c0,0.2-0.2,0.4-0.4,0.4h-35.4c-0.2,0-0.4-0.2-0.4-0.4
	v-12c0-0.2,0.2-0.4,0.4-0.4h35.4c0.2,0,0.4,0.2,0.4,0.4V180.5z M201.6,142.2l-10.4,23.9c0,0.1-0.2,0.2-0.3,0.2h-16.9
	c-0.2,0-0.4-0.2-0.4-0.4v-20c0-0.2,0.1-0.3,0.3-0.4c2.2-0.5,3.8-2.5,3.8-4.8c0-2.3-1.5-4.3-3.8-4.8c-0.2,0-0.3-0.2-0.3-0.4v-49
	c0-0.2,0.2-0.4,0.4-0.4h3.7c0.1,0,0.3,0.1,0.3,0.2l23.6,55.4C201.7,141.9,201.7,142.1,201.6,142.2z"/>
<g>
	<path class="st3" d="M254.8,136.8h-3c0-43.7-35.5-79.2-79.2-79.2s-79.2,35.5-79.2,79.2h-3c0-45.3,36.9-82.2,82.2-82.2
		S254.8,91.5,254.8,136.8z"/>
</g>
<g>
	<rect x="123.1" y="54.6" class="st3" width="99" height="3"/>
</g>
<g>
	<circle class="st1" cx="172.6" cy="56.1" r="5.3"/>
	<path class="st3" d="M172.6,62.9c-3.8,0-6.8-3.1-6.8-6.8s3.1-6.8,6.8-6.8s6.8,3.1,6.8,6.8S176.3,62.9,172.6,62.9z M172.6,52.3
		c-2.1,0-3.8,1.7-3.8,3.8s1.7,3.8,3.8,3.8s3.8-1.7,3.8-3.8C176.4,54,174.7,52.3,172.6,52.3z"/>
</g>
<g>
	<circle class="st1" cx="123.7" cy="56.1" r="5.3"/>
	<path class="st3" d="M123.7,62.9c-3.8,0-6.8-3.1-6.8-6.8s3.1-6.8,6.8-6.8s6.8,3.1,6.8,6.8S127.5,62.9,123.7,62.9z M123.7,52.3
		c-2.1,0-3.8,1.7-3.8,3.8s1.7,3.8,3.8,3.8s3.8-1.7,3.8-3.8S125.8,52.3,123.7,52.3z"/>
</g>
<g>
	<circle class="st1" cx="221.4" cy="56.1" r="5.3"/>
	<path class="st3" d="M221.4,62.9c-3.8,0-6.8-3.1-6.8-6.8s3.1-6.8,6.8-6.8s6.8,3.1,6.8,6.8S225.2,62.9,221.4,62.9z M221.4,52.3
		c-2.1,0-3.8,1.7-3.8,3.8s1.7,3.8,3.8,3.8s3.8-1.7,3.8-3.8S223.5,52.3,221.4,52.3z"/>
</g>
<g>
	<ellipse class="st2" cx="259.7" cy="152.2" rx="24.4" ry="24.4"/>
</g>
<g>
	<g>
		<path class="st1" d="M255.6,171.4c-0.6,0-1.1-0.4-1.1-1l-2.3-33.2c0-0.5,0.3-0.9,0.7-1.1c0.4-0.2,1-0.1,1.3,0.3l21,24.9
			c0.4,0.5,0.3,1.2-0.1,1.6c-0.5,0.4-1.2,0.3-1.6-0.1l-18.8-22.3l2.1,29.8C256.8,170.8,256.3,171.3,255.6,171.4
			C255.7,171.4,255.7,171.4,255.6,171.4z"/>
	</g>
</g>
<g>
	<ellipse class="st4" cx="220.6" cy="215" rx="24.4" ry="24.4"/>
</g>
<g>
	<g>
		<path class="st1" d="M234.4,214.7l7-7l5.9,5.9l-4.8,12l-27.8,11.2l-1.3-1.3l17.2-17.2c1,0.8,2.5,0.7,3.4-0.3
			C235.1,217.2,235.2,215.7,234.4,214.7z M211.5,233.6l1.3,1.3l17.2-17.2c-0.6-1-0.5-2.4,0.4-3.2s2.2-1,3.2-0.4l7-7l-5.9-5.9
			l-12,4.8L211.5,233.6z"/>
		<path class="st3" d="M214.8,237.3c-0.1,0-0.2,0-0.3-0.1l-1.3-1.3c-0.1-0.1-0.1-0.4,0-0.5l17.2-17.2c0.1-0.1,0.3-0.1,0.5,0
			c0.9,0.7,2.1,0.6,2.9-0.2c0.8-0.8,0.9-2,0.2-2.9c-0.1-0.1-0.1-0.4,0-0.5l7-7c0.1-0.1,0.4-0.1,0.5,0l5.9,5.9
			c0.1,0.1,0.1,0.3,0.1,0.4l-4.8,12c0,0.1-0.1,0.2-0.2,0.2l-27.8,11.2C214.9,237.2,214.9,237.3,214.8,237.3z M214.1,235.6l0.9,0.9
			l27.4-11l4.6-11.7l-5.5-5.5l-6.5,6.5c0.7,1.2,0.5,2.6-0.5,3.6c-1,1-2.4,1.1-3.6,0.5L214.1,235.6z M212.8,235.3
			c-0.1,0-0.2,0-0.3-0.1l-1.3-1.3c-0.1-0.1-0.1-0.3-0.1-0.4l11.2-27.8c0-0.1,0.1-0.2,0.2-0.2l12-4.8c0.1-0.1,0.3,0,0.4,0.1l5.9,5.9
			c0.1,0.1,0.1,0.4,0,0.5l-7,7c-0.1,0.1-0.3,0.1-0.5,0.1c-0.9-0.6-2-0.4-2.8,0.3c-0.7,0.7-0.9,1.9-0.3,2.8c0.1,0.1,0.1,0.3-0.1,0.5
			l-17.2,17.2C213,235.2,212.9,235.3,212.8,235.3z M212,233.5l0.9,0.9l16.8-16.8c-0.6-1.1-0.3-2.5,0.6-3.4c0.9-0.9,2.3-1.1,3.4-0.6
			l6.6-6.6l-5.5-5.5l-11.7,4.6L212,233.5z"/>
	</g>
	<g>
		
			<rect x="241.1" y="195.5" transform="matrix(0.7071 -0.7071 0.7071 0.7071 -72.9754 232.4028)" class="st3" width="5.9" height="17.6"/>
		<path class="st3" d="M248.2,213c-0.1,0-0.2,0-0.3-0.1l-12.5-12.5c-0.1-0.1-0.1-0.2-0.1-0.3s0-0.2,0.1-0.3l4.2-4.2
			c0.1-0.1,0.4-0.1,0.5,0l12.5,12.5c0.1,0.1,0.1,0.4,0,0.5l-4.2,4.2C248.4,213,248.3,213,248.2,213z M236.3,200.2l11.9,11.9l3.7-3.7
			l-11.9-11.9L236.3,200.2z"/>
	</g>
</g>
<g>
	<g>
		<path class="st5" d="M210.4,238.5c-0.1,0-0.2,0-0.3-0.1c-0.1,0-10.5-3.3-9.3-13c0.5-4.5,2.9-7.2,5.1-9.8c2.4-2.8,4.7-5.4,4.8-10.3
			c0.3-9-7-11-7.3-11.1c-0.6-0.1-0.9-0.8-0.8-1.4s0.8-1,1.4-0.8c0.1,0,9.4,2.5,9,13.3c-0.2,5.7-2.8,8.7-5.4,11.6
			c-2.1,2.4-4.1,4.7-4.6,8.6c-0.9,7.9,7.4,10.5,7.8,10.6c0.6,0.2,0.9,0.8,0.7,1.4C211.3,238.2,210.8,238.5,210.4,238.5z"/>
	</g>
</g>
<g>
	<ellipse class="st5" cx="122.8" cy="216" rx="24.4" ry="24.4"/>
</g>
<g>
	<g>
		<path class="st1" d="M134.1,215.1l7-7l5.9,5.9l-4.8,12l-27.8,11.2l-1.3-1.3l17.2-17.2c1,0.8,2.5,0.7,3.4-0.3
			C134.8,217.6,134.9,216.2,134.1,215.1z M111.3,234l1.3,1.3l17.2-17.2c-0.6-1-0.5-2.4,0.4-3.2s2.2-1,3.2-0.4l7-7l-5.9-5.9l-12,4.8
			L111.3,234z"/>
		<path class="st3" d="M114.6,237.7c-0.1,0-0.2,0-0.3-0.1l-1.3-1.3c-0.2-0.1-0.2-0.4,0-0.5l17.2-17.2c0.1-0.1,0.3-0.1,0.5,0
			c0.9,0.7,2.1,0.6,2.9-0.2c0.8-0.8,0.9-2,0.2-2.9c-0.1-0.1-0.1-0.4,0-0.5l7-7c0.1-0.1,0.4-0.1,0.5,0l5.9,5.9
			c0.1,0.1,0.1,0.3,0.1,0.4l-4.8,12c0,0.1-0.1,0.2-0.2,0.2l-27.8,11.2C114.7,237.7,114.6,237.7,114.6,237.7z M113.8,236l0.8,0.9
			l27.4-11l4.6-11.7l-5.5-5.5l-6.5,6.5c0.7,1.2,0.5,2.6-0.5,3.6c-1,1-2.4,1.2-3.6,0.5L113.8,236z M112.6,235.7c-0.1,0-0.2,0-0.3-0.1
			l-1.3-1.3c-0.1-0.1-0.1-0.3-0.1-0.4l11.2-27.8c0-0.1,0.1-0.2,0.2-0.2l12-4.8c0.1-0.1,0.3,0,0.4,0.1l5.9,5.9c0.1,0.1,0.1,0.4,0,0.5
			l-7,7c-0.1,0.1-0.3,0.1-0.5,0.1c-0.9-0.6-2-0.4-2.8,0.3c-0.7,0.7-0.9,1.9-0.3,2.8c0.1,0.1,0.1,0.3-0.1,0.5l-17.2,17.2
			C112.8,235.6,112.7,235.7,112.6,235.7z M111.7,233.9l0.8,0.9l16.8-16.8c-0.6-1.1-0.3-2.5,0.6-3.4c0.9-0.9,2.3-1.1,3.4-0.6l6.6-6.6
			l-5.5-5.5l-11.7,4.6L111.7,233.9z"/>
	</g>
	<g>
		
			<rect x="140.8" y="195.9" transform="matrix(0.7071 -0.7071 0.7071 0.7071 -102.6398 161.6454)" class="st3" width="5.9" height="17.6"/>
		<path class="st3" d="M147.9,213.4c-0.1,0-0.2,0-0.3-0.1l-12.5-12.5c-0.1-0.1-0.1-0.4,0-0.5l4.2-4.2c0.1-0.1,0.4-0.1,0.5,0
			l12.5,12.5c0.1,0.1,0.1,0.4,0,0.5l-4.2,4.2C148.1,213.4,148,213.4,147.9,213.4z M136,200.6l11.9,11.9l3.7-3.7l-11.9-11.9
			L136,200.6z"/>
	</g>
</g>
<g>
	<rect x="102.7" y="204.2" class="st4" width="3" height="21.6"/>
</g>
<g>
	<rect x="93.3" y="213.5" class="st4" width="21.6" height="3"/>
</g>
<g>
	<ellipse class="st6" cx="81.4" cy="150.7" rx="24.4" ry="24.4"/>
</g>
<g>
	<g>
		<g>
			<path class="st1" d="M91.7,147.8l7-7l5.9,5.9l-4.8,12L72.1,170l-1.3-1.3l17.2-17.2c1,0.8,2.5,0.7,3.4-0.3
				C92.4,150.3,92.5,148.8,91.7,147.8z M68.8,166.7l1.3,1.3l17.2-17.2c-0.6-1-0.5-2.4,0.4-3.2s2.2-1,3.2-0.4l7-7l-5.9-5.9l-12,4.8
				L68.8,166.7z"/>
			<path class="st3" d="M72.1,170.4c-0.1,0-0.2,0-0.3-0.1l-1.3-1.3c-0.1-0.1-0.1-0.2-0.1-0.3s0-0.2,0.1-0.3l17.2-17.2
				c0.1-0.1,0.3-0.1,0.5,0c0.9,0.7,2.1,0.6,2.9-0.2c0.8-0.8,0.9-2,0.2-2.9c-0.1-0.1-0.1-0.4,0-0.5l7-7c0.2-0.1,0.4-0.1,0.5,0
				l5.9,5.9c0.1,0.1,0.1,0.3,0.1,0.4l-4.8,12c0,0.1-0.1,0.2-0.2,0.2l-27.8,11.2C72.2,170.4,72.2,170.4,72.1,170.4z M71.4,168.7
				l0.8,0.9l27.4-11l4.6-11.7l-5.5-5.5l-6.5,6.5c0.7,1.2,0.5,2.6-0.5,3.6c-1,1-2.4,1.2-3.6,0.5L71.4,168.7z M70.1,168.4L70.1,168.4
				c-0.1,0-0.2,0-0.3-0.1l-1.3-1.3c-0.1-0.1-0.1-0.3-0.1-0.4l11.2-27.8c0-0.1,0.1-0.2,0.2-0.2l12-4.8c0.1-0.1,0.3,0,0.4,0.1l5.9,5.9
				c0.2,0.1,0.2,0.4,0,0.5l-7,7c-0.1,0.1-0.3,0.1-0.5,0.1c-0.9-0.6-2-0.4-2.8,0.3c-0.7,0.7-0.9,1.9-0.3,2.8c0.1,0.1,0.1,0.3-0.1,0.5
				l-17.2,17.2C70.3,168.3,70.2,168.4,70.1,168.4z M69.3,166.6l0.8,0.9l16.8-16.8c-0.6-1.1-0.3-2.5,0.6-3.4c0.9-0.9,2.3-1.1,3.4-0.6
				l6.6-6.6l-5.5-5.5l-11.7,4.6L69.3,166.6z"/>
		</g>
		<g>
			
				<rect x="98.4" y="128.6" transform="matrix(0.7071 -0.7071 0.7071 0.7071 -67.4611 111.9288)" class="st3" width="5.9" height="17.6"/>
			<path class="st3" d="M105.5,146.1c-0.1,0-0.2,0-0.3-0.1l-12.5-12.5c-0.2-0.1-0.2-0.4,0-0.5l4.2-4.2c0.2-0.1,0.4-0.1,0.5,0
				l12.5,12.5c0.2,0.1,0.2,0.4,0,0.5l-4.2,4.2C105.7,146.1,105.6,146.1,105.5,146.1z M93.6,133.3l11.9,11.9l3.7-3.7l-11.9-11.9
				L93.6,133.3z"/>
		</g>
	</g>
	<g>
		<rect x="58.6" y="146.2" class="st3" width="13.9" height="3"/>
	</g>
</g>
</svg>
