<svg xmlns="http://www.w3.org/2000/svg" viewBox="0 0 512 512"><circle cx="256" cy="256" r="256" fill="#261300"/><path d="M349.939 404.479L244.426 60.29c-6.207-19.749-31.598-29.341-57.553-29.341s-51.346 9.592-57.553 29.341L31.894 379.82a256.6 256.6 0 0 0 53.164 66.738c11.536-1.066 20.438-5.831 23.385-16.123l19.184-70.531h119.056l19.184 70.531c3.385 11.849 14.67 16.363 28.776 16.363 24.263 0 56.424-15.235 56.424-36.112.001-1.693-.563-3.95-1.128-6.207zM145.683 292.194l41.19-151.218 41.19 151.218h-82.38zM422.152 45.619c-5.841 0-11.4.94-16.499 2.654-17.575 5.872-29.769 20.793-29.769 37.407 0 21.441 20.313 40.626 46.268 40.626 17.481 0 32.559-9.101 40.26-21.765 3.479-5.726 5.444-12.184 5.444-18.86 0-21.442-20.313-40.062-45.704-40.062zm0 132.598c-25.391 0-43.447 10.721-43.447 26.52v214.977c0 13.542 18.056 27.084 43.447 27.084 1.599 0 3.176-.063 4.723-.178a256.78 256.78 0 0 0 39.288-44.408V204.736c0-15.799-19.748-26.519-44.011-26.519z" fill="#ff7c00"/></svg>