<svg xmlns="http://www.w3.org/2000/svg" viewBox="0 0 512 512"><circle cx="256" cy="256" r="256" fill="#0d0a22"/><path d="M161.68 30.949H44.777c-19.759 0-32.747 12.424-32.747 26.551v276.25c13.04 40.981 36.133 77.49 66.382 106.632 12.487-4.117 21.713-12.027 21.713-23.719V294.681h55.902c77.939 0 138.93-36.143 138.93-131.02v-2.821c0-94.877-58.734-129.891-133.277-129.891zm45.171 139.494c0 38.4-19.195 56.466-50.824 56.466h-55.902v-119.15h55.902c31.629 0 50.824 18.066 50.824 56.466v6.218zM366.7 254.588c0-8.474 9.603-18.077 32.183-18.077 30.501 0 48.003 16.948 63.258 16.948 20.323 0 31.619-29.936 31.619-41.232 0-23.719-46.874-40.657-96.005-40.657-80.185 0-106.162 45.181-106.162 86.967 0 94.877 132.138 68.326 132.138 107.301 0 7.899-5.078 18.631-35.004 18.631-45.181 0-58.169-25.412-76.246-25.412-17.502 0-28.797 24.848-28.797 38.4 0 27.669 48.003 51.952 107.301 51.952 13.437 0 25.715-1.233 36.78-3.594 31.284-28.306 55.526-64.251 69.81-104.876-17.985-74.543-130.875-57.25-130.875-86.351z" fill="#2bbbfa"/></svg>