<svg id="Layer_1" xmlns="http://www.w3.org/2000/svg" viewBox="0 0 512 512"><style>.st0{fill:#e83c39}</style><path class="st0" d="M437 75C337-25 174.9-25 75 75s-100 262.1 0 362 262.1 100 362 0c48-48 75-113.1 75-181s-27-133-75-181zm-49.3 281.6l-13 12.8c-16.8 17-41.2 24-64.4 18.4-23.4-6.3-45.6-16.2-65.9-29.5-18.8-12-36.2-26.1-52-41.9-14.5-14.4-27.5-30.2-38.8-47.1-12.4-18.2-22.2-38.1-29.2-59.1-8-24.6-1.4-51.6 17.1-69.7l15.2-15.2c4.2-4.2 11.1-4.3 15.3 0l48 48c4.2 4.2 4.3 11.1 0 15.3l-28.2 28.2c-8.1 8-9.1 20.7-2.4 29.9 10.2 14 21.5 27.1 33.7 39.3 13.7 13.7 28.5 26.2 44.4 37.3 9.2 6.4 21.6 5.3 29.5-2.6l27.2-27.6c4.2-4.2 11.1-4.3 15.3 0l48 48.1c4.4 4.3 4.4 11.2.2 15.4z"/></svg>