<svg id="Шар_1" data-name="Шар 1" xmlns="http://www.w3.org/2000/svg" viewBox="0 0 600 600"><path d="M437.25,125H272.55a6.86,6.86,0,0,0-6.86,6.86v54.9H162.75a6.87,6.87,0,0,0-6.87,6.87V468.14a6.86,6.86,0,0,0,6.87,6.86h164.7a6.86,6.86,0,0,0,6.86-6.86v-54.9H437.25a6.87,6.87,0,0,0,6.87-6.87V131.86A6.86,6.86,0,0,0,437.25,125ZM279.41,149.91,302,175.3l10.16,11.46H279.41ZM332.6,189.1l-18.87-21.28v-1.64h75.49V234.8H334.31V193.63A7.88,7.88,0,0,0,332.6,189.1Zm-12,272.17h-151V200.49h151Zm109.8-61.76H334.31V372.06H409.8a6.87,6.87,0,1,0,0-13.73H334.31V330.88H409.8a6.86,6.86,0,1,0,0-13.72H334.31V289.71H409.8a6.87,6.87,0,1,0,0-13.73H334.31V248.53h61.77a6.86,6.86,0,0,0,6.86-6.86V159.31a6.86,6.86,0,0,0-6.86-6.86H306.86a6.88,6.88,0,0,0-4.94,2.13l-14.07-15.85H430.39Z"/><path d="M272.55,317.16h-54.9a6.86,6.86,0,1,0,0,13.72h54.9a6.86,6.86,0,1,0,0-13.72Z"/><path d="M197.06,303.43h96.08a6.86,6.86,0,0,0,0-13.72h-7.48a41.18,41.18,0,0,0-81.12,0h-7.48a6.86,6.86,0,0,0,0,13.72Zm48-34.31a27.45,27.45,0,0,1,26.56,20.59H218.54A27.45,27.45,0,0,1,245.1,269.12Z"/><path d="M205.91,253.4a6.89,6.89,0,0,0,9.75-9.74l-13.73-13.73a6.89,6.89,0,0,0-9.74,9.75Z"/><path d="M245.1,248.53a6.86,6.86,0,0,0,6.86-6.86V221.08a6.86,6.86,0,0,0-13.72,0v20.59A6.86,6.86,0,0,0,245.1,248.53Z"/><path d="M284.28,253.4,298,239.68a6.89,6.89,0,0,0-9.75-9.75l-13.72,13.73a6.89,6.89,0,1,0,9.74,9.74Z"/><path d="M272.55,399.51h-54.9a6.87,6.87,0,1,0,0,13.73h54.9a6.87,6.87,0,0,0,0-13.73Z"/><path d="M300,427H190.2a6.87,6.87,0,1,0,0,13.73H300A6.87,6.87,0,0,0,300,427Z"/></svg>