<?xml version="1.0" encoding="utf-8"?>
<!-- Generator: Adobe Illustrator 24.1.3, SVG Export Plug-In . SVG Version: 6.00 Build 0)  -->
<svg version="1.1" id="Шар_1" xmlns="http://www.w3.org/2000/svg" xmlns:xlink="http://www.w3.org/1999/xlink" x="0px" y="0px"
	 viewBox="0 0 600 600" style="enable-background:new 0 0 600 600;" xml:space="preserve">
<style type="text/css">
	.st0{fill:#1E0E00;}
	.st1{fill:#EEEEEE;}
	.st2{fill:#807F7D;}
	.st3{fill:#2F2000;}
	.st4{fill:#0094E1;}
	.st5{fill:#00B0F5;}
	.st6{fill:#FFD800;}
	.st7{fill:#D753F1;}
	.st8{fill:#FFF000;}
	.st9{fill:#F5008B;}
	.st10{fill:#FF0093;}
</style>
<g>
	<g>
		<g>
			
				<rect x="236.6" y="67.8" transform="matrix(0.4706 -0.8824 0.8824 0.4706 -9.3533 327.8203)" class="st0" width="63.8" height="207.8"/>
			<path class="st1" d="M198.1,134.2c-8.3,15.5-24.4,23.1-36,16.9c-11.6-6.2-14.3-23.8-6-39.3c8.3-15.5,24.4-23.1,36-16.9
				C203.7,101,206.4,118.6,198.1,134.2z"/>
			<path class="st2" d="M179.3,124.1c-1.6,3-4.4,4.5-6.4,3.5c-1.9-1-2.2-4.3-0.7-7.2c1.6-3,4.4-4.5,6.4-3.5
				C180.6,117.9,180.9,121.2,179.3,124.1z"/>
			<path class="st3" d="M161.8,150.9l-58.9,110.4c-2.1,3.9-0.6,8.7,3.3,10.8c3.9,2.1,8.7,0.6,10.8-3.3l8.3-15.5
				c2.1-3.9,6.9-5.4,10.8-3.3c3.9,2.1,5.3,6.9,3.3,10.8l-8.3,15.5l0,0l-8.3,15.5c-2.1,3.9-0.6,8.7,3.3,10.8
				c3.9,2.1,8.7,0.6,10.8-3.3l8.3-15.5c3.8-7.2,12.8-9.9,20-6.1c7.2,3.8,9.9,12.8,6.1,20l-19.5,36.6c-3.8,7.2-1.1,16.1,6.1,20
				c7.2,3.8,16.1,1.1,20-6.1l19.5-36.6l19.7-36.9c2.1-3.9,6.9-5.4,10.8-3.3c3.9,2.1,5.4,6.9,3.3,10.8l-2.9,5.5l-16.8,31.5l-7.5,14.1
				c-2.1,3.9-0.6,8.7,3.3,10.8c3.9,2.1,8.7,0.6,10.8-3.3l7.5-14.1l7.4-14c2.5-4.7,8.4-6.5,13.1-4c4.7,2.5,6.5,8.4,4,13.1l-7.4,14
				l0,0l-2.2,4.2c-2.1,3.9-0.6,8.7,3.3,10.8c3.9,2.1,8.7,0.6,10.8-3.3l10.6-19.8c2.1-3.8,6.9-5.3,10.7-3.2c3.9,2.1,5.4,6.9,3.3,10.8
				l-8.3,15.5l0,0l-6.5,12.3c-2.1,3.9-0.2,8.9,4.1,11.2c4.3,2.3,9.6,1,11.6-2.8l6.5-12.3l17.8-33.3l41.2-77.2L161.8,150.9z"/>
		</g>
		
			<rect x="309.5" y="35.1" transform="matrix(0.4722 -0.8815 0.8815 0.4722 57.6261 374.2629)" class="st4" width="63.8" height="207.8"/>
		<path class="st1" d="M271,101.3c-8.3,15.5-24.5,23.1-36.1,16.9c-11.6-6.2-14.3-23.8-5.9-39.4c8.3-15.5,24.5-23.1,36.1-16.9
			C276.7,68.2,279.3,85.8,271,101.3z"/>
		<path class="st4" d="M453.9,199.3c-8.3,15.5-24.5,23.1-36.1,16.9c-11.6-6.2-14.2-23.8-5.9-39.4c8.3-15.5,24.5-23.1,36.1-16.9
			C459.6,166.2,462.3,183.8,453.9,199.3z"/>
		<path class="st2" d="M252.2,91.3c-1.6,3-4.4,4.5-6.4,3.5c-1.9-1-2.2-4.3-0.6-7.2c1.6-3,4.4-4.5,6.4-3.5
			C253.5,85.1,253.8,88.3,252.2,91.3z"/>
		<path class="st5" d="M234.7,118.1L88.6,392.9l11.1,5.9l-11.1-5.9L69,429.5c-3.8,7.2-1.2,16.1,6,20c7.2,3.8,16.1,1.1,20-6.1
			l19.6-36.5l0,0l11.3-21.2c2.8-5.3,8.3-7.9,12.2-5.9c3.8,2,4.7,7.8,2,13.1l-18.7,34.9c-2.1,3.9-0.6,8.7,3.3,10.8
			c3.9,2.1,8.7,0.6,10.8-3.3l7.2-13.4l0,0l23.4-43.8c2.8-5.3,8.3-7.9,12.2-5.9c3.9,2.1,4.7,8.1,1.9,13.4l-12,22.3l0,0l-24.4,45.5
			c-2.1,3.9-0.2,8.9,4.1,11.2c4.3,2.3,9.6,1.1,11.6-2.8l19.2-35.8c5.3-9.7,15.3-14.5,22.4-10.7c6.6,3.6,8.4,13.3,4.5,22.5
			l-11.3,21.1c-3.8,7.2-1.2,16.1,6,20c7.2,3.8,16.1,1.1,20-6.1l19.6-36.5l0,0l9.8-18.2c5.3-9.8,15.4-14.7,22.6-10.9
			c7.2,3.8,8.7,15,3.4,24.8l-25.4,47.4l0,0l-3,5.6c-2.8,5.3-0.3,12.1,5.6,15.3c5.9,3.2,13,1.4,15.8-3.8l3-5.5l146.1-274.9
			L234.7,118.1z"/>
		<g>
			
				<rect x="315" y="109.8" transform="matrix(0.4706 -0.8824 0.8824 0.4706 -4.9554 419.1962)" class="st6" width="63.8" height="207.8"/>
			<path class="st1" d="M276.4,176.2c-8.3,15.5-24.4,23.1-36,16.9c-11.6-6.2-14.3-23.8-6-39.3c8.3-15.5,24.4-23.1,36-16.9
				C282,143,284.7,160.6,276.4,176.2z"/>
			<path class="st7" d="M459.5,273.8c-8.3,15.5-24.4,23.1-36,16.9c-11.6-6.2-14.3-23.8-6-39.3c8.3-15.5,24.4-23.1,36-16.9
				C465.1,240.7,467.8,258.3,459.5,273.8z"/>
			<path class="st2" d="M257.6,166.1c-1.6,3-4.4,4.5-6.4,3.5c-1.9-1-2.2-4.3-0.7-7.2c1.6-3,4.4-4.5,6.4-3.5
				C258.9,159.9,259.2,163.2,257.6,166.1z"/>
			<path class="st8" d="M240.2,193l-84.4,158.3l0,0l-19.5,36.6c-3.8,7.2-1.1,16.1,6.1,20c7.2,3.8,16.1,1.1,19.9-6.1l19.5-36.6l0,0
				l8.3-15.5c2.1-3.9,6.9-5.3,10.8-3.3c3.8,2.1,5.3,6.8,3.3,10.7l-15.4,29c-2.1,3.9-0.6,8.7,3.3,10.8c3.9,2.1,8.7,0.6,10.8-3.3
				l7.1-13.4h0l17-32c2.1-3.9,6.9-5.4,10.8-3.3c3.9,2.1,5.4,6.9,3.3,10.8l-5.6,10.5l0,0l-24.3,45.5c-2.1,3.9-0.2,8.9,4.1,11.2
				c4.3,2.3,9.6,1.1,11.6-2.8l17.4-32.6c3.8-7.1,12.7-9.8,19.9-6c6.8,3.6,9.5,11.9,6.5,18.8l-9,16.9c-3.8,7.2-1.1,16.1,6.1,20
				c7.2,3.8,16.1,1.1,19.9-6.1l19.5-36.6h0l2.9-5.4c3.8-7.2,12.8-9.9,20-6.1c7.2,3.8,9.9,12.8,6,20l-18.5,34.6l0,0l-3,5.6
				c-2.8,5.3-0.3,12.1,5.6,15.2c5.9,3.1,13,1.4,15.8-3.8l3-5.6l84.4-158.3L240.2,193z"/>
		</g>
		<g>
			<path class="st9" d="M527.9,237.2c-8.3,15.5-24.4,23.1-36,16.9c-11.6-6.2-14.3-23.8-6-39.3c8.3-15.5,24.4-23.1,36-16.9
				C533.5,204.1,536.2,221.7,527.9,237.2z"/>
			<g>
				
					<rect x="383.3" y="73.2" transform="matrix(0.4706 -0.8824 0.8824 0.4706 63.5409 460.1664)" class="st9" width="63.8" height="207.8"/>
				<path class="st1" d="M344.8,139.6c-8.3,15.5-24.4,23.1-36,16.9c-11.6-6.2-14.3-23.8-6-39.3c8.3-15.5,24.4-23.1,36-16.9
					C350.4,106.4,353.1,124,344.8,139.6z"/>
				<path class="st2" d="M326,129.5c-1.6,3-4.4,4.5-6.4,3.5c-1.9-1-2.2-4.3-0.7-7.2c1.6-3,4.4-4.5,6.4-3.5
					C327.3,123.3,327.6,126.6,326,129.5z"/>
				<path class="st10" d="M308.5,156.4l-58.9,110.4c-2.1,3.9-0.6,8.7,3.3,10.8c3.9,2.1,8.7,0.6,10.8-3.3l8.3-15.5
					c2.1-3.9,6.9-5.4,10.8-3.3c3.9,2.1,5.3,6.9,3.3,10.8l-8.3,15.5l0,0l-8.3,15.5c-2.1,3.9-0.6,8.7,3.3,10.8
					c3.9,2.1,8.7,0.6,10.8-3.3l8.3-15.5c3.8-7.2,12.8-9.9,20-6.1c7.2,3.8,9.9,12.8,6.1,20l-19.5,36.6c-3.8,7.2-1.1,16.1,6.1,20
					c7.2,3.8,16.1,1.1,20-6.1l19.5-36.6l19.7-36.9c2.1-3.9,6.9-5.4,10.8-3.3c3.9,2.1,5.4,6.9,3.3,10.8l-2.9,5.5l-16.8,31.5
					l-7.5,14.1c-2.1,3.9-0.6,8.7,3.3,10.8c3.9,2.1,8.7,0.6,10.8-3.3l7.5-14.1l7.4-14c2.5-4.7,8.4-6.5,13.1-4c4.7,2.5,6.5,8.4,4,13.1
					l-7.4,14h0l-2.3,4.2c-2.1,3.9-0.6,8.7,3.3,10.8c3.9,2.1,8.7,0.6,10.8-3.3l10.6-19.8c2.1-3.8,6.9-5.3,10.7-3.2
					c3.9,2.1,5.4,6.9,3.3,10.8l-8.3,15.5l0,0l-6.5,12.3c-2.1,3.9-0.2,8.9,4.1,11.2c4.3,2.3,9.6,1.1,11.6-2.8l6.5-12.3l17.7-33.3
					l41.2-77.2L308.5,156.4z"/>
			</g>
		</g>
		<path class="st10" d="M386.1,428.8c-2.6,5-7.4,7.5-10.8,5.8c-3.4-1.8-4.1-7.2-1.5-12.2c2.6-5,13.4-14.2,14.8-13.5
			C389.8,409.6,388.7,423.9,386.1,428.8z"/>
		<path class="st10" d="M264.5,339c-2.6,5-7.4,7.5-10.8,5.8c-3.4-1.8-4.1-7.2-1.5-12.2c2.6-5,13.4-14.2,14.8-13.5
			C268.2,319.8,267,334,264.5,339z"/>
		<path class="st5" d="M245.4,533.9c-2.6,5-7.4,7.5-10.8,5.8c-3.4-1.8-4.1-7.2-1.5-12.2c2.6-5,13.4-14.2,14.8-13.5
			C249.2,514.7,248,528.9,245.4,533.9z"/>
		<path class="st5" d="M115.8,466.8c-2.6,5-7.4,7.5-10.8,5.8c-3.4-1.8-4.1-7.2-1.5-12.2c2.6-5,13.4-14.2,14.8-13.5
			C119.5,447.6,118.4,461.8,115.8,466.8z"/>
		<path class="st3" d="M96.4,304.3c-2.6,5-7.4,7.5-10.8,5.8c-3.4-1.8-4.1-7.2-1.5-12.2c2.6-5,13.4-14.2,14.8-13.5
			C100.1,285.1,98.9,299.3,96.4,304.3z"/>
	</g>
</g>
</svg>
