<?xml version="1.0" encoding="utf-8"?>
<!-- Generator: Adobe Illustrator 24.1.3, SVG Export Plug-In . SVG Version: 6.00 Build 0)  -->
<svg version="1.1" id="Шар_1" xmlns="http://www.w3.org/2000/svg" xmlns:xlink="http://www.w3.org/1999/xlink" x="0px" y="0px"
	 viewBox="0 0 600 600" style="enable-background:new 0 0 600 600;" xml:space="preserve">
<style type="text/css">
	.st0{stroke:#000000;stroke-width:3;stroke-miterlimit:10;}
</style>
<g>
	<path class="st0" d="M314,89H286c-5.7,0-10.3,4.6-10.3,10.3v6.1h-67.5c-6.1,0-11.1,5-11.1,11.1v287.8c0,6.1,5,11.1,11.1,11.1h15.5
		v6.1c0,5.7,4.6,10.3,10.3,10.3h18.7l-32.2,55.8c-2.3,3.9-0.9,9,3,11.2l6.7,3.9c3.9,2.3,9,0.9,11.2-3l39.2-67.9h7.4v70.9
		c0,4.5,3.7,8.2,8.2,8.2h7.7c4.5,0,8.2-3.7,8.2-8.2v-70.9h7.4l39.2,67.9c2.3,3.9,7.3,5.3,11.2,3l6.7-3.9c3.9-2.3,5.3-7.3,3-11.2
		l-32.2-55.8h18.7c5.7,0,10.3-4.6,10.3-10.3v-6.1h15.5c6.1,0,11.1-5,11.1-11.1c0-3.3,0-78.4,0-82.2c0-2.2-1.7-3.9-3.9-3.9
		s-3.9,1.7-3.9,3.9v44.6l-22.3-22.2c-5.3-5.2-13.8-5-18.8,0.5l-18.5,20.6c-2,2.2-5.5,2.3-7.6,0.1l-18.4-19c-1.5-1.5-4-1.6-5.5-0.1
		c-1.5,1.5-1.6,4-0.1,5.5l18.4,19c5.2,5.4,13.9,5.3,19-0.4l18.5-20.6c2-2.2,5.4-2.3,7.5-0.2l27.8,27.7v26.6c0,1.8-1.5,3.3-3.3,3.3
		c-7.6,0-175.1,0-183.7,0c-1.8,0-3.3-1.5-3.3-3.3v-34.2l55.4-55.4c2.1-2.1,5.4-2,7.4,0.1l23.6,24.4c1.5,1.5,4,1.6,5.5,0.1
		c1.5-1.5,1.6-4,0.1-5.5l-23.6-24.4c-5-5.2-13.4-5.3-18.5-0.1l-49.9,49.9V116.5c0-1.8,1.5-3.3,3.3-3.3h183.7c1.8,0,3.3,1.5,3.3,3.3
		v187.4c0,2.2,1.7,3.9,3.9,3.9s3.9-1.7,3.9-3.9V116.5c0-6.1-5-11.1-11.1-11.1h-67.5v-6.1C324.3,93.6,319.7,89,314,89L314,89z
		 M234.6,495.8c-0.1,0.1-0.1,0.2-0.3,0.2c-0.1,0-0.2,0-0.3,0l-6.7-3.9c-0.2-0.1-0.3-0.4-0.2-0.6l34.5-59.7h9.9L234.6,495.8z
		 M304.3,502.7c0,0.2-0.2,0.4-0.4,0.4h-7.7c-0.2,0-0.4-0.2-0.4-0.4v-70.9h8.6V502.7z M372.8,491.5c0.1,0.2,0,0.5-0.2,0.6l-6.7,3.9
		c-0.1,0.1-0.2,0.1-0.3,0c-0.1,0-0.2-0.1-0.3-0.2l-36.9-64h9.9L372.8,491.5z M368.6,415.4v6.1c0,1.4-1.1,2.5-2.5,2.5
		c-5.6,0-126.6,0-132.1,0c-1.4,0-2.5-1.1-2.5-2.5v-6.1H368.6z M283.5,99.3c0-1.4,1.1-2.5,2.5-2.5H314c1.4,0,2.5,1.1,2.5,2.5v6.1
		h-33.1V99.3z"/>
</g>
</svg>
