<svg xmlns="http://www.w3.org/2000/svg" xmlns:xlink="http://www.w3.org/1999/xlink" viewBox="0 0 1000 1000"><defs><style>.cls-1{isolation:isolate}.cls-2{fill:#222b55;opacity:.5}.cls-10,.cls-2,.cls-6{mix-blend-mode:multiply}.cls-3{fill:#fff}.cls-4{fill:#121d31}.cls-5{fill:#cc1f3e}.cls-6{fill:url(#linear-gradient)}.cls-13,.cls-14,.cls-7,.cls-8,.cls-9{mix-blend-mode:screen}.cls-7{fill:url(#linear-gradient-2)}.cls-8{fill:url(#linear-gradient-3)}.cls-9{fill:url(#linear-gradient-4)}.cls-10{fill:url(#linear-gradient-5)}.cls-11{fill:#cb1e3d}.cls-12{fill:#8b1a28}.cls-13{fill:#c82557;opacity:.6}.cls-14{fill:#861a3c;opacity:.4}.cls-15{fill:#af1830}.cls-16{fill:#eaeaea}.cls-17{fill:#efefef}</style><linearGradient id="linear-gradient" x1="500" y1="736.12" x2="500" y2="602.28" gradientUnits="userSpaceOnUse"><stop offset="0" stop-color="#fff"/><stop offset="1" stop-color="#1a2642"/></linearGradient><linearGradient id="linear-gradient-2" x1="500" y1="699.81" x2="500" y2="813.22" gradientUnits="userSpaceOnUse"><stop offset="0" stop-color="#010101"/><stop offset="1" stop-color="#1d529c"/></linearGradient><linearGradient id="linear-gradient-3" x1="362.83" y1="736.12" x2="362.83" y2="602.28" xlink:href="#linear-gradient-2"/><linearGradient id="linear-gradient-4" x1="-2860.8" y1="736.12" x2="-2860.8" y2="602.28" gradientTransform="matrix(-1 0 0 1 -2223.63 0)" xlink:href="#linear-gradient-2"/><linearGradient id="linear-gradient-5" x1="618.91" y1="614.13" x2="469.86" y2="614.13" xlink:href="#linear-gradient"/></defs><g class="cls-1"><g id="Шар_1" data-name="Шар 1"><path class="cls-2" d="M924 499c0-42.47-32.89-81.12-76.5-89.89-3.76-.76-7.56-1.51-11.37-2.25-7.27-16.92-14.61-33.93-21.84-50.65s-22.46-28.82-39.72-31.53l-6.06-1a46.2 46.2 0 0 0-7-.54 43.47 43.47 0 0 0-8.74.88 99.92 99.92 0 0 0 4.5-39.6c-2.48-29.74-17.77-58.11-42-77.84a119.26 119.26 0 0 0-75.13-27.06 108 108 0 0 0-47.82 10.95c-.68-.66-1.38-1.3-2.09-1.92a56.94 56.94 0 0 0-37.37-13.92h-.27a55.52 55.52 0 0 0-38.06 14.84L500 203.1l-14.58-13.6a55.52 55.52 0 0 0-38.06-14.84h-.27a56.9 56.9 0 0 0-37.36 13.92c-.72.62-1.41 1.26-2.1 1.92a108 108 0 0 0-47.82-10.95 119.26 119.26 0 0 0-75.13 27.06c-24.19 19.73-39.48 48.1-42 77.84a99.74 99.74 0 0 0 6.19 44.25l-.37.29a57.66 57.66 0 0 0-19.7-3.4 62.75 62.75 0 0 0-10 .81c-7.72 1.25-15.63 2.58-23.51 4-24.43 4.29-43.57 27.07-43.58 51.87v27C109.88 418.12 76 459.14 76 501.13v58.2c0 30.28 17.46 54.17 45 62.53 6.21 8.34 12.45 16.81 18.61 25.29a2773.3 2773.3 0 0 0-10.48 32.12L118.37 713a16.64 16.64 0 0 0 15.86 21.71 16.35 16.35 0 0 0 2.6-.2l35-5.53c31.23-5 82.76-12.31 124.63-17.39A682.56 682.56 0 0 0 484 838.06l9.07 4.15a16.71 16.71 0 0 0 13.84 0l9.07-4.15A682.52 682.52 0 0 0 702.39 712.7c42.76 4.56 92.38 11 125.83 16.26l35 5.53a16.35 16.35 0 0 0 2.6.2A16.65 16.65 0 0 0 881.64 713l-10.76-33.71c-3.37-10.55-6.88-21.29-10.48-32.14 5.62-7.73 11.3-15.47 17-23.1 29.26-6.12 46.48-29.8 46.49-64.76v-16.66a80.17 80.17 0 0 0-3.09-22.12A70.11 70.11 0 0 0 924 499z"/><path class="cls-3" d="M924 480.61c0-42.48-32.89-81.13-76.5-89.9-3.76-.76-7.56-1.51-11.37-2.25-7.27-16.92-14.61-33.93-21.84-50.64S791.86 309 774.6 306.28l-6.06-.94a45 45 0 0 0-7-.55 43.47 43.47 0 0 0-8.74.88 99.92 99.92 0 0 0 4.5-39.6c-2.48-29.74-17.77-58.11-42-77.84a119.26 119.26 0 0 0-75.13-27.06 108 108 0 0 0-47.82 11c-.68-.67-1.38-1.31-2.09-1.93a56.93 56.93 0 0 0-37.37-13.91h-.27a55.52 55.52 0 0 0-38.06 14.84L500 184.72l-14.58-13.59a55.52 55.52 0 0 0-38.06-14.84h-.27a56.89 56.89 0 0 0-37.36 13.91c-.72.62-1.41 1.26-2.1 1.93a108 108 0 0 0-47.82-11 119.26 119.26 0 0 0-75.13 27.06c-24.19 19.73-39.48 48.11-42 77.84a99.72 99.72 0 0 0 6.19 44.25l-.37.29a57.9 57.9 0 0 0-19.7-3.4 62.75 62.75 0 0 0-10 .81c-7.72 1.25-15.63 2.58-23.51 4-24.43 4.28-43.57 27.06-43.58 51.87v27c-41.83 8.9-75.71 49.91-75.71 91.9V541c0 30.28 17.46 54.17 45 62.54 6.21 8.33 12.45 16.81 18.61 25.28-3.58 10.75-7.09 21.52-10.48 32.12l-10.76 33.66a16.65 16.65 0 0 0 15.86 21.72 16.37 16.37 0 0 0 2.6-.21l35-5.53c31.23-5 82.76-12.3 124.63-17.39A682.34 682.34 0 0 0 484 819.68l9.07 4.15a16.61 16.61 0 0 0 13.84 0l9.07-4.15a682.71 682.71 0 0 0 186.4-125.35c42.76 4.55 92.38 10.95 125.83 16.25l35 5.53a16.37 16.37 0 0 0 2.6.21 16.66 16.66 0 0 0 15.86-21.72l-10.76-33.71c-3.37-10.53-6.88-21.3-10.48-32.12 5.62-7.73 11.3-15.46 17-23.1 29.26-6.12 46.48-29.8 46.49-64.76v-16.65a80.24 80.24 0 0 0-3.09-22.13 70 70 0 0 0 3.17-21.52z"/><path class="cls-4" d="M740.69 267.45c-2.11-25.25-15.19-49.43-35.9-66.32a102.58 102.58 0 0 0-64.6-23.31 90.26 90.26 0 0 0-48.34 13.65l-3.57 2.26-2.37-3.49a38.36 38.36 0 0 0-6.56-7.47 40.26 40.26 0 0 0-26.44-9.83h-.27a39 39 0 0 0-26.71 10.36L500 207.49l-25.93-24.19a39 39 0 0 0-26.71-10.36h-.27a40.26 40.26 0 0 0-26.44 9.83 38.36 38.36 0 0 0-6.56 7.47l-2.37 3.49-3.57-2.26a90.26 90.26 0 0 0-48.34-13.65 102.58 102.58 0 0 0-64.6 23.31c-20.71 16.89-33.79 41.07-35.9 66.32a81.89 81.89 0 0 0 19.92 61.38c16.45 18.77 40.07 29.1 66.52 29.1a101.16 101.16 0 0 0 58.43-18.75l3.42-2.41 2.55 3.32a36.2 36.2 0 0 0 2.8 3.28 39.79 39.79 0 0 0 28.63 12.14h.6A40.71 40.71 0 0 0 470.6 344l1.2-1.16 9.7-.28L500 342l18.5.53 9.7.28 1.2 1.16a40.71 40.71 0 0 0 28.42 11.52h.6a39.79 39.79 0 0 0 28.63-12.14c.46-.47.89-.95 1.31-1.44a6.34 6.34 0 0 1 3-.78v-3.06l1-1.32 3.42 2.41a101.16 101.16 0 0 0 58.43 18.75c26.45 0 50.07-10.33 66.52-29.1a81.89 81.89 0 0 0 19.96-61.36z"/><path class="cls-5" d="M447.41 187.6a24.35 24.35 0 0 1 16.66 6.4L490 218.21a14.66 14.66 0 0 0 20 0L535.93 194a24.29 24.29 0 0 1 16.65-6.42h.42a25.58 25.58 0 0 1 16.77 6.23 24.24 24.24 0 0 1 4 4.63l2.37 3.5a14.65 14.65 0 0 0 20 4.16l3.57-2.25a75.61 75.61 0 0 1 40.51-11.39 87.94 87.94 0 0 1 55.34 20c17.64 14.39 28.77 34.87 30.55 56.18a67.33 67.33 0 0 1-16.34 50.49c-13.62 15.55-33.33 24.11-55.49 24.11a86.58 86.58 0 0 1-50-16.08l-3.42-2.41a14.66 14.66 0 0 0-20.06 3.06l-1 1.31a14.75 14.75 0 0 0-1.24 1.9 14.85 14.85 0 0 0-1.3 1.33c-.31.37-.54.62-.76.84a25.07 25.07 0 0 1-18 7.63h-.87a26.06 26.06 0 0 1-18.06-7.39l-1.2-1.17a14.64 14.64 0 0 0-9.76-4.11l-9.71-.29-18.9-.5-18.92.53-9.71.29a14.63 14.63 0 0 0-9.76 4.11l-1.2 1.16a26.15 26.15 0 0 1-18.12 7.4h-.86a25 25 0 0 1-17.91-7.63 24.32 24.32 0 0 1-1.75-2.07l-2.54-3.31a14.66 14.66 0 0 0-20.06-3.06l-3.43 2.41a86.58 86.58 0 0 1-50 16.08c-22.16 0-41.87-8.56-55.49-24.11a67.33 67.33 0 0 1-16.34-50.49c1.78-21.31 12.91-41.79 30.56-56.18a87.89 87.89 0 0 1 55.33-20 75.61 75.61 0 0 1 40.51 11.39l3.57 2.25a14.64 14.64 0 0 0 20-4.17l2.37-3.48a24 24 0 0 1 4-4.64A25.51 25.51 0 0 1 447 187.6h.38m105.57-8h-.37a32.29 32.29 0 0 0-22.13 8.57l-25.94 24.19a6.65 6.65 0 0 1-9.08 0l-25.94-24.19a32.28 32.28 0 0 0-22.09-8.57h-.37a33.56 33.56 0 0 0-22 8.19 32 32 0 0 0-5.43 6.21l-2.37 3.5a6.66 6.66 0 0 1-9.07 1.89l-3.57-2.26a83.65 83.65 0 0 0-44.78-12.62 95.91 95.91 0 0 0-60.39 21.81C280.1 222.05 267.9 244.54 266 268a75.27 75.27 0 0 0 18.29 56.44c15.17 17.3 37 26.83 61.51 26.83a94.52 94.52 0 0 0 54.6-17.54l3.42-2.4a6.64 6.64 0 0 1 9.11 1.39l2.54 3.31a35.06 35.06 0 0 0 2.34 2.74 33.07 33.07 0 0 0 23.75 10.08h.67a34.13 34.13 0 0 0 23.77-9.64l1.2-1.17a6.71 6.71 0 0 1 4.43-1.87l9.71-.28 18.69-.53 18.7.53 9.7.28a6.67 6.67 0 0 1 4.43 1.87l1.2 1.16a34 34 0 0 0 23.7 9.65h.69a33.12 33.12 0 0 0 23.83-10.09c.37-.38.71-.77 1-1.17a6.64 6.64 0 0 1 1.71-1.42 6.6 6.6 0 0 1 1.1-2.14l1-1.31a6.64 6.64 0 0 1 9.11-1.39l3.42 2.4a94.52 94.52 0 0 0 54.6 17.54c24.5 0 46.34-9.53 61.51-26.83A75.27 75.27 0 0 0 734.05 268c-1.95-23.46-14.15-45.95-33.47-61.71a95.91 95.91 0 0 0-60.39-21.81 83.65 83.65 0 0 0-44.78 12.62l-3.57 2.26a6.66 6.66 0 0 1-9.07-1.89L580.4 194a31.8 31.8 0 0 0-5.42-6.19 33.56 33.56 0 0 0-22-8.19z"/><path class="cls-4" d="M490.93 804.54C256.64 697.43 177.61 504.29 174.36 496.11l-10.23-25.73L500 422.4l335.88 48-10.24 25.73c-3.25 8.18-82.27 201.32-316.57 308.43l-9.07 4.13z"/><path class="cls-6" d="M500 450.2l-282 42.14s70.46 185.44 282 286.59c211.54-101.15 282.06-286.59 282.06-286.59z"/><path class="cls-7" d="M500 431.21l-323.67 46.24 6.14 15.44c3.2 8 80.9 198 312.09 303.71l5.44 2.49 5.45-2.49c231.13-105.66 308.89-295.67 312.09-303.71l6.14-15.44zm0 347.72C288.46 677.78 218 492.34 218 492.34l282-42.14 282.06 42.14S711.54 677.78 500 778.93z"/><path class="cls-8" d="M233.36 492.34l274.35-41-7.71-1.14-282 42.14s70.46 185.44 282 286.59c-73.2-45.25-198-133.13-266.64-286.59z"/><path class="cls-9" d="M766.65 492.34l-274.35-41 7.7-1.15 282.06 42.14S711.54 677.78 500 778.93c73.21-45.25 198-133.13 266.65-286.59z"/><path class="cls-10" d="M500 769.25V459l269.55 40.3C751.47 538.64 675.07 684 500 769.25z"/><path class="cls-4" d="M830.82 694.13c-42.31-6.7-105-14.38-147.59-18.49L698 645.8c-65.82-6.09-132.15-9.16-198-9.16s-132.18 3.07-198 9.16l29 26.79c-42.64 4.11-119.51 14.84-161.83 21.54l-35 5.54L145 666c4.25-13.31 8.65-26.72 13.12-40-8.08-11.2-16.32-22.43-24.59-33.52l-21.58-28.94 35.66-5.64c17.45-2.77 35.09-5.35 52.66-7.71l-3.9-31.32 21.63-2.75a2284.59 2284.59 0 0 1 564 0l21.65 2.69-3.9 31.32c17.58 2.36 35.21 4.94 52.67 7.71l35.65 5.64-21.58 28.94c-8.25 11.07-16.5 22.31-24.59 33.52 4.48 13.32 8.89 26.74 13.12 40l10.77 33.71z"/><path class="cls-4" d="M907.38 480.61c0-34-27-66.31-63.13-73.58q-10-2-20-3.89c-.21-.57-.43-1.14-.68-1.7q-12.27-28.59-24.57-57c-4.92-11.37-15.45-19.88-27-21.7l-6-.94c-11.61-1.79-22.18 3.44-27.11 13.29l-1 2.05c-4.44-11.6-15.2-20.83-27.81-22.35q-7.2-.87-14.41-1.69a28.59 28.59 0 0 0-7.17.07 31.5 31.5 0 0 0-7.17-1.63q-7.14-.73-14.27-1.43a27.18 27.18 0 0 0-23.4 9A50.07 50.07 0 0 0 613 305.75q-11.76-.75-23.51-1.36a28.43 28.43 0 0 0-27.67 16.84l-.72-1.54a31 31 0 0 0-27.3-18l-6.06-.11A29.63 29.63 0 0 0 504 312.92a29.67 29.67 0 0 0-23.21-10.72q-20.47.23-40.93.93A31.09 31.09 0 0 0 418 313.31a54.7 54.7 0 0 0-33.21-8A62 62 0 0 0 347 321.35a26.88 26.88 0 0 0-24.62-10.42l-5.09.53a32.44 32.44 0 0 0-14.09 5 27.75 27.75 0 0 0-13.64-1.66q-7.17.87-14.32 1.8a34.79 34.79 0 0 0-23.35 14.4c-8.2-5.76-18.82-8.36-30.41-6.49q-11.65 1.89-23.29 3.93c-16.48 2.89-29.8 18.92-29.8 35.47v40.68q-6.22 1.2-12.46 2.46c-35 7-63.31 41.7-63.31 75.75V541c0 34 28.29 54.69 63.31 47.67q15-3 30-5.76c13.21-2.42 24.44-13 28.35-25.57a110.73 110.73 0 0 0 18.65-1.4 75.12 75.12 0 0 0 24.74-8.49 28.27 28.27 0 0 0 14.77 1.9q12.84-1.69 25.68-3.19a32.43 32.43 0 0 0 7-1.61 30.51 30.51 0 0 0 7 0q12.86-1.39 25.73-2.6a31.41 31.41 0 0 0 6-1.16 30.45 30.45 0 0 0 6 .09q21.88-1.89 43.8-3.23a30 30 0 0 0 8.47.7 31.46 31.46 0 0 0 8.83-1.79h2.55q12.9-.64 25.8-1.1a31.53 31.53 0 0 0 23.51-11.84 30.09 30.09 0 0 0 23.51 10.84q13-.11 26 0a30.33 30.33 0 0 0 18.45-6 31.33 31.33 0 0 0 18.47 6.7q21.94.61 43.86 1.78a31.67 31.67 0 0 0 8.47 1.68 30.2 30.2 0 0 0 8.83-.78c.84.12 1.69.22 2.54.27q12.9.84 25.77 1.86c12.36 1 23.46-5.5 28-16.5.33-.81.61-1.62.87-2.44 10.5 14.24 27.73 25.43 51 28.36 11.64 1.47 21.06.41 28.55-1.82a34.81 34.81 0 0 0 15.7 6.78q5.45.83 10.9 1.69c.11.35.21.7.34 1 4.5 12.17 15.54 21.47 27.78 23.62q21.6 3.79 43.12 8.13c38.63 7.82 62.43-9.78 62.44-47.85v-16.68a63.72 63.72 0 0 0-4.09-22.52 51.5 51.5 0 0 0 4.06-21.13z"/><path class="cls-3" d="M150.33 528.13c0 2.8 2.45 4.61 5.6 4q15-3 30-5.75v26.54q-15 2.75-30 5.76c-18.72 3.76-33.72-7-33.72-24.53v-58.2c0-17.64 15-35.19 33.72-38.95q14.25-2.87 28.55-5.5V458q-14.29 2.63-28.55 5.49a6.92 6.92 0 0 0-5.6 6.42zm108.89-104.65v85.71c-6.16 10-16.6 15.22-26.33 16.73-11 1.7-23.43 1.88-34.41-4.49q4.77-9.67 9.56-19.33c11.84 7.23 22.14 4.81 28.14 1.22v-14.06c-3.05.46-6.1.94-9.15 1.42-17.86 2.84-27.55-8.12-27.55-23.26v-34.55l-1.29-1q12.84-2.26 25.7-4.32l-1.43 1.45v34.55c0 5.62 3.29 5.76 4.71 5.54 3-.48 6-.94 9-1.4v-40.84l-1.28-1q12.79-2 25.61-3.74zm77.21 87.42l1.3 1.08q-12.87 1.2-25.73 2.6l1.3-1.35v-76.6q-8.26.89-16.51 1.86v76.6l1.29 1q-12.85 1.5-25.68 3.19l1.29-1.38v-96.37l-1.29-1q32.61-4.29 65.33-7.34l-1.3 1.33zm62.18-102.36l1.16-1.28v24l-1.3-1.13q-12.18.7-24.34 1.59v17q11.16-.81 22.32-1.47l1.3-1.28v24.11l-1.3-1.27q-11.16.68-22.32 1.47v17.15q13.25-1 26.5-1.72l1.3-1.28v24c-.44-.37-.87-.75-1.3-1.13q-25.5 1.46-51 3.66l1.3-1.32V412q23.84-2.08 47.68-3.46zm76.13 43.57c0 16.61-12.41 25.46-27.69 25.93q-4.62.13-9.23.3v26l1.29 1.16q-12.9.45-25.8 1.1l1.3-1.27v-96.45l-1.3-1.14q16.86-.84 33.74-1.35c15.28-.47 27.69 6.48 27.69 25.09zm-23.22-21.61a4.2 4.2 0 0 0-4.47-4c-3.08.09-6.16.2-9.23.3v31.48l9.23-.31a4.52 4.52 0 0 0 4.47-4.41zm85.53-24.5c.39-.39.77-.78 1.15-1.18v24l-1.29-1.23q-13.12-.27-26.26-.36v76.07l1.45 1.21q-13-.09-26 0l1.3-1.22v-97.66q24.84-.16 49.65.37zm60.95 2.34l1.16-1.14v24l-1.3-1.28q-12.18-.69-24.36-1.2v17q11.18.46 22.34 1.08l1.3-1.13v24.1l-1.3-1.41q-11.16-.62-22.34-1.08v17.14q13.26.55 26.52 1.32l1.3-1.13v24l-1.3-1.28q-25.5-1.47-51-2.18l1.3-1.17v-97.67q23.86.69 47.68 2.03zm76 52.28c0 16.61-12.36 24.05-27.61 22.77l-9.21-.75v26l1.29 1.31q-12.87-1-25.77-1.86l1.3-1.13v-96.44l-1.3-1.29q16.86 1.09 33.69 2.51C661.66 413 674 421.39 674 440zm-23.15-24.26a4.82 4.82 0 0 0-4.46-4.53l-9.21-.75v31.47l9.21.75a3.94 3.94 0 0 0 4.46-3.9zm99.91 12.38v48.35c0 13.55-10.45 25.05-32.38 22.25-21.52-2.69-33-16.94-33-30.49V440.5c0-13.49 9.92-25.55 33-22.67 22.37 2.85 32.38 17.41 32.38 30.91zm-23.06-3.19c0-8.07-19.21-10.22-19.22-2.42v48.34c0 8.94 19.22 11.23 19.22 2.42zm59.65 81.69l1.43 1.24q-13.06-2.19-26.15-4.18l1.43-.78v-79.88l-1.43-1.21q13.08 2 26.15 4.18l-1.43.76zm90.44-53.47c0 7.27-2.79 16.84-13.27 20.86 7.34 4 13.09 10.76 13.09 22.8v16.65c0 21.46-10.79 29.18-32.84 24.71q-21.53-4.34-43.12-8.13c.53-.4 1.06-.8 1.58-1.21V430.74l-1.58-1.74q21.33 3.75 42.6 8c20.11 4.06 33.53 19.64 33.54 36.77zm-46.32 3.09q6.56 1.26 13.13 2.59c6.12-.41 8.57-15.25-1.05-17.2q-6-1.2-12.08-2.38zm18 52.22v-16.49a7 7 0 0 0-5.42-6q-6.3-1.28-12.6-2.49v26.5q6.3 1.23 12.6 2.49c3 .6 5.44-1.21 5.44-4.01zm-615.28-150.8c4.45 1.54 6.56 5.23 6.56 10-.08 9.41-5.86 17.87-17 19.65q-12.78 2-25.55 4.29v-53.86q11.64-2 23.29-3.93c9.43-1.53 17 4.57 17 13.88a15 15 0 0 1-4.3 9.97zm-22.53-9.92v8.69l8.81-1.45c5.53-.89 5.53-9.59-.08-8.68q-4.39.71-8.73 1.44zm0 20.16v9.15q5.57-.93 11.15-1.83c5.61-.89 5.53-10-.08-9.14q-5.53.89-11.07 1.82zm68.54 11.38l-5 .64V346.6q7.16-.93 14.32-1.8v26.39q13.85-15 27.73-29.77l5.09-.52V395c-4.78.49-9.64 1-14.5 1.54v-26.48Q294 384.87 280.2 399.9zm104.62-64.65c11.39-.76 23.74 4.66 25.86 18.95-4.8.25-9 .48-13.84.76-2-5.34-6.13-7.56-12-7.17-8.25.55-13.67 7-13.67 16 0 7.93 5.34 14.45 13.67 14 6-.39 10.77-3.6 12.26-9.46 4.72-.28 9-.52 13.84-.76-2.05 15.33-14.4 22-26.1 22.77-14 1-28.12-7.08-28.2-25.38.06-18.39 14.19-28.8 28.18-29.71zm55.03 10.16V333.1q20.46-.71 40.93-.93v12.31q-6.73.07-13.46.2v41.55q-7 .12-13.93.31V345q-6.76.17-13.54.41zm101.84 34.24q-10.86-.25-21.72-.39c-1.08 2.25-2.15 4.5-3.23 6.74q-6.89-.06-13.77-.08v-2q12.39-26.25 24.79-52.33l6.06.11q12.43 26.51 24.87 53.21v2q-6.88-.24-13.77-.41-1.62-3.44-3.23-6.85zm-10.94-26.16q-3.11 7-6.22 14.06 6.3.09 12.6.22zm95.07 8.97a12.66 12.66 0 0 1 6.6 11.49c-.08 9.39-5.89 16.53-17.12 15.78q-12.9-.84-25.79-1.51v-53.86q11.76.6 23.51 1.36c9.51.62 17.13 8.43 17.13 17.74a11.83 11.83 0 0 1-4.33 9zm-22.71-15v8.7c3 .17 5.93.35 8.89.54 5.58.37 5.57-8.33-.08-8.7-2.92-.22-5.87-.41-8.81-.58zm0 20.16v9.16q5.63.33 11.24.7c5.66.38 5.59-8.79-.08-9.16q-5.58-.41-11.16-.74zM667 393.93v-53.86c4.7.45 9.41.93 14.27 1.43v20.39l1 .11c14 1.5 13.32-8.85 13.32-18.94 4.78.54 9.56 1.1 14.41 1.69 0 11 .31 21.18-10.57 26.76q7.44 12.71 14.87 25.47v2.16q-7.79-1-15.58-1.86-6-11.11-12.06-22.19a33.36 33.36 0 0 1-5.41-.27v20.54c-4.81-.5-9.52-.97-14.25-1.43zm112.8 7.8q-10.8-1.73-21.53-3.36c-1.06 2.1-2.13 4.19-3.2 6.29l-13.67-2v-2q12.32-24.56 24.6-48.94l6 .94q12.33 28.21 24.63 56.62v2q-6.81-1.19-13.63-2.3zM769 374.07q-3.08 6.6-6.16 13.21 6.24.95 12.48 2-3.19-7.64-6.32-15.21zm5.29 64.26q-9.76-1.56-19.53-3v-13.92q9.76 1.44 19.53 3zm22.34 3.67q-9.75-1.68-19.5-3.25v-13.89q9.75 1.58 19.5 3.25z"/><path class="cls-11" d="M767.65 631.41a2168.21 2168.21 0 0 0-535.29 0q-5.84-46.81-11.65-93.65a2262.83 2262.83 0 0 1 558.59 0q-5.82 46.83-11.65 93.65z"/><path class="cls-12" d="M224.59 569q-36.85 4.59-73.58 10.4 15.93 21.36 31.36 42.94-8.56 25.11-16.6 50.27 64.47-10.22 129.36-16.46-31-12.81-62.77-24.72zm550.83 0q36.86 4.59 73.58 10.4-15.93 21.36-31.36 42.94 8.57 25.11 16.6 50.27-64.49-10.22-129.37-16.46 31-12.81 62.78-24.72z"/><path class="cls-13" d="M778.26 546.09c.35-2.78.69-5.55 1-8.33a2262.91 2262.91 0 0 0-558.6 0c.35 2.78.7 5.55 1 8.33a2261.72 2261.72 0 0 1 556.6 0z"/><path class="cls-14" d="M224.59 569q-36.85 4.59-73.58 10.4c2 2.66 3.93 5.34 5.91 8q34.32-5.39 68.75-9.71zm550.83 0c-.36 2.86-.72 5.73-1.07 8.59q34.46 4.3 68.82 9.71c2-2.63 3.87-5.27 5.83-7.9q-36.72-5.84-73.58-10.4z"/><path class="cls-15" d="M261 560.61l6.67-.62v42.48l-6.67.63zm18.15 40.83l-6.67.59v-42.48l6.67-.59v18.2l7.57-.64v-18.21l6.79-.57v42.49l-6.79.56v-18.21l-7.57.65zm17.27-43.93q10.31-.84 20.62-1.58V562l-7 .52v36.42l-6.67.5V563l-7 .55zm30.2 15.66c3.06-.21 6.11-.42 9.16-.61v6.07c-3 .19-6.1.4-9.16.61v12.44q5.78-.39 11.53-.76V597q-9.11.57-18.2 1.22v-42.49q9.1-.66 18.2-1.23v6.07q-5.76.36-11.53.76zm35.44-9.59v5.53c0 6.8-3.27 10.67-9.95 11.06l-3.16.19v16l-6.67.41v-42.53l9.83-.6c6.68-.38 9.95 3.15 9.95 9.94zM349 559.9v14.39l3.16-.19c2.12-.12 3.28-1.16 3.28-4.2v-6.37c0-3-1.15-3.94-3.28-3.82zm37.78 34.45l-6.74.31c-.39-2.55-.77-5.1-1.16-7.66l-8.19.41c-.39 2.59-.77 5.18-1.16 7.77l-6.13.32q3.41-21.43 6.8-42.85l9.78-.48q3.39 21.09 6.8 42.18zm-15.24-12.75l6.43-.32-3.21-21.28q-1.62 10.78-3.22 21.6zm27.08-4.69l-2.06 4v13l-6.68.28v-42.47l6.68-.28V570q4.37-9.44 8.74-18.86l6.68-.24q-4.65 9.63-9.29 19.28 4.65 11.6 9.29 23.21l-6.86.25q-3.25-8.4-6.5-16.73zm14.46-26.09q10.32-.35 20.65-.62v6.07l-7 .19v36.42l-6.69.2v-36.42l-7 .23zm30.43 41.63l-6.86.16v-42.48l6-.15v26.89c.81-3.13 1.62-6.27 2.44-9.4l5.46-17.65 7.35-.13v42.48l-6 .11v-29.92q-1.36 5.24-2.74 10.49-2.85 9.8-5.65 19.6zm39.08-33.28v1.52c0 4.37-1.34 7.17-4.32 8.59 3.59 1.36 5 4.57 5 9.06v3.46c0 6.56-3.47 10.1-10.15 10.17-3.51 0-7 .08-10.51.13v-42.49l10.08-.13c6.92-.07 9.9 3.13 9.9 9.69zm-13.31-3.58v11.23h2.61c2.49 0 4-1.13 4-4.53v-2.37c0-3-1-4.36-3.4-4.34zm0 17.3v13.05h3.83c2.24 0 3.46-1.07 3.46-4.23V578c0-3.94-1.28-5.15-4.31-5.11zM494 591.83h-6.68v-42.46H494v18.21h7.6v-18.24h6.8v42.49h-6.8v-18.22H494zm40.85.23l-6.74-.08c-.39-2.57-.77-5.15-1.16-7.72l-8.2-.08c-.39 2.57-.77 5.14-1.16 7.7h-6.13q3.41-21.23 6.8-42.45l9.79.09q3.39 21.25 6.8 42.54zm-15.25-13.64l6.44.06q-1.6-10.76-3.22-21.52-1.61 10.74-3.22 21.46zM567.36 560v1.52c0 4.37-1.34 7.12-4.31 8.45 3.58 1.48 5 4.74 5 9.23v3.46c0 6.56-3.46 10-10.15 9.82q-5.25-.12-10.51-.21v-42.49c3.36.06 6.73.13 10.09.21 6.9.15 9.88 3.46 9.88 10.01zm-13.3-4v11.23l2.61.06c2.49.05 4-1 4-4.4v-2.39c0-3-1-4.4-3.4-4.45zm0 17.3v13.05l3.82.08c2.25.06 3.47-.95 3.47-4.1v-3.73c0-3.94-1.28-5.19-4.32-5.26zm24.85 19.75l-6.87-.2v-42.49l6 .17v26.89l2.43-9.27q2.75-8.68 5.47-17.36l7.35.26v42.49l-6-.22V563.4q-1.37 5.18-2.74 10.35zm38.44-14.36v5.65c0 6.8-3.4 10.52-10 10.24s-10-4.28-10-11.08v-22.1c0-6.79 3.41-10.55 10-10.28s10 4.33 10 11.13v4.12l-6.31-.28v-4.55c0-3-1.34-4.25-3.47-4.34s-3.46 1-3.46 4v23c0 3 1.34 4.18 3.46 4.27s3.47-1 3.47-4v-6.07zm2.13-26.54q10.32.48 20.64 1.05v6.07l-7-.37v36.42l-6.68-.35v-36.41l-7-.34zm45.16 45.02l-6.74-.43c-.38-2.6-.77-5.19-1.15-7.78l-8.19-.5c-.39 2.55-.77 5.1-1.16 7.64l-6.13-.34q3.4-21.06 6.8-42.1l9.77.58q3.41 21.46 6.8 42.93zm-15.23-14.42l6.43.38q-1.61-10.83-3.22-21.68zm38.28-16.7v1.52c0 4.37-1.33 7.06-4.31 8.24 3.58 1.66 5 5 5 9.47v3.46c0 6.56-3.46 9.82-10.13 9.34l-10.49-.71v-42.49c3.35.22 6.71.45 10.06.69 6.9.48 9.87 3.93 9.87 10.48zm-13.28-4.65v11.23l2.61.18c2.48.17 4-.81 4-4.21v-2.37c0-3-1-4.44-3.4-4.61zm0 17.3v13l3.82.26c2.24.16 3.46-.78 3.46-3.94v-3.7c0-4-1.28-5.25-4.31-5.46zm26.68 4.16c-.68 1.24-1.37 2.48-2.06 3.72v13l-6.67-.51v-42.44l6.67.52v18.51l8.73-17.81 6.67.55-9.28 18.17q4.65 12.15 9.28 24.32l-6.85-.57q-3.24-8.73-6.49-17.46zM739 603.1c-2.24-.22-4.49-.42-6.73-.63q-.57-3.91-1.15-7.81l-8.17-.74c-.39 2.54-.77 5.07-1.16 7.61l-6.09-.53q3.4-21 6.79-41.9l9.75.88q3.39 21.56 6.76 43.12zm-15.21-14.87l6.42.58L727 567z"/><path class="cls-3" d="M261 556.68l6.67-.62v42.49l-6.67.62z"/><path class="cls-16" d="M262.29 557.88l4-.37v39.84l-4 .37z"/><path class="cls-3" d="M279.15 597.52l-6.67.59v-42.49l6.67-.59v18.21l7.57-.65v-18.21l6.79-.56v42.49l-6.79.56v-18.21l-7.57.65z"/><path class="cls-16" d="M273.8 556.83l4-.36v16.77a1.33 1.33 0 0 0 1.32 1.32h.11l7.57-.65a1.32 1.32 0 0 0 1.21-1.32v-17l4.15-.35v39.84l-4.15.35v-16.77a1.29 1.29 0 0 0-.43-1 1.33 1.33 0 0 0-.89-.35h-.11L279 578a1.32 1.32 0 0 0-1.2 1.31v17l-4 .36z"/><path class="cls-3" d="M296.42 553.58q10.31-.83 20.62-1.57v6.07l-7 .51V595l-6.67.51V559.1l-7 .55z"/><path class="cls-16" d="M304.71 559.1a1.32 1.32 0 0 0-.42-1 1.33 1.33 0 0 0-.9-.35l-5.65.44v-3.39q9-.72 18-1.37v3.42l-5.75.43a1.32 1.32 0 0 0-1.23 1.31v35.2l-4 .31z"/><path class="cls-3" d="M326.62 569.24l9.16-.61v6.07l-9.16.61v12.44l11.53-.76v6.07q-9.11.59-18.2 1.23V551.8q9.1-.64 18.2-1.23v6.07q-5.76.38-11.53.77z"/><path class="cls-16" d="M321.27 553q7.78-.56 15.56-1v3.43c-3.43.22-6.86.44-10.3.68a1.32 1.32 0 0 0-1.23 1.32v11.83a1.35 1.35 0 0 0 .42 1 1.37 1.37 0 0 0 .9.35l7.84-.52v3.43l-7.93.53a1.31 1.31 0 0 0-1.23 1.31v12.45a1.35 1.35 0 0 0 .42 1 1.32 1.32 0 0 0 .9.35h.09l10.12-.67v3.42q-7.79.51-15.56 1z"/><path class="cls-3" d="M362.06 559.66v5.52c0 6.8-3.27 10.68-9.95 11.07l-3.16.18v16l-6.67.4v-42.52l9.83-.59c6.68-.39 9.95 3.14 9.95 9.94zM349 556v14.38l3.16-.18c2.12-.13 3.28-1.16 3.28-4.2v-6.37c0-3-1.15-3.94-3.28-3.82z"/><path class="cls-16" d="M343.6 551.55l8.59-.51h.89c5.16 0 7.66 2.83 7.66 8.65v5.52c0 6.22-2.84 9.41-8.71 9.75l-3.15.19a1.31 1.31 0 0 0-1.24 1.31v14.72l-4 .25zm8.87 2.91H352l-3.15.19a1.32 1.32 0 0 0-1.24 1.32v14.38a1.31 1.31 0 0 0 1.31 1.32l3.24-.19c3-.17 4.52-2 4.52-5.51v-6.37c.03-3.41-1.4-5.14-4.21-5.14z"/><path class="cls-3" d="M386.78 590.43l-6.74.3c-.39-2.55-.77-5.1-1.16-7.65l-8.19.41c-.39 2.58-.77 5.17-1.16 7.76l-6.13.33q3.41-21.44 6.8-42.85 4.89-.26 9.78-.48 3.39 21.07 6.8 42.18zm-15.24-12.75l6.43-.32-3.21-21.36q-1.62 10.85-3.22 21.68z"/><path class="cls-16" d="M371.34 550l7.52-.37 6.38 39.55-4.08.19-1-6.48a1.33 1.33 0 0 0-1.31-1.12h-.06l-8.2.41a1.32 1.32 0 0 0-1.24 1.12l-1 6.7-3.43.18zm3.41 4.72a1.32 1.32 0 0 0-1.3 1.12l-3.22 21.65a1.33 1.33 0 0 0 1.31 1.52l6.5-.32a1.34 1.34 0 0 0 1.24-1.52l-3.22-21.33a1.32 1.32 0 0 0-1.3-1.12z"/><path class="cls-3" d="M398.62 573q-1 2-2.06 4v13l-6.68.28V547.8l6.68-.28V566q4.37-9.43 8.74-18.85l6.68-.24q-4.65 9.63-9.29 19.27l9.31 23.25-6.86.24z"/><path class="cls-16" d="M391.2 549.06l4-.17V566a1.32 1.32 0 0 0 1 1.29 1.43 1.43 0 0 0 .29 0 1.32 1.32 0 0 0 1.19-.76l8.41-18.12 3.68-.14-8.34 17.31a1.37 1.37 0 0 0 0 1.07q4.31 10.72 8.6 21.46l-4.05.15-6.16-15.81a1.33 1.33 0 0 0-1.16-.84h-.07a1.32 1.32 0 0 0-1.17.71l-2.06 4a1.31 1.31 0 0 0-.15.61v11.78l-4 .17z"/><path class="cls-3" d="M413.08 546.9q10.32-.36 20.65-.62v6.07l-7 .19V589l-6.69.2v-36.46l-7 .23z"/><path class="cls-16" d="M421.38 552.74a1.31 1.31 0 0 0-.4-1 1.29 1.29 0 0 0-.92-.37l-5.66.19v-3.43q9-.31 18-.55v3.43l-5.7.16a1.31 1.31 0 0 0-1.28 1.32v35.14l-4.05.12z"/><path class="cls-3" d="M443.51 588.53l-6.86.16V546.2l6-.14V573c.81-3.13 1.62-6.27 2.44-9.4l5.46-17.66 7.35-.13v42.49l-6 .11v-29.98q-1.36 5.25-2.74 10.5-2.85 9.8-5.65 19.6z"/><path class="cls-16" d="M438 547.49l3.32-.08V573a1.32 1.32 0 0 0 1.15 1.31h.17a1.31 1.31 0 0 0 1.27-1l2.43-9.4 5.17-16.69 5-.09V587l-3.37.06v-28.63a1.33 1.33 0 0 0-1.15-1.31h-.17a1.32 1.32 0 0 0-1.28 1l-2.73 10.49-5.32 18.64-4.54.11z"/><path class="cls-3" d="M482.59 555.24v1.52c0 4.37-1.34 7.17-4.32 8.59 3.59 1.37 5 4.58 5 9.07v3.46c0 6.56-3.47 10.09-10.15 10.16-3.51 0-7 .08-10.51.14v-42.49l10.08-.13c6.92-.07 9.9 3.13 9.9 9.68zm-13.31-3.57v11.23h2.61c2.49 0 4-1.14 4-4.54V556c0-3-1-4.36-3.4-4.34zm0 17.3v13h3.83c2.24 0 3.46-1.06 3.46-4.22v-3.7c0-3.95-1.28-5.15-4.31-5.12z"/><path class="cls-16" d="M463.91 547c2.93 0 5.86-.08 8.79-.11h.21c5.86 0 8.36 2.5 8.36 8.36v1.52c0 3.94-1.1 6.22-3.57 7.4a1.32 1.32 0 0 0 .1 2.43c2.82 1.07 4.14 3.56 4.14 7.83v3.46c0 5.89-2.9 8.78-8.85 8.84-3.06 0-6.12.07-9.18.12zm5.35 20.66A1.31 1.31 0 0 0 468 569v13a1.29 1.29 0 0 0 .39.93 1.31 1.31 0 0 0 .93.39l3.84-.05c3.17 0 4.77-1.9 4.77-5.54v-3.7c0-4.45-1.7-6.44-5.52-6.44zm0-17.3a1.34 1.34 0 0 0-1.34 1.32v11.22a1.29 1.29 0 0 0 .39.93 1.31 1.31 0 0 0 .93.39h2.63c3.52 0 5.31-2 5.31-5.86V556a6.6 6.6 0 0 0-1.07-4.1 4.23 4.23 0 0 0-3.58-1.56z"/><path class="cls-3" d="M494 587.91h-6.68v-42.47H494v18.21h7.6v-18.24h6.8v42.48h-6.8v-18.2H494z"/><path class="cls-16" d="M488.59 546.76h4.05v16.89a1.28 1.28 0 0 0 .38.93 1.33 1.33 0 0 0 .93.39h7.6a1.33 1.33 0 0 0 1.32-1.32v-16.92H507v39.85h-4.17v-16.89a1.32 1.32 0 0 0-1.32-1.32H494a1.31 1.31 0 0 0-1.31 1.32v16.89h-4.05z"/><path class="cls-3" d="M534.85 588.14l-6.74-.08c-.39-2.58-.77-5.15-1.16-7.73l-8.2-.07c-.39 2.57-.77 5.13-1.16 7.7h-6.13q3.41-21.24 6.8-42.45l9.79.09q3.39 21.24 6.8 42.54zM519.6 574.5l6.44.06q-1.6-10.75-3.22-21.52l-3.22 21.46z"/><path class="cls-16" d="M529.24 586.75l-1-6.61A1.34 1.34 0 0 0 527 579l-8.22-.07a1.32 1.32 0 0 0-1.31 1.13l-1 6.56H513l6.39-39.82 7.53.07 6.38 39.93zm-6.42-35a1.33 1.33 0 0 0-1.31 1.13l-3.22 21.45a1.39 1.39 0 0 0 .3 1.06 1.33 1.33 0 0 0 1 .46l6.45.06a1.33 1.33 0 0 0 1-.46 1.35 1.35 0 0 0 .31-1.06l-3.23-21.51a1.31 1.31 0 0 0-1.3-1.13z"/><path class="cls-3" d="M567.36 556.08v1.52c0 4.37-1.34 7.12-4.31 8.44 3.58 1.49 5 4.75 5 9.24v3.46c0 6.55-3.46 10-10.15 9.82l-10.51-.22v-42.49l10.09.21c6.9.16 9.88 3.46 9.88 10.02zm-13.3-4v11.23l2.61.05c2.49.06 4-1 4-4.4v-2.36c0-3-1-4.4-3.4-4.45zm0 17.3v13l3.82.08c2.25 0 3.47-1 3.47-4.11v-3.7c0-3.94-1.28-5.19-4.32-5.26z"/><path class="cls-16" d="M557.91 587.24l-9.22-.19V547.2l8.74.18c6 .14 8.61 2.74 8.61 8.7v1.52c0 3.92-1.09 6.15-3.53 7.24a1.32 1.32 0 0 0 0 2.42c2.84 1.18 4.17 3.73 4.17 8v3.46c0 2.84-.7 5-2.08 6.39s-3.51 2.12-6.32 2.12zM554.06 568a1.3 1.3 0 0 0-1.32 1.32v13a1.31 1.31 0 0 0 1.29 1.31l4 .09a4.29 4.29 0 0 0 3.46-1.35 6.08 6.08 0 0 0 1.17-4.08v-3.7c0-4.52-1.68-6.49-5.61-6.58zm0-17.3a1.3 1.3 0 0 0-1.32 1.32v11.23a1.33 1.33 0 0 0 1.29 1.32h2.82a4.91 4.91 0 0 0 3.76-1.36 6 6 0 0 0 1.39-4.36v-2.36c0-3.76-1.58-5.7-4.69-5.77z"/><path class="cls-3" d="M578.91 589.13l-6.87-.21v-42.49l6 .18v26.89l2.43-9.27q2.75-8.68 5.47-17.37l7.35.26v42.49l-6-.21v-29.92q-1.37 5.16-2.74 10.34z"/><path class="cls-16" d="M588.55 588.13v-28.66a1.32 1.32 0 0 0-1.15-1.3h-.18a1.31 1.31 0 0 0-1.27 1l-2.73 10.35-5.3 18.29-4.56-.14v-39.88l3.32.1v25.61a1.32 1.32 0 0 0 1.15 1.31h.17a1.31 1.31 0 0 0 1.27-1l2.43-9.27 5.15-16.34 5.07.18v39.84z"/><path class="cls-3" d="M617.35 574.77v5.65c0 6.79-3.4 10.52-10 10.24s-10-4.29-10-11.09v-22.09c0-6.8 3.41-10.56 10-10.28s10 4.33 10 11.12v4.13l-6.31-.29v-4.55c0-3-1.34-4.24-3.47-4.33s-3.46 1-3.46 4v22.94c0 3 1.34 4.18 3.46 4.27s3.47-.94 3.47-4v-6.07z"/><path class="cls-16" d="M608.07 589.35h-.62c-5.77-.24-8.7-3.53-8.7-9.77v-22.1c0-6 2.69-9 8-9h.61c5.77.24 8.69 3.54 8.69 9.8v2.75l-3.67-.17v-3.29c0-4.74-3-5.58-4.73-5.65h-.29c-1.7 0-4.54.7-4.55 5.37v22.94c0 4.69 3 5.52 4.73 5.59h.3a4.2 4.2 0 0 0 3.34-1.35 5.71 5.71 0 0 0 1.2-4v-4.7l3.62.23v4.39c0 5.96-2.65 8.96-7.93 8.96z"/><path class="cls-3" d="M619.48 548.22q10.32.49 20.64 1.06v6.07l-7-.38v36.42l-6.68-.34v-36.42l-7-.34z"/><path class="cls-16" d="M627.78 589.8v-35.17a1.33 1.33 0 0 0-1.25-1.32l-5.73-.31v-3.42q9 .42 18 .92v3.5l-5.66-.31a1.33 1.33 0 0 0-1.32 1.32v35z"/><path class="cls-3" d="M664.64 593.24l-6.74-.43c-.38-2.59-.77-5.18-1.15-7.78l-8.19-.49c-.39 2.55-.77 5.09-1.16 7.64l-6.13-.35q3.4-21 6.8-42.1l9.77.59q3.41 21.47 6.8 42.92zm-15.23-14.42l6.43.39q-1.61-10.85-3.22-21.68z"/><path class="cls-16" d="M659.05 591.56l-1-6.71a1.32 1.32 0 0 0-1.22-1.13l-8.2-.5h-.07a1.32 1.32 0 0 0-1.31 1.12l-1 6.45-3.47-.19 6.37-39.48 7.52.45 6.38 40.25zm-6.43-35.35a1.32 1.32 0 0 0-1.3 1.12l-3.22 21.3a1.35 1.35 0 0 0 .28 1 1.31 1.31 0 0 0 1 .49l6.51.39a1.33 1.33 0 0 0 1-.43 1.3 1.3 0 0 0 .33-1.08l-3.21-21.69a1.32 1.32 0 0 0-1.3-1.12z"/><path class="cls-3" d="M687.69 562.13v1.52c0 4.37-1.33 7.06-4.31 8.24 3.58 1.65 5 5 5 9.47v3.46c0 6.56-3.46 9.81-10.13 9.34l-10.49-.72V551l10.06.68c6.9.45 9.87 3.89 9.87 10.45zm-13.28-4.65v11.23l2.61.18c2.48.17 4-.81 4-4.21v-2.37c0-3-1-4.44-3.4-4.61zm0 17.3v13.05l3.82.26c2.24.16 3.46-.78 3.46-3.94v-3.7c0-4-1.28-5.26-4.31-5.47z"/><path class="cls-16" d="M679.46 592.89h-1.14l-9.27-.64v-39.88l8.66.59c6.07.43 8.66 3.17 8.66 9.17v1.52c0 5-1.86 6.37-3.47 7a1.33 1.33 0 0 0-.07 2.43c2.87 1.32 4.21 3.95 4.21 8.27v3.46c-.04 5.44-2.48 8.08-7.58 8.08zm-5.05-19.43a1.29 1.29 0 0 0-.9.35 1.31 1.31 0 0 0-.42 1v13.06a1.31 1.31 0 0 0 1.23 1.31l3.82.27h.54a4 4 0 0 0 3.26-1.37 6 6 0 0 0 1.06-3.91v-3.7c0-4.48-1.65-6.51-5.53-6.78zm0-17.3a1.29 1.29 0 0 0-.9.35 1.32 1.32 0 0 0-.42 1v11.23a1.31 1.31 0 0 0 1.23 1.31l2.6.18h.62a4.53 4.53 0 0 0 3.53-1.36 6 6 0 0 0 1.27-4.18v-2.37c0-3.72-1.56-5.71-4.63-5.93z"/><path class="cls-3" d="M701.09 578.94c-.68 1.24-1.37 2.48-2.06 3.72v13.05c-2.22-.17-4.44-.35-6.67-.51v-42.49l6.67.51v18.51l8.73-17.81 6.67.56-9.28 18.17q4.65 12.15 9.28 24.32l-6.85-.57q-3.24-8.74-6.49-17.46z"/><path class="cls-16" d="M708.52 595.15l-6.19-16.67a1.33 1.33 0 0 0-1.14-.86h-.1a1.32 1.32 0 0 0-1.15.68l-2.06 3.7a1.33 1.33 0 0 0-.17.64v11.62l-4-.31v-39.82l4 .31v17.29a1.33 1.33 0 0 0 1 1.29h.3a1.33 1.33 0 0 0 1.19-.74q4.15-8.5 8.33-17l3.81.32q-4.18 8.21-8.38 16.42a1.33 1.33 0 0 0-.06 1.07l8.53 22.36z"/><path class="cls-3" d="M739 599.17l-6.73-.62c-.38-2.61-.76-5.21-1.15-7.82L723 590c-.39 2.53-.77 5.07-1.16 7.61l-6.12-.53q3.4-21 6.79-41.9l9.75.87 6.74 43.12zm-15.21-14.86l6.42.57-3.21-21.77z"/><path class="cls-16" d="M733.46 597.33l-1-6.79a1.32 1.32 0 0 0-1.19-1.12l-8.18-.74H723a1.32 1.32 0 0 0-1.3 1.12l-1 6.38-3.47-.3 6.37-39.28 7.5.67 6.36 40.43zM727 561.79a1.31 1.31 0 0 0-1.3 1.12l-3.21 21.2a1.32 1.32 0 0 0 1.19 1.51l6.41.58h.12a1.32 1.32 0 0 0 1.31-1.51l-3.21-21.78a1.32 1.32 0 0 0-1.3-1.12z"/><path class="cls-3" d="M375.31 269.33a49.64 49.64 0 0 1-46.11.26l-.56-.26-.18.38-1.86 3.84s2.79 4.69 6.83 5.3a79.32 79.32 0 0 0 10.78.45l1.14-2.22a49 49 0 0 0 6.63.53c1.73 0 3.39-.15 4.6-.27s2-.26 2-.26l1.15 2.22a79.15 79.15 0 0 0 10.77-.45c4-.61 6.84-5.3 6.84-5.3zm-31.85 8.73s-8.85-.36-10.86-1.56a23.14 23.14 0 0 1-3.4-2.45l.93-1.89a43.57 43.57 0 0 0 14.29 4.06zm27.87-1.56c-2 1.2-10.85 1.56-10.85 1.56l-1-1.84a43.57 43.57 0 0 0 14.29-4.06l.93 1.89a22.93 22.93 0 0 1-3.37 2.45z"/><path class="cls-3" d="M383.6 255.59s-1.15-18.06-2.22-19.72-1.91-6.29-1.91-6.29A39.57 39.57 0 0 0 352 218.7a40.23 40.23 0 0 0-20.26 5.44 33.66 33.66 0 0 0-7.23 5.44s-.87 4.64-1.92 6.29-2.22 19.72-2.22 19.72l-1 1.32v20.87l2 3s1.49 10.88 3 15.51 9.94 20.26 20.54 24.64c0 0 3.81.38 7.12.38 1.65 0 3.44-.09 4.81-.19s2.31-.19 2.31-.19c10.6-4.38 19.05-20 20.54-24.64s3-15.51 3-15.51l2-3v-20.87zm-19.79 60.83l-3.67-2.29-8.17.11-8.16-.11-3.68 2.29a38.32 38.32 0 0 1-6.59-6.86l1-3.18 3.82 4.47 3.81-3.23 9.82-.21 9.82.21 3.81 3.23 3.82-4.47 1 3.18a38.32 38.32 0 0 1-6.63 6.86zM381 275.51c0 1.77-1.32 6.17-3 9.16s-9.16 14.95-8.95 20.7l-2.78 3.25-3-2.64-11.27-.21-11.36.21-3 2.64-2.77-3.25c.21-5.75-7.29-17.72-8.95-20.7s-3-7.39-3-9.16a33.53 33.53 0 0 1 1-5.07c.79-3.07 1.73-6.32 1.73-6.32l-1.11-26.49c3.74-8.5 16.45-9.82 16.45-9.82s2.52 19.09 3.19 22.52 1.77 3.53 7.73 3.53c3 0 4.74 0 5.85-.48s1.56-1.35 1.89-3c.65-3.43 3.19-22.52 3.19-22.52s12.7 1.32 16.45 9.82L378.28 263v1.13s2.72 9.61 2.72 11.38zm305.63-56.81l-17.43 21.12a33.15 33.15 0 0 0-16.36-4.07 32.36 32.36 0 0 0-16.26 4.13l-17.06-21.18v53.05c-.08 1.39 0 2.8 0 4.27 0 20.29 8.28 37.72 20.13 45.21-6.67-8.6-12.45-17.94-9.77-27 15.34-.61 17-.7 17-.7l5.42 4.42 6.66-4.42c11.15.08 16.41.32 16.41.32.69 5.68-.29 18.14-9.83 27.49 11.93-7.45 20.38-24.92 20.38-45.31 0-1.43-.07-2.81-.07-4.15l.07-4.14zm-41.3 59.82c-1.6.64-5.18 2.76-6.85 3.27s-4 .83-4.86 0-3.78-3.58-4.37-4.22-1-5.77 2.44-5.51 12.81 4.1 13.39 4.29 1.86 1.53.25 2.17zm30.61-.95c-.58.64-3.46 3.39-4.36 4.22s-3.2.51-4.87 0-5.25-2.63-6.84-3.27-.33-2 .24-2.17 9.93-4 13.39-4.29 3.02 4.86 2.44 5.51zm-215.13-44.15v79h79v-79zm15.94 15.8h15.67v15.68h-15.67zm39.45 47.28h-8v-7.76h-15.64v7.76h-8v-23.57h8V265h15.67v7.9h8zm7.8-31.6h-15.64v-15.68H524z"/><path class="cls-17" d="M378.28 263v1.13s2.76 9.62 2.76 11.39-1.32 6.17-3 9.16-9.16 14.95-8.95 20.7l-2.78 3.25-3-2.64-11.31-.22-11.36.21-3 2.64-2.77-3.25c.21-5.75-7.29-17.72-8.95-20.7s-3-7.39-3-9.16a33.53 33.53 0 0 1 1-5.07c-1.54.24-3.09.51-4.63.77v6.57l2 3s1.49 10.88 3 15.51 9.94 20.26 20.54 24.64c0 0 3.81.38 7.12.38 1.65 0 3.44-.09 4.81-.19s2.31-.19 2.31-.19c10.6-4.38 19.05-20 20.54-24.64s3-15.51 3-15.51l2-3v-15.45c-2.12.21-4.22.43-6.33.67zm-14.47 53.43l-3.67-2.29-8.17.11-8.16-.11-3.68 2.29a38.32 38.32 0 0 1-6.59-6.86l1-3.18 3.82 4.47 3.81-3.23 9.82-.21 9.82.21 3.81 3.23 3.82-4.47 1 3.18a38.32 38.32 0 0 1-6.63 6.85zM524 263v1.91h-15.64v-2c-5.26 0-10.57.07-15.94.15v1.81h-15.67v-1.42q-7.9.24-15.94.62v48.35h79v-49.16c-5.17-.12-10.44-.26-15.81-.26zm-7.8 33.5h-8v-7.76h-15.64v7.76h-8v-23.57h8V265h15.67v7.9h8zm169.67-28.77c-19.42-2.6-41.74-5.06-66.36-6.86v10.88c-.08 1.39 0 2.8 0 4.27 0 20.29 8.28 37.72 20.13 45.21-6.67-8.6-12.45-17.94-9.77-27 15.34-.61 17-.7 17-.7l5.42 4.42 6.66-4.42c11.15.08 16.41.32 16.41.32.69 5.68-.29 18.14-9.83 27.49 11.93-7.45 20.38-24.92 20.38-45.31 0-1.43-.07-2.81-.07-4.15zm-40.54 10.79c-1.6.64-5.18 2.76-6.85 3.27s-4 .83-4.86 0-3.78-3.58-4.37-4.22-1-5.77 2.44-5.51 12.81 4.1 13.39 4.29 1.86 1.53.25 2.17zm30.61-.95c-.58.64-3.46 3.39-4.36 4.22s-3.2.51-4.87 0-5.25-2.63-6.84-3.27-.33-2 .24-2.17 9.93-4 13.39-4.29 3.02 4.86 2.44 5.51z"/><path class="cls-16" d="M380.48 648.14l5.24-.39c.8-.06 1.2.61 1.2 2v.59a9.27 9.27 0 0 1-.28 1.52c.14.7.29 1.39.43 2.09v.15a35.53 35.53 0 0 1-3.74.73v.28l3.59-.26.91.09a3.89 3.89 0 0 1 1.51-.7h.15a3.2 3.2 0 0 1 1.2 1.42v.44a2.26 2.26 0 0 0-.46 1.4c.27 1.58.58 2.35.91 2.33q4.82-.18 6.31-.27a.16.16 0 0 1 .16-.17 1.33 1.33 0 0 0 .43 1l1.07-.22 2.24-.14a1.76 1.76 0 0 0 .76-.18l.9.07h.45c3-.19 4.51.08 4.51.79l.76.11 2.24-.13c.76.08 1.16.25 1.2.52v15a2 2 0 0 1-1.5 1.13l-5.71.34c-2.3.14-3.46-.5-3.46-1.9-.1 0-.15 0-.15-.13V667l-.15-1h-2.7l-.15.31q0 6.47-1.35 6.56l-1.35.09a15.29 15.29 0 0 0-2 .26c-1.7.11-2.55-.12-2.55-.72-.3-1.93-.61-3.86-.91-5.79a23 23 0 0 1-2.4-.14c-.41 0-.82 1.41-1.19 4.14l-1.5 1.17c-1.92.14-2.88-.09-2.88-.7a5.23 5.23 0 0 0-.74-1.6c.05-.25.1-.5.16-.75 0-2.44-.5-3.85-1.51-4.24-2 .15-3-.17-3-1-.15-2.14-.3-4.29-.46-6.43 0-.8 1.11-1.28 3.31-1.45a12.74 12.74 0 0 1 3.16-1.44V654H383c-.93.07-2.24.21-3.92.45a3.75 3.75 0 0 1-2.4-.71c0-3.41.26-5.14.77-5.18 1.13-.22 2.13-.35 3.03-.42zm-2.11 17.6l1-.08c.79-.06 1.34 1 1.66 3q.3 0 .3.72a1.27 1.27 0 0 0-.15.47c.38 1.87.82 2.79 1.35 2.75 3.2 0 4.81.22 4.81.72l.15.73-.3.17h-.44a25 25 0 0 0-2.72.35 3.17 3.17 0 0 1-2.55-1.46l-.3-.13-.15.31q.69 2.07 1.35 2c3.2-.24 4.8 0 4.81.7a5.38 5.38 0 0 1 .3 1.33c-.56 1.14-1.12 1.73-1.65 1.77l-3.75.28c-3.1.23-4.65 0-4.65-.69a17.52 17.52 0 0 1-.31-2.85v-8.71c.04-.83.44-1.31 1.24-1.38zm24.48-12.68c.29 0 .9 1.8 1.81 5.44a10.57 10.57 0 0 1-3.9.7h-.15c-2 .07-3-.11-3-.55.14 0 .29-.17.43-.48v-.31a12.86 12.86 0 0 0-.13-1.64q.58-2.9 1.35-2.94zm-1-6.25c3.1-.19 6.21-.38 9.32-.55.42 0 .67 1 .76 3-.15 6.32-.5 9.5-1.07 9.53-.1.31-.4.48-.89.51l-1.05.06-2.87-.9q-1.45-7-3.16-6.86c-1 .06-1.5-.21-1.5-.82.1-.36.21-.71.31-1.07 0-.17-.05-1.07-.16-2.69a3.07 3.07 0 0 0 .27-.21zm13.67-.73c2.72-.15 5.43-.29 8.15-.42.81 0 1.22.8 1.22 2.51v2a7.38 7.38 0 0 0 .15 1.34c0 .66-.46 1.08-1.37 1.27l-1.51.07c-.89.53-1.35.85-1.35 1v.31a13.31 13.31 0 0 0 2-.25c1.31.14 2 .35 2 .64v2.88q0 6.36.16 18.24c-.27.81-.72 1.23-1.38 1.26h-.89c-.62 0-1.58-.88-2.87-2.73-.21 0-.31.16-.31.32v.61a3.46 3.46 0 0 0 .31 1.64l-.46.33-3.92.2c-.29 0-.64-.72-1-2.21q.15-14.51.15-19.15l.15-1.35-.15-.3c.1-1.86.15-3.43.15-4.69v-3c-.02-.33.25-.49.77-.52zm13.29-.75l7.86-.33c.81 0 1.22 1.06 1.22 3.28.1 0 .2.34.3 1-.13.62-.88 1-2.26 1v.45a26.42 26.42 0 0 0 5.14.57 19.54 19.54 0 0 1 .74 3.43 3.89 3.89 0 0 0-.59 1.55v.74l2.11-.08q2.12-.08 2.11-4.15c.05-.46.1-.92.16-1.37h.3a1.39 1.39 0 0 0 1.1.58h1.37a15.18 15.18 0 0 0 1.65.25h.46c1.06 0 2.73 0 5 .16v-.16a9 9 0 0 0-5-.91c-.36-.69-.72-1-1.07-1s-.75.08-1.65.21a5 5 0 0 1-2.88-4.58c.39-.83.9-1.25 1.53-1.28l8.3-.26q.63 0 .91 5.88c.1 0 .21.54.31 1.64 0 .11-.05.16-.16.16.06.25.1.51.16.76V657c0 .11.05.15.15.15l-.15.31v.92c0 .1.05.15.15.14l-.15.29v.61a1.23 1.23 0 0 0 .15.61 1.2 1.2 0 0 0-.15.61v.15a1.15 1.15 0 0 0 .15.59 1.28 1.28 0 0 0-.15.61v.15a1.17 1.17 0 0 0 .15.61 1.23 1.23 0 0 0-.15.61 1.18 1.18 0 0 0 .15.59 1.28 1.28 0 0 0-.15.61v.46a.13.13 0 0 0 .15.15l-.15.31v5.59a12.26 12.26 0 0 1-.16 1.66c.06.1.1.2.16.3s-.11.21-.16.31c.11.71.16 1.11.16 1.19-.15.72-.35 1.08-.61 1.09h-.9c-.91 0-1.37-.71-1.37-2.22-.35-.9-.6-1.35-.76-1.35h-.31a.75.75 0 0 1 0 .15 10 10 0 0 1 .31 2c-.07 1-.27 1.52-.59 1.53l-5.6.18c-.71 0-1.07-.62-1.06-1.92.2-.42.4-.83.61-1.25-.15-1.25-.31-2.5-.46-3.75 0-.61.36-.93 1.07-.95a5 5 0 0 1 1.8.7l2.27-.53c1.41.22 2.11.9 2.11 2 .31 1.44.46 2.19.46 2.25h.3c.06-.25.11-.5.16-.74v-2.44c0-1.16-1-1.84-3-2l-2.72.24a24.7 24.7 0 0 0-2.88-1.1c-1 .14-1.76.21-2.26.23q-.46-.47-1.05-3.9c0-.33.55-.66 1.66-1v-.13c0-.36-1.27-.62-3.79-.77h-.74c-.21 0-.31.16-.31.47a9.21 9.21 0 0 0 .15 1.65c-.14 2.82-.45 4.24-.91 4.26a27.4 27.4 0 0 1-5.29-1l-.92.19c0-.16-.2-.3-.59-.43a16.26 16.26 0 0 0-2.13.4 2 2 0 0 1-1.35-.7l.15-1v-8.62a13.79 13.79 0 0 1 .15-1.66l-.15-.3c.1-1.71.16-3 .15-3.95v-3.49c.06-.83.47-1.3 1.28-1.34zm1.82 21.39c0 .6.66.87 2 .81.19.6 1.36.86 3.49.77q2.26 1.51 2.26 6h.16c-.24 1.31-.69 2-1.38 2l-1.8.07a3.89 3.89 0 0 1-1.66-1h-1.07c-.14.72-.34 1.08-.61 1.09l-3.61.16a1.2 1.2 0 0 1-1.22-.7 4.77 4.77 0 0 0 .46-1.52q-.15-5.2-.16-6.36c-.03-.25 1.02-.7 3.14-1.32zm32.22 1.35a4.63 4.63 0 0 1 .43 1.19l-.15.3c.1 1.35.16 2.35.15 3h.16l-.16.31v.76a1.18 1.18 0 0 0 .16.61c0 .46-.71.88-2.12 1.25l-2.42.06c-.47 0-.82-2.24-1-6.77a2.69 2.69 0 0 1 1.2-.49l3-.07zm-3.18-23.77q11.46-.28 22.94-.42.21 0 .45.45v1.35a1.41 1.41 0 0 0 .16.76c0 2.41-.61 3.62-1.81 3.64h-.77a85.3 85.3 0 0 1-9.06-.17 3.93 3.93 0 0 1-1 .17L469 650c0 .73-.25 2.79-.76 6.2l.31.15h.61c3.81-.07 5.73.1 5.73.51l.15.61-.15.74a2.21 2.21 0 0 0 .89 2.1l.3-.16-.15-.74c0-1.91.6-2.88 1.81-2.9.85 0 2.37-.08 4.53-.21a1.05 1.05 0 0 1 .15.46c0 .84.05 2.45.16 4.83-.38.8-.88 1.21-1.51 1.22h-3.92c-.51 0-1-.44-1.37-1.33h-.15c0 .9-.35 1.36-1.05 1.37L469 663c-.1 1.68-.3 3.5-.61 5.43a1.31 1.31 0 0 1 .16.61q5.88-.12 11.76-.19.3 0 .3.3v.3l-.76.17h-2.24a1.45 1.45 0 0 0-.76.9.14.14 0 0 1 .15.15l1.5-.17h2.11c.4 0 1-.51 1.81-1.53h.16q.3 0 .3.3v1.66c0 .71 0 1.81.15 3.31a3.38 3.38 0 0 1-2.72.94h-2c-1 0-1.5-1.23-1.5-3.75v-.61h-.16c-.43 0-.69 1.42-.76 4.23l-8.45.15c-1.31 0-2.51-1.2-3.62-3.68a1.15 1.15 0 0 1 .16-.62 10.71 10.71 0 0 1-.16-1.65v-1.65c0-.26-.2-.41-.61-.45-.8 0-1.85.1-3.16.23-1.2-.17-1.8-.41-1.8-.71v-3.17c0-.1-.05-.15-.16-.15 0-.1.11-.2.16-.31v-.15a4.32 4.32 0 0 0-.16-1.19c0-.21 0-.31.16-.31-.1-1-.16-1.75-.16-2.26v-4.07a1.17 1.17 0 0 0-.15-.61q0-.76 5.58-1.34c0-.17.25-.28.76-.32l.31.15c.39-.17.59-.33.58-.47v-.16l-2.85-.39a9.77 9.77 0 0 1-1.66.5c-1.61 0-2.41-.69-2.41-2.2 0-1.21-.05-1.81-.16-1.81 0-.1.11-.2.16-.31-.1-1.2-.16-2.1-.16-2.71s.58-1.06 1.58-1.09zm50.88-.61a1.24 1.24 0 0 0 .46.15v.9a3.18 3.18 0 0 1-.89 1.49c0 2.5-.56 3.75-1.66 3.74h-10.95c-.7 0-1.05 1.45-1.05 4.36l-.15.61h-.46c-.63-.61-1.07-.91-1.35-.91a21.43 21.43 0 0 1-3.6.62l-2.54-.29a1.6 1.6 0 0 0 0 .31c0 .3.89.54 2.7.72h3c.76 0 1.61.8 2.55 2.41a98.79 98.79 0 0 1-1.07 10 1.47 1.47 0 0 0 1.36 1.06h.15c2.84 0 6.8 0 11.87-.13.26 0 .66.41 1.2 1.21-.1 1.17-.15 2-.15 2.54v1.2c0 .9-.56 1.35-1.66 1.34h-.74c-2.61 0-3.92-.62-3.92-1.82v-1.5c0-.14-.15-.28-.44-.44h-.3a12.09 12.09 0 0 1-.61 2.55v1a1.18 1.18 0 0 1-.59.15h-5.25c-.45 0-1.4-.74-2.85-2.23a20.93 20.93 0 0 1-2.86.91q-.39 1.2-1.35 1.2h-2.24a1.7 1.7 0 0 1-1.07-.45q-.15-3-.28-12c.39-1.11.84-1.67 1.35-1.67l.89.15.15-.29v-.3q-2.55-.29-2.55-.9a7.11 7.11 0 0 1-.15-1.19q-.15-10.07-.15-11.85c0-.07-.05-.37-.15-.89.33-1.11.83-1.66 1.5-1.67q7.13-.06 14.25-.05c2.25.08 5.45.03 9.6-.04zm3.84-.04l.76.16H518c.16 0 .66.63 1.51 1.83v4.05c-.07 2.31-.28 3.46-.61 3.45a1.09 1.09 0 0 1 .15.46 11.09 11.09 0 0 0-.3 1.5c0 1.51.4 2.52 1.22 3h.43c1.31-.29 2-.43 2.11-.43a3.24 3.24 0 0 0 1.35.78c0-.1 0-.15.16-.15a4.05 4.05 0 0 0-1.2-1.67 17.13 17.13 0 0 1-2.55.27l-.61-.47a29.07 29.07 0 0 0 .74-6.15 1.12 1.12 0 0 0-.13-.46c.09-1.09.13-2 .13-2.85v-1.5a1.68 1.68 0 0 0-.43-1v-.31c0-.2.13-.3.3-.3q8.41.11 16.84.31c.8 0 1.2.78 1.2 2.27q.15 0 .3 1.08c-.15 1.2-.3 2.4-.46 3.6a15.14 15.14 0 0 0 .77 2.57c0 1.69-.55 2.53-1.66 2.5a2.58 2.58 0 0 0-2.85 1.9 1.43 1.43 0 0 1-.61.14h-1.51a1.66 1.66 0 0 0-1.35.71l2.7.51 4.06.09.45.32-.15 1v.14a19.11 19.11 0 0 0 .61 2.44 48.67 48.67 0 0 0-.76 7.18v.38c.3 1.31.46 2 .46 2.12v.74c0 .83-.56 1.37-1.66 1.62l-2.85-.07-.77-.16v-1.55c0-.14-.14-.3-.43-.46h-.15c-.21 1.41-.6 2.1-1.2 2.09h-2.27c-.64 0-1-.42-1.19-1.22l.15-.3v-.31a9.46 9.46 0 0 0-.76-3c.14-3 .49-4.5 1-4.49q3.75-.23 6.93-.62V665l-6.93-.14c-.13 0-.43-.51-.89-1.52a1.12 1.12 0 0 1-.61-.31l-2.86-.05a28.18 28.18 0 0 0-.3 2.85 7.93 7.93 0 0 1 .3 1.35c-.42.4-2.16.58-5.25.54a2.08 2.08 0 0 0-1.22.88c.11 0 .16.05.16.15a28.76 28.76 0 0 1 4.07-.25c1.7.15 2.55.47 2.55 1 0 3.7-.45 5.55-1.35 5.53l-6.28-.03a1.28 1.28 0 0 1-1.2-.76c1.21-.94 1.81-1.69 1.81-2.24v-3.16H517c-.47.24-.82 1.39-1.07 3.45-.59 0-1.34.78-2.24 2.37h-.31q.46-10 .61-10.66a8.21 8.21 0 0 1-.76-2.71c0-4.72.75-7.07 2.27-7.06a9.83 9.83 0 0 1 2.85-.56l.44-.45a1.07 1.07 0 0 0-.44-.15 6.8 6.8 0 0 0-1.2.13c-2.31-.2-3.46-.46-3.46-.79.18-5.86.42-8.76.7-8.76zm9.78 6.59l-.17.76v.91a3.17 3.17 0 0 0 .76 1.52c-.1.9-.2 1.8-.31 2.69l.31.16h.74l1.81.19a10.3 10.3 0 0 0 .46-3c0-.21-.11-.41-.16-.61a8 8 0 0 0 .16-1.5v-.44c0-.16-.21-.37-.61-.62zm18.38-6.12c7.85.32 13.73.58 17.65.73l6.23.25.76.19v2.13c-.05.6-.1 1.2-.16 1.8h.16a1.05 1.05 0 0 0-.16.45c0 3.25-.1 7.15-.3 11.7h.15a1 1 0 0 0-.15.45q0 1.32-.15 7.29a.94.94 0 0 1-1.07.71 2.22 2.22 0 0 1-1.37-.81q-1.39-.06-5.77-.53a7 7 0 0 1-2 .69 3 3 0 0 0-.91-2.48l-2-.06-.89-.19c-.29 0-.55.34-.77 1 .21 3.15.31 5.68.31 7.61a2.08 2.08 0 0 1-1.37.72l-2-.06a2.22 2.22 0 0 1-1.37-.81l-.91.74-4.71-.13c-.41-.15-.61-.61-.61-1.39.41-4.22.66-8 .76-11.52l-.15-.31.15-.91-.15-.31a1.17 1.17 0 0 0 .15-.61 1.13 1.13 0 0 0-.15-.61 1.17 1.17 0 0 0 .15-.61V659c0-.1 0-.15-.15-.16l.15-.3v-9.12a12.14 12.14 0 0 1 .16-1.65c-.05-.11-.11-.21-.16-.31a4.07 4.07 0 0 0 .16-1.06c-.05-.11-.11-.21-.16-.31a1.11 1.11 0 0 0 .16-.61V645a.14.14 0 0 0-.16-.15c.17-.44.38-.69.65-.73zm5.47 6.23l-.15 1.52v.61c0 .74.15 1.16.46 1.24l3.5.11.31.16c0 1.22-.41 1.82-1.22 1.79s-1.07.42-1.07 1.32a12.43 12.43 0 0 1-.3 1.82l.45.77v1.68c0 .2.13.31.31.31l1.37.05c.2-.07.51-.77.92-2.1l1.65-.25c1.62.42 2.44 1 2.44 1.61s-.15.83-.15.91l.3.16 1.53.06c.3 0 .66-1.4 1.06-4.23a4.09 4.09 0 0 1-.91-2.15h-.15l-1.53.1a7.25 7.25 0 0 1-.61-1.54l.46-.29h4.12a.92.92 0 0 1 .13-.45c0-.1-.05-.16-.13-.16 0-.25.08-.51.13-.76V651l-4-.14c-.16 0-.61.94-1.37 2.84l-.76.13-2.57-.09a11.63 11.63 0 0 0 .31-2.73 1 1 0 0 1-.16-.46zm10.5 18.91c3.34.26 5 .74 5 1.42a3.58 3.58 0 0 1 2.9 1.49c0 2.83-.82 4.21-2.44 4.14l-7.15-.27a1.54 1.54 0 0 1-1.37-1.12q.72-5.28 1.22-5.27a8.12 8.12 0 0 0 1.84-.39zm12.59-23.84q11.37.51 22.75 1.19c.61 0 .91.46.91 1.25a7.79 7.79 0 0 0 .9 2.63c-.22 1.5-.67 2.22-1.35 2.18l-6-.35c-.15 0-.3-.17-.46-.48v-.9a9 9 0 0 1 .3-1.2c0-.59-.55-.92-1.65-1a7.94 7.94 0 0 0-1.35-2.19c-.16 0-.41.38-.76 1.16.56 0 1.12.76 1.65 2.2.51.13.76.35.76.65-.2 1.09-.65 1.62-1.35 1.58l-3.61-.19-1.07-.21a1.77 1.77 0 0 0-.3.9v4.05a1.6 1.6 0 0 0 1.37 1.6l4.2.22c.51 0 .76.16.76.35h1.81l5.57.32c.24 0 .39.37.46 1.07a9.65 9.65 0 0 0-.46 2.24 8.8 8.8 0 0 0 .61 1.54c-.2 1.19-.65 1.77-1.35 1.73q-3.39-.21-6.79-.39l-.3-.17a18.29 18.29 0 0 1 1.22-4.9v-.15a1.34 1.34 0 0 1-.16-.47h-.3L585 663.9a6.17 6.17 0 0 1-4.53 1.26q-.51 11.58-1.35 11.54l-1.12.3-8.12-.38a1.35 1.35 0 0 1-.76-1.23v-2.73q0-2.72.15-7.37a.14.14 0 0 0-.15-.16l.15-1.06v-6.47a44 44 0 0 1 1.5-12zm27.41 1.46q8.34.51 16.67 1.13l.44.34a14.86 14.86 0 0 0-1.51 3.63c.23 0 .39.29.46.8a9.85 9.85 0 0 0-.3 1.76c.23.73.38 1.1.45 1.1l-.15.73V678a2.37 2.37 0 0 1-2.09 1l-6.92-.48c-.7 0-1.2-.68-1.5-1.91l.15-1v-1.35c0-2.7.86-4 2.57-3.88 0-.13.3-.21.89-.24.89.16 1.44.25 1.66.26l3-.24a3.68 3.68 0 0 0 1.2.39l.15-.29c-.1 0-.36-.28-.76-.8a24 24 0 0 1-3.29.07c-1.93-.34-3.29-.53-4.07-.58h-.28c-.1 0-.15 0-.15.14-.44 0-.69-.6-.77-1.71q.15-10.26.16-13c.3-1.94.7-3.16 1.19-3.67v-.3c-.88-.06-1.58.79-2.09 2.56l-.76.1c-.77 0-2.17-.09-4.2-.11-.54 0-.88-1.11-1-3.23.16-1.95.46-2.88.85-2.85zm18 1.23l2.24.17a20.67 20.67 0 0 1 4.05.62v.43a2.78 2.78 0 0 0 .46 1.26q-1 3.81-2.4 3.71c0 .1 0 .15-.15.14-3.1-.24-4.66-.7-4.66-1.4 0-.07-.15-.79-.45-2.14.48-1.9.78-2.8.93-2.79z"/></g></g></svg>