<svg id="Слой_1" data-name="Слой 1" xmlns="http://www.w3.org/2000/svg" viewBox="0 0 199.84 97.17"><defs><style>.cls-1{mask:url(#mask)}.cls-2{fill:#424242}.cls-3{filter:url(#luminosity-noclip)}</style><filter id="luminosity-noclip" x="8.55" y="-8096.58" width="182.73" height="32766" filterUnits="userSpaceOnUse" color-interpolation-filters="sRGB"><feFlood flood-color="#fff" result="bg"/><feBlend in="SourceGraphic" in2="bg"/></filter></defs><g class="cls-1"><path class="cls-2" d="M186.62 25.75h-61.64l4.67-14.87h61.64l-4.67 14.87zM71.97 46.22H10.33L15 31.36h61.64l-4.67 14.86zm28.89 34.08h1.06l-.25-1.79-.81 1.79zM96.53 78h-.38l-.21 1.26h.43c.65 0 1-.22 1-.66s-.29-.6-.84-.6zm36.07 2.31h-.77l-.2 1.17h.93a.77.77 0 0 0 .59-.18.62.62 0 0 0 .17-.4.53.53 0 0 0-.18-.42.78.78 0 0 0-.54-.17zm-52.37-.01h1.06l-.25-1.79-.81 1.79zm32.91-.16h-.78l-.23 1.36h.9q.81 0 .81-.78c0-.39-.24-.58-.7-.58zM132.93 78h-.71l-.22 1h.71c.57 0 .85-.19.85-.57s-.18-.43-.63-.43z"/><path class="cls-2" d="M14.59 73.08l-6 13.49h173.25l6-13.49zm10 7.74a2 2 0 0 1-.69 1.56 3.06 3.06 0 0 1-2.11.62 2.74 2.74 0 0 1-1.79-.49 2.2 2.2 0 0 1-.6-1.56l1.6-.19a1.23 1.23 0 0 0 .19.62.71.71 0 0 0 .61.24c.59 0 .89-.27.89-.81 0-.24-.06-.4-.18-.47a1 1 0 0 0-.46-.11h-.35l.18-1.08h.31a.65.65 0 0 0 .52-.22.85.85 0 0 0 .17-.51c0-.38-.25-.58-.74-.58a.87.87 0 0 0-.95.8l-1.4-.24a2.31 2.31 0 0 1 2.58-1.91 2.83 2.83 0 0 1 1.74.45 1.41 1.41 0 0 1 .59 1.18 1.48 1.48 0 0 1-1.13 1.41 1.33 1.33 0 0 1 1.02 1.29zm9.62 2h-1.75l.56-3.3c.06-.34.13-.7.22-1.07s.12-.53.15-.68c0 .09-.09.23-.16.42-.15.4-.28.74-.41 1l-1.6 3.61H30.1l-.43-3.61c0-.32-.06-.65-.08-1v-.5c-.09.86-.18 1.6-.29 2.22l-.48 2.91h-1.44l1-6.2h2.49l.34 2.74a3.71 3.71 0 0 0 .07.48 2.78 2.78 0 0 1 .19-.48l1.22-2.74h2.52zM40.55 78h-2.66l-.16 1H40l-.23 1.34h-2.26l-.19 1.1h2.78l-.24 1.43h-4.57l1-6.2h4.46zm2.65 4.85h-1.8l.8-4.79h-1.33l.25-1.43h4.49l-.24 1.43H44zm5.06 0l-.17-1.27h-1.66l-.58 1.27h-1.54l2.87-6.2h2l1 6.2zM59.59 81a5 5 0 0 1-.83 1.24 2.63 2.63 0 0 1-.68.42 2.92 2.92 0 0 1-1.19.19h-2.71l-.69-4c0 .12-.24.59-.59 1.41l-1.11 2.59h-1.51l2.79-6.2h1.79L56 82.59l.19-1.09h.58a2.31 2.31 0 0 0 .7-.1 1 1 0 0 0 .5-.46l-1.75-4.29h2l.78 2.47 1.34-2.47H62zM69 81a1.8 1.8 0 0 1-.49 1.26 2.06 2.06 0 0 1-1.62.55h-3.38l1-6.2h2.59a4.55 4.55 0 0 1 1.15.12 1.49 1.49 0 0 1 .75.51 1.44 1.44 0 0 1 .3.91 1.36 1.36 0 0 1-.36 1 1.76 1.76 0 0 1-1 .54A1.35 1.35 0 0 1 69 81zm6.22 1.81l.42-2.49H74l-.42 2.49h-1.8l1-6.2h1.8l-.38 2.28h1.61l.38-2.28h1.8l-1 6.2zm6.35 0l-.17-1.27h-1.66l-.58 1.27h-1.54l2.87-6.2h2l1 6.2zm9.54-.61a2.33 2.33 0 0 1-.68.42 2.86 2.86 0 0 1-1.19.19h-.91l.23-1.35h.59a2.31 2.31 0 0 0 .7-.1 1 1 0 0 0 .49-.46l-1.71-4.21-.22 1.34H87l-.8 4.79h-1.8l.8-4.79h-1.29l.24-1.43h6.4l.77 2.47 1.34-2.47h1.72L92 81a5.28 5.28 0 0 1-.89 1.24zm4.61-1.67l-.38 2.28h-1.8l1-6.2h2.05a6.52 6.52 0 0 1 1 .06 2 2 0 0 1 .69.29 1.68 1.68 0 0 1 .55.63 1.74 1.74 0 0 1 .21.84 2 2 0 0 1-2.19 2.1zm6.48 2.28l-.2-1.23h-1.66l-.58 1.27h-1.51l2.87-6.2h1.95l1 6.2zm5.92 0l-.69-4c0 .12-.24.59-.59 1.41l-1.11 2.59h-1.51l2.79-6.2h1.79l1.21 6.2zm7-.67a2.64 2.64 0 0 1-2.09.67h-2.89l1-6.2h1.76l-.37 2.2h.89a3.66 3.66 0 0 1 1.37.19 1.34 1.34 0 0 1 .66.58 2 2 0 0 1 .22.94 2.44 2.44 0 0 1-.54 1.66zm4.3.67l.42-2.49h-1.61l-.42 2.49H116l1-6.2h1.8l-.38 2.28h1.6l.39-2.28h1.8l-1 6.2zm6.27-1.81a5.36 5.36 0 0 1-.83 1.24 2.63 2.63 0 0 1-.68.42 2.94 2.94 0 0 1-1.2.19h-.9l.22-1.35h.59a2.31 2.31 0 0 0 .7-.1 1 1 0 0 0 .5-.46l-1.75-4.29h2l.76 2.47 1.34-2.47h1.72zm9.41 0a1.8 1.8 0 0 1-.49 1.26 2.07 2.07 0 0 1-1.62.55h-3.38l1-6.2h2.56a4.55 4.55 0 0 1 1.15.12 1.49 1.49 0 0 1 .75.51 1.44 1.44 0 0 1 .3.91 1.36 1.36 0 0 1-.36 1 1.76 1.76 0 0 1-1 .54A1.35 1.35 0 0 1 135.1 81zm.48 1.81l1-6.2h4.46l-.19 1.39h-2.66l-.19 1h2.24l-.24 1.32h-2.23l-.19 1.1h2.78l-.24 1.43zm8.57 0l-.69-4c0 .12-.24.59-.59 1.41l-1.11 2.59h-1.51l2.78-6.2h1.8l1.21 6.2zm7.22 0h-1.76l.4-2.38c.07-.4.17-.87.31-1.42a16.91 16.91 0 0 1-1 1.56L148 82.3l-.09.55h-1.75l1-6.2H149l-.41 2.42c-.06.36-.16.83-.3 1.39.37-.59.71-1.1 1-1.52l1.27-1.71.1-.58h1.76zm6.1 0h-1.8l.33-2.21a2.64 2.64 0 0 1-1.49.48 2 2 0 0 1-1.17-.33 1.23 1.23 0 0 1-.46-1.06 6.88 6.88 0 0 1 .11-.92l.36-2.12h1.79l-.35 2.11a4 4 0 0 0-.07.57c0 .25.19.37.56.37a2.57 2.57 0 0 0 .9-.18l.49-2.87h1.8zm6.27 0H162l.4-2.38c.07-.4.17-.87.31-1.42a16.91 16.91 0 0 1-1 1.56l-1.27 1.69-.09.55h-1.76l1-6.2h1.76l-.41 2.42c-.06.36-.16.83-.3 1.39.37-.59.7-1.1 1-1.52l1.27-1.71.1-.58h1.76zm4.49 0l.42-2.49H167l-.42 2.49h-1.8l1-6.2h1.8l-.38 2.28h1.61l.38-2.28h1.8l-1 6.2zm6.26-1.81a5.36 5.36 0 0 1-.83 1.24 2.63 2.63 0 0 1-.68.42 2.94 2.94 0 0 1-1.2.19h-.9l.22-1.35h.59a2.31 2.31 0 0 0 .7-.1 1 1 0 0 0 .5-.46l-1.75-4.29h2l.76 2.47 1.34-2.47h1.72z"/><path class="cls-2" d="M66.83 78h-.71l-.18 1h.71c.57 0 .86-.19.86-.57s-.23-.43-.68-.43zm-19.91 2.3h1.06l-.25-1.79-.81 1.79zm19.58.01h-.77l-.2 1.17h.93a.8.8 0 0 0 .6-.18.66.66 0 0 0 .16-.4.53.53 0 0 0-.18-.42.78.78 0 0 0-.54-.17zM12 25.75L14.49 11h6.12a10.35 10.35 0 0 1 2.73.29 3.47 3.47 0 0 1 1.79 1.22 3.43 3.43 0 0 1 .72 2.16 3.34 3.34 0 0 1-.85 2.26 4.3 4.3 0 0 1-2.3 1.27 3.21 3.21 0 0 1 2.44 3.22 4.44 4.44 0 0 1-1.16 3 5 5 0 0 1-3.88 1.3zm4.84-3.28h2.21a1.85 1.85 0 0 0 1.44-.47 1.38 1.38 0 0 0 .39-.94 1.3 1.3 0 0 0-.43-1 1.87 1.87 0 0 0-1.27-.38h-1.86zm1-5.87h1.69c1.36 0 2-.45 2-1.35S21 14.07 20 14.07h-1.74zm12.86 7.83l-.22 1.32h-4.19L28.76 11H33l-1 5.77c-.14.88-.39 2-.73 3.32a54.63 54.63 0 0 1 2.44-3.62l3-4.08L37 11h4.2l-2.48 14.8H34.5l1-5.67c.16-1 .4-2.1.73-3.4q-1.4 2.31-2.46 3.73zM50.56 20l4 .51a8.4 8.4 0 0 1-2.38 4 6 6 0 0 1-4.26 1.55 5.59 5.59 0 0 1-4.43-1.89 7.16 7.16 0 0 1-1.64-4.86 9.7 9.7 0 0 1 2-6.07 6.64 6.64 0 0 1 5.57-2.64 5.51 5.51 0 0 1 5.81 5.77l-4.17.3a4.26 4.26 0 0 0-.42-2 1.45 1.45 0 0 0-1.36-.67c-1.1 0-1.85.81-2.25 2.44a17.22 17.22 0 0 0-.6 3.84c0 1.52.59 2.28 1.78 2.28a1.86 1.86 0 0 0 1.42-.59 4.9 4.9 0 0 0 .93-1.97zm12.85-5.67l-1.92 11.44h-4.3l1.92-11.44h-3.17l.57-3.41h10.72l-.56 3.41zm9.75 8.39h-4l-1.38 3h-3.63L71 11h4.65l2.29 14.8h-4.36zm-.26-3.06l-.59-4.28-2 4.28zm6.26 6.09L81.63 11h6.12a10.35 10.35 0 0 1 2.73.29A3.51 3.51 0 0 1 93 14.62a3.34 3.34 0 0 1-.86 2.31 4.3 4.3 0 0 1-2.3 1.27 3.21 3.21 0 0 1 2.44 3.22 4.4 4.4 0 0 1-1.17 3 5 5 0 0 1-3.87 1.3zM84 22.47h2.22a1.87 1.87 0 0 0 1.41-.47 1.38 1.38 0 0 0 .37-.9 1.3 1.3 0 0 0-.43-1 1.9 1.9 0 0 0-1.28-.38h-1.83zm1-5.87h1.69c1.35 0 2-.45 2-1.35s-.53-1.18-1.61-1.18H85.4zm18.61-.04l2.83 9.19h-4.36l-1.68-6.12-2.24 2.51-.61 3.61h-4.12L95.9 11h4.1l-1.13 6.8a6.39 6.39 0 0 1 1.13-1.73c.47-.55 1.24-1.47 2.3-2.75l2.1-2.37h4.23zm11.92 6.16h-4l-1.38 3h-3.67L113.37 11H118l2.3 14.8h-4.37zm-.26-3.06l-.59-4.28-2 4.28zm-21.91 24.1l-.51 3a5.42 5.42 0 0 1-1.41.21 4.43 4.43 0 0 1-3.14-1.32 6.09 6.09 0 0 1-4 1.35 6.41 6.41 0 0 1-4.07-1.25 4 4 0 0 1-1.59-3.29 4.65 4.65 0 0 1 .7-2.46 6.59 6.59 0 0 1 3.37-2.18 5 5 0 0 1-1-2.64A3.47 3.47 0 0 1 83 32.45a4.83 4.83 0 0 1 3.28-1.06 5.06 5.06 0 0 1 3.28 1A3.17 3.17 0 0 1 90.77 35c0 1.65-1 2.94-3.11 3.89l1.44 2A7.41 7.41 0 0 0 90.29 39q.33-.66.48-.9l3.42.7A12.34 12.34 0 0 1 93 41.1a8 8 0 0 1-1.9 2.16 1.57 1.57 0 0 0 1.32.55zm-9-3.47a1.78 1.78 0 0 0-1.32 1.76 1.68 1.68 0 0 0 .5 1.26 1.81 1.81 0 0 0 1.35.49 2.51 2.51 0 0 0 1.56-.54zm1.7-3.67c1-.32 1.42-.83 1.42-1.54a1 1 0 0 0-.29-.74 1 1 0 0 0-.74-.31 1.11 1.11 0 0 0-.75.26 1 1 0 0 0-.3.78 2.42 2.42 0 0 0 .7 1.55zm19.33 4.56l-.92 5.44h-4.3l2.48-14.81h4.89a14.92 14.92 0 0 1 2.51.15 4.5 4.5 0 0 1 1.62.7 4.13 4.13 0 0 1 1.34 1.5 4.27 4.27 0 0 1 .49 2 4.83 4.83 0 0 1-5.23 5zm.53-3.16h1c1.55 0 2.33-.53 2.33-1.58s-.65-1.42-2-1.42h-.9zM120.47 47a6.67 6.67 0 0 1-4.55-1.72 6.25 6.25 0 0 1-1.92-4.93 9.56 9.56 0 0 1 2.15-6.35 7 7 0 0 1 5.64-2.6 6.13 6.13 0 0 1 4.57 1.82 6.46 6.46 0 0 1 1.79 4.78 9.83 9.83 0 0 1-2.15 6.38 6.84 6.84 0 0 1-5.53 2.62zm0-3.45a1.93 1.93 0 0 0 1.74-1 8.5 8.5 0 0 0 1-2.85 17.11 17.11 0 0 0 .34-2.54 2.49 2.49 0 0 0-.52-1.72 1.79 1.79 0 0 0-1.39-.59q-1.66 0-2.34 2.31a14.82 14.82 0 0 0-.67 4.09c-.01 1.54.62 2.3 1.88 2.3zm8.26 3.07l2.47-14.81h10.67l-.51 3h-6.48l-.46 2.78h2a10.67 10.67 0 0 1 3 .34 3.56 3.56 0 0 1 1.84 1.26 3.63 3.63 0 0 1 .71 2.28 5.79 5.79 0 0 1-.71 2.73 3.82 3.82 0 0 1-2.26 1.9 9.21 9.21 0 0 1-2.94.52zm4.73-3.24h2.31a1.67 1.67 0 0 0 1.3-.45 1.54 1.54 0 0 0 .4-1c0-.86-.66-1.28-2-1.28h-1.56zM150 47a6.63 6.63 0 0 1-4.55-1.72 6.25 6.25 0 0 1-1.93-4.93 9.6 9.6 0 0 1 2.11-6.35 7 7 0 0 1 5.64-2.6 6.15 6.15 0 0 1 4.58 1.82 6.5 6.5 0 0 1 1.79 4.78 9.78 9.78 0 0 1-2.13 6.37A6.81 6.81 0 0 1 150 47zm0-3.45a1.94 1.94 0 0 0 1.75-1 8.52 8.52 0 0 0 .94-2.85 17.6 17.6 0 0 0 .35-2.54 2.44 2.44 0 0 0-.53-1.72 1.78 1.78 0 0 0-1.39-.59c-1.1 0-1.88.77-2.33 2.31a14.82 14.82 0 0 0-.67 4.09c-.01 1.54.62 2.3 1.88 2.3zm16-8.35l-1.92 11.44h-4.3l1.92-11.44h-3.17l.58-3.41h10.72l-.57 3.41zm9.35-3.39l-2.47 14.81h-4.21l2.47-14.81zm.09 14.81l2.48-14.81H184a10.34 10.34 0 0 1 2.74.3 3.48 3.48 0 0 1 2.5 3.38 3.27 3.27 0 0 1-.86 2.3 4.22 4.22 0 0 1-2.29 1.28 3.22 3.22 0 0 1 2.44 3.22 4.4 4.4 0 0 1-1.17 3 5 5 0 0 1-3.88 1.3zm4.84-3.28h2.21a1.85 1.85 0 0 0 1.42-.43 1.41 1.41 0 0 0 .4-.95 1.31 1.31 0 0 0-.43-1 1.85 1.85 0 0 0-1.28-.38h-1.86zm1-5.88H183c1.35 0 2-.44 2-1.34s-.54-1.18-1.61-1.18h-1.7zM20.1 56.07l-1.92 11.44h-4.29l1.91-11.44h-3.16l.57-3.41h10.72l-.56 3.41zm7.9 5.98l-1 5.43h-4.25l2.47-14.8h4.89a14.84 14.84 0 0 1 2.51.15 4.54 4.54 0 0 1 1.63.7A4 4 0 0 1 35.58 55a4.24 4.24 0 0 1 .49 2 4.83 4.83 0 0 1-5.23 5zm.53-3.17h1c1.56 0 2.33-.52 2.33-1.57s-.65-1.42-1.95-1.42H29zM43 64.46h-4l-1.38 3H34l6.85-14.8h4.65l2.3 14.8h-4.37zm-.26-3.06l-.59-4.28-1.94 4.28zm15.41.13H54.3l-1 6H49l2.47-14.8h4.3l-.91 5.45h3.84l.91-5.45h4.3l-2.47 14.8h-4.3zm15.16.23l4 .51a8.37 8.37 0 0 1-2.38 4 6 6 0 0 1-4.25 1.55 5.6 5.6 0 0 1-4.44-1.89A7.21 7.21 0 0 1 64.57 61a9.69 9.69 0 0 1 2-6.06 6.62 6.62 0 0 1 5.57-2.65A5.54 5.54 0 0 1 78 58.1l-4.18.31a4.14 4.14 0 0 0-.42-2 1.45 1.45 0 0 0-1.4-.71c-1.1 0-1.85.81-2.25 2.44a17.06 17.06 0 0 0-.6 3.84c0 1.51.59 2.27 1.78 2.27a1.83 1.83 0 0 0 1.42-.58 4.9 4.9 0 0 0 .96-1.91zM86 52.24h3.61l-.32 1.87A5.56 5.56 0 0 1 93 55.77a5.12 5.12 0 0 1 1.26 3.55 6.8 6.8 0 0 1-1.7 4.53 7.22 7.22 0 0 1-5.29 2.25L87 67.93h-3.6l.26-1.93A5.74 5.74 0 0 1 80 64.45a4.88 4.88 0 0 1-1.3-3.54 6.85 6.85 0 0 1 1.75-4.64 7.17 7.17 0 0 1 5.25-2.21zm-1.86 10.91l1.06-6.29a3.68 3.68 0 0 0-2.55 3.9 2.48 2.48 0 0 0 1.49 2.39zm3.58.18a3.7 3.7 0 0 0 2.54-3.85A2.45 2.45 0 0 0 88.77 57zm14.1 4.53a6.64 6.64 0 0 1-4.55-1.71 6.25 6.25 0 0 1-1.93-4.93 9.56 9.56 0 0 1 2.16-6.32 7 7 0 0 1 5.64-2.6 6.15 6.15 0 0 1 4.57 1.82 6.48 6.48 0 0 1 1.79 4.75 9.79 9.79 0 0 1-2.12 6.37 6.81 6.81 0 0 1-5.56 2.62zm0-3.45a1.92 1.92 0 0 0 1.74-1 8.57 8.57 0 0 0 1-2.84 17.11 17.11 0 0 0 .34-2.54 2.49 2.49 0 0 0-.52-1.72 1.8 1.8 0 0 0-1.4-.59c-1.1 0-1.88.77-2.33 2.31a14.76 14.76 0 0 0-.67 4.09c.02 1.54.62 2.29 1.88 2.29zm13.47-2.36l-.92 5.43h-4.29l2.47-14.8h4.89a14.92 14.92 0 0 1 2.51.15 4.54 4.54 0 0 1 1.63.7 4 4 0 0 1 1.33 1.5 4.24 4.24 0 0 1 .49 2 4.83 4.83 0 0 1-5.23 5zm.53-3.17h1c1.56 0 2.33-.52 2.33-1.57s-.65-1.42-2-1.42h-.9zm26.33-6.2l-2.48 14.8h-4.16l1.32-7.88c.14-.81.31-1.66.53-2.54.17-.71.29-1.26.36-1.63-.09.22-.22.56-.38 1-.36 1-.68 1.76-1 2.43l-3.83 8.61h-2.67l-1-8.61c-.1-.76-.16-1.56-.2-2.43 0-.51-.06-.91-.09-1.19-.2 2-.42 3.81-.67 5.29l-1.15 6.94h-3.36l2.47-14.8h6l.8 6.55a11.37 11.37 0 0 0 .17 1.14 8.85 8.85 0 0 1 .45-1.14l2.93-6.55zm11.57 11.4l-.57 3.4h-10.91l2.47-14.8h10.64l-.54 3.24h-6.35l-.39 2.32h5.34l-.54 3.21h-5.33l-.43 2.63zm6.45-2.03l-.91 5.43H155l2.47-14.8h4.89a14.84 14.84 0 0 1 2.51.15 4.47 4.47 0 0 1 1.63.7 4.05 4.05 0 0 1 1.3 1.47 4.36 4.36 0 0 1 .49 2 4.85 4.85 0 0 1-5.24 5zm.53-3.17h1c1.56 0 2.34-.52 2.34-1.57s-.65-1.42-1.95-1.42h-.9zm14.3-6.2l-2.47 14.8h-4.21l2.47-14.8zm0 14.8l2.48-14.8h6.11a10.34 10.34 0 0 1 2.74.3 3.44 3.44 0 0 1 1.78 1.22 3.39 3.39 0 0 1 .72 2.16 3.32 3.32 0 0 1-.86 2.3 4.21 4.21 0 0 1-2.3 1.28 3.21 3.21 0 0 1 2.44 3.22 4.35 4.35 0 0 1-1.16 3 5 5 0 0 1-3.88 1.3zm4.84-3.27h2.21a1.89 1.89 0 0 0 1.42-.43 1.4 1.4 0 0 0 .39-1 1.27 1.27 0 0 0-.43-1 1.82 1.82 0 0 0-1.27-.39h-1.86zm1-5.88h1.7c1.35 0 2-.45 2-1.34s-.54-1.19-1.61-1.19h-1.7z"/></g></svg>