<svg id="Шар_1" data-name="Шар 1" xmlns="http://www.w3.org/2000/svg" viewBox="0 0 600 600"><path d="M456.61,263l-43.09-94.33c-4.26-9.32-9.08-14.29-18.44-19L347.5,125.73a6.87,6.87,0,0,0-4.84-.5c-33.09,8.87-52.23,8.87-85.32,0a6.87,6.87,0,0,0-4.84.5l-47.58,23.93c-9.36,4.7-14.18,9.67-18.44,19L143.39,263a6.85,6.85,0,0,0,2.6,8.64l51.47,32.17V468.16A6.84,6.84,0,0,0,204.3,475H395.7a6.84,6.84,0,0,0,6.84-6.84V303.79L454,271.62a6.85,6.85,0,0,0,2.6-8.64ZM336.36,140.9c-4.23,14.66-18.93,25.5-36.36,25.5s-32.13-10.84-36.36-25.5C290.3,147.1,309.7,147.1,336.36,140.9Zm66.18,146.77V245.31a6.84,6.84,0,0,0-13.67,0v216H211.13v-216a6.84,6.84,0,0,0-13.67,0v42.36L158.32,263.2l40.59-88.87c3-6.47,5.57-9.15,12.16-12.46l13.92-7c7,19.51,22.25,35.77,42.15,44.4a6.74,6.74,0,0,0,2.72.57,6.84,6.84,0,0,0,2.72-13.11c-17-7.36-29.86-21.38-35.26-38.06l12.58-6.33c5,21.54,25.55,37.73,50.1,37.73s45.11-16.19,50.1-37.73l12.58,6.33c-5.4,16.68-18.28,30.7-35.27,38.06a6.84,6.84,0,0,0,2.73,13.11,6.7,6.7,0,0,0,2.71-.57c19.91-8.63,35.2-24.89,42.16-44.4l13.92,7c6.59,3.31,9.2,6,12.16,12.46l40.59,88.87Z"/><path d="M300,192.38h0a6.84,6.84,0,1,0,6.85,6.83A6.83,6.83,0,0,0,300,192.38Z"/></svg>