<svg id="Шар_1" data-name="Шар 1" xmlns="http://www.w3.org/2000/svg" viewBox="0 0 600 600"><path d="M424.37,217.84l-4.18-47.13a15.92,15.92,0,0,0-15.95-14.61h-3l-2-15.28a18.26,18.26,0,0,0-18-15.82H218.78a18.26,18.26,0,0,0-18.05,15.83l-2,15.27h-3a15.92,15.92,0,0,0-15.95,14.61l-4.18,47.13c-.61,6.78,7.71,5.66,11.93,5.66l25.77,236.29a17.05,17.05,0,0,0,17,15.21H314a5.2,5.2,0,1,0,0-10.4H230.3a6.65,6.65,0,0,1-6.63-5.94l-4.3-39.42H380.63l-4.3,39.42a6.65,6.65,0,0,1-6.62,5.94h-28.8a5.2,5.2,0,0,0,0,10.4h28.8a17,17,0,0,0,17-15.21L412.44,223.5c4.22,0,12.54,1.12,11.93-5.66Zm-42.61,191H218.24l-15.18-139.1H396.94Zm16.31-149.49H201.93L198,223.5H402ZM186.48,213.1l3.68-41.48a5.59,5.59,0,0,1,5.6-5.12h40.33a5.2,5.2,0,0,0,0-10.4H209.21L211,142.18a7.82,7.82,0,0,1,7.74-6.78H381.23a7.84,7.84,0,0,1,7.74,6.78l1.83,13.92h-127a5.2,5.2,0,1,0,0,10.4h140.4a5.59,5.59,0,0,1,5.6,5.13l3.68,41.47Z"/></svg>