<svg id="Шар_1" data-name="Шар 1" xmlns="http://www.w3.org/2000/svg" viewBox="0 0 600 600"><path d="M493.56,231.07H452.28l-11.59-87.42a21.66,21.66,0,0,0-24.19-18.47L103.6,166.64a21.55,21.55,0,0,0-14.27,8.3,21.32,21.32,0,0,0-4.21,15.91L111.52,390a21.52,21.52,0,0,0,21.35,18.73,21.24,21.24,0,0,0,2.77-.19l20.73-2.73v47.71A21.53,21.53,0,0,0,177.89,475H493.56a21.52,21.52,0,0,0,21.52-21.52V252.6A21.52,21.52,0,0,0,493.56,231.07Zm-55.75,0h-56l55-7.29ZM99.32,188.91a7,7,0,0,1,1.42-5.26,7.24,7.24,0,0,1,4.78-2.8L418.35,139.4a7.28,7.28,0,0,1,8.12,6.17l2.83,21.37L102.15,210.32ZM156.37,391.3l-22.57,3a7.18,7.18,0,0,1-8.06-6.17h0l-16-120.95L156.37,261Zm.95-144.89-49.5,6.52-3.77-28.38L431.2,181.16l2.15,16.45,1.59,11.94L272.59,231.07h-94.7A21.53,21.53,0,0,0,157.32,246.41ZM500.74,453.48a7.18,7.18,0,0,1-7.18,7.17H177.89a7.17,7.17,0,0,1-7.17-7.17V252.81c0-.07,0-.14,0-.21a7.18,7.18,0,0,1,7.17-7.18H493.56a7.19,7.19,0,0,1,7.18,7.18Z"/><path d="M399.91,338.85a35.65,35.65,0,0,0,7.56-7.56,35.87,35.87,0,1,0,0-42.6,35.87,35.87,0,1,0-7.56,50.16Zm36.26-50.38A21.52,21.52,0,1,1,414.64,310,21.52,21.52,0,0,1,436.17,288.47Zm-57.4,0A21.52,21.52,0,1,1,357.25,310,21.52,21.52,0,0,1,378.77,288.47Z"/><rect x="199.42" y="281.29" width="14.35" height="14.35"/><rect x="228.11" y="281.29" width="86.09" height="14.35"/><rect x="199.42" y="309.99" width="114.79" height="14.35"/><path d="M464.86,374.56H206.59a7.17,7.17,0,0,0-7.17,7.17v43a7.17,7.17,0,0,0,7.17,7.17H464.86a7.17,7.17,0,0,0,7.18-7.17v-43A7.17,7.17,0,0,0,464.86,374.56Zm-7.17,43.05H213.76v-28.7H457.69Z"/></svg>