<svg height="512" viewBox="0 0 512 512" width="512" xmlns="http://www.w3.org/2000/svg"><path d="M251.33 79H400v54.99H251.33z"/><path d="M441.63 0H209.7c-21.16 0-38.37 17.21-38.37 38.37v358.18c0 8.29 6.71 15 15 15h255.3c21.15 0 38.37-17.21 38.37-38.36V38.37C480 17.21 462.78 0 441.63 0zm-160.7 373.99h-44.6c-8.29 0-15-6.71-15-15 0-8.28 6.71-15 15-15h44.6c8.28 0 15 6.72 15 15 0 8.29-6.72 15-15 15zm111.42-50H236.33c-8.29 0-15-6.71-15-15 0-8.28 6.71-15 15-15h156.02c8.28 0 15 6.72 15 15 0 8.29-6.72 15-15 15zm-171.02-65c0-8.28 6.71-15 15-15H375c8.28 0 15 6.72 15 15 0 8.29-6.72 15-15 15H236.33c-8.29 0-15-6.71-15-15zm193.67-35H236.33c-8.29 0-15-6.71-15-15 0-8.28 6.71-15 15-15H415c8.28 0 15 6.72 15 15 0 8.29-6.72 15-15 15zm15-75c0 8.29-6.72 15-15 15H236.33c-8.29 0-15-6.71-15-15V64c0-8.28 6.71-15 15-15H415c8.28 0 15 6.72 15 15z"/><path d="M141.33 396.55V80.45H70.32C49.19 80.45 32 97.66 32 118.81v354.82C32 494.79 49.19 512 70.32 512h227.37l-131.55-75.24c-14.7-7.41-24.81-22.65-24.81-40.21z"/><path d="M340.41 499.74c.16-.89.25-1.8.25-2.74v-55.45H237.01z"/></svg>