<svg height="512" viewBox="0 0 64 64" width="512" xmlns="http://www.w3.org/2000/svg"><path d="M20 41c0-1.103-.897-2-2-2s-2 .897-2 2v2h4z"/><path d="M12 47h12V31H12zm2-6c0-1.311.642-2.466 1.619-3.195A2.972 2.972 0 0 1 15 36c0-1.654 1.346-3 3-3s3 1.346 3 3c0 .68-.236 1.301-.619 1.805A3.981 3.981 0 0 1 22 41v3a1 1 0 0 1-1 1h-6a1 1 0 0 1-1-1z"/><circle cx="18" cy="12" r="1"/><path d="M20 17c0-1.103-.897-2-2-2s-2 .897-2 2v2h4zM30 7h12v2H30z"/><circle cx="18" cy="36" r="1"/><path d="M55.007 32.812L48 22.303V42a1 1 0 0 1-1 1c-2.757 0-5-2.243-5-5v-7c0-1.103-.897-2-2-2s-2 .897-2 2v8.324c0 2.886.812 5.702 2.347 8.144A17.285 17.285 0 0 1 43 56.676V61h9v-.084c0-6.002.784-11.987 2.331-17.789l1.47-5.509a5.906 5.906 0 0 0-.794-4.806zM12 23h12V7H12zm2-6c0-1.311.642-2.466 1.619-3.195A2.972 2.972 0 0 1 15 12c0-1.654 1.346-3 3-3s3 1.346 3 3c0 .68-.236 1.301-.619 1.805A3.981 3.981 0 0 1 22 17v3a1 1 0 0 1-1 1h-6a1 1 0 0 1-1-1z"/><path d="M37.807 47H28v-2h8.964a17.128 17.128 0 0 1-.568-2H28v-2h8.091A17.322 17.322 0 0 1 36 39.324V39h-8v-2h8v-2h-7a1 1 0 0 1-1-1v-4a1 1 0 0 1 1-1h7.556c.694-1.19 1.97-2 3.444-2 2.206 0 4 1.794 4 4v7c0 1.304.836 2.416 2 2.829V3H8v51h32.765a15.288 15.288 0 0 0-2.111-5.468A16.836 16.836 0 0 1 37.807 47zM28 6a1 1 0 0 1 1-1h14a1 1 0 0 1 1 1v4a1 1 0 0 1-1 1H29a1 1 0 0 1-1-1zm0 7h16v2H28zm0 4h16v2H28zm0 4h16v2H28zm-2 27a1 1 0 0 1-1 1H11a1 1 0 0 1-1-1V30a1 1 0 0 1 1-1h14a1 1 0 0 1 1 1zm0-24a1 1 0 0 1-1 1H11a1 1 0 0 1-1-1V6a1 1 0 0 1 1-1h14a1 1 0 0 1 1 1z"/><path d="M30 31h6v2h-6z"/></svg>