<svg id="Шар_1" xmlns="http://www.w3.org/2000/svg" viewBox="0 0 6900.59 729.98"><style>.st0{fill:#61abeb}.st1{fill:#c90187}.st2{fill:#faf139}.st3{fill:#272425}</style><path d="M3303.34 231.93V524.8h-378.72V231.93h77.82v227.19h73.04V231.93h77.82v227.19h72.24V231.93h77.8zm321.06 165.69c8.64 11.71 12.97 26.22 12.97 43.52 0 25.94-9.65 46.38-28.94 61.3-19.29 14.92-46.62 22.38-82.01 22.38h-143.27V231.93h135.69c33.53 0 59.53 6.63 78.02 19.87 18.49 13.25 27.73 32.01 27.73 56.28 0 14.22-3.26 26.78-9.77 37.65-6.52 10.87-15.9 19.52-28.13 25.94 16.49 5.6 29.06 14.23 37.71 25.95zm-163.43-48.54h50.28c22.34 0 33.53-9.62 33.53-28.87s-11.17-28.87-33.53-28.87h-50.28v57.74zm96.59 85.77c0-19.81-11.44-29.71-34.31-29.71H3461v60.25h62.25c22.86.02 34.31-10.17 34.31-30.54zm142.46-202.92h77.82v171.96l115.33-171.96h74.23V524.8h-77.82V353.27l-114.93 171.55h-74.63V231.93zm646.5 227.19V583.8h-72.24v-59H4095.5v59h-72.64V459.12h9.98c16.5-.27 28.13-12.13 34.92-35.57s10.98-57.17 12.57-101.25l3.19-90.38h225.07v227.19h37.93zm-204.33-50.2c-3.72 21.76-9.45 38.49-17.16 50.2h105.75v-161.5h-80.21l-1.2 31.79c-1.06 31.26-3.46 57.75-7.18 79.51zm375.13 3.76h-35.92v112.14h-78.62V231.93h78.62v113.8h37.91l66.65-113.8h83.01l-87.4 141.42 88.19 151.45h-88.99l-63.45-112.12zm197.94-180.75h77.82v171.96l115.33-171.96h74.23V524.8h-77.82V353.27l-114.93 171.55h-74.63V231.93zm347.19 0h77.82v171.96l115.33-171.96h74.23V524.8h-77.82V353.27l-114.93 171.55h-74.63V231.93zm71.24-34.73c-13.17-11.43-19.76-28.44-19.76-51.04H5167c.26 9.76 2.65 17.01 7.19 21.76 4.52 4.75 11.7 7.11 21.55 7.11 9.84 0 17.16-2.37 21.95-7.11 4.78-4.75 7.32-11.99 7.59-21.76h53.07c0 22.59-6.66 39.62-19.95 51.04-13.3 11.44-34.18 17.16-62.65 17.16-28.21 0-48.9-5.72-62.06-17.16zm712.15 261.92V583.8h-72.24v-59h-178.79v59h-72.64V459.12h9.98c16.5-.27 28.13-12.13 34.92-35.57 6.79-23.44 10.98-57.17 12.57-101.25l3.19-90.38h225.07v227.19h37.94zm-204.34-50.2c-3.72 21.76-9.45 38.49-17.16 50.2h105.75v-161.5h-80.21l-1.2 31.79c-1.06 31.26-3.45 57.75-7.18 79.51zm455.74-163.8c18.62 8.79 32.98 21.33 43.09 37.66 10.11 16.32 15.17 35.5 15.17 57.54 0 22.03-5.06 41.15-15.17 57.32s-24.48 28.66-43.09 37.44c-18.63 8.79-40.57 13.17-65.85 13.17h-48.69v76.57h-79.02V231.93h127.7c25.29 0 47.23 4.4 65.86 13.19zm-33.92 126.77c8.25-7.38 12.37-17.92 12.37-31.59s-4.12-24.27-12.37-31.79c-8.25-7.54-20.49-11.3-36.72-11.3h-43.9v85.77h43.9c16.22 0 28.47-3.7 36.72-11.09zm407.06-139.96l-115.73 226.35c-12.24 24.27-27.2 42.68-44.89 55.23-17.7 12.55-37.06 18.82-58.07 18.82-15.44 0-31.92-3.63-49.48-10.87l18.76-61.09c10.91 3.35 20.22 5.02 27.94 5.02 7.72 0 14.57-1.81 20.56-5.44 5.99-3.62 11.51-9.33 16.56-17.16l-108.55-210.88h83.41l65.05 141.42 67.44-141.42 77 .02zm158.04 180.75h-35.92v112.14h-78.62V231.93h78.62v113.8h37.91l66.65-113.8h83.01l-87.4 141.42 88.19 151.45h-88.99l-63.45-112.12z"/><circle class="st0" cx="370.29" cy="364.98" r="250.56"/><circle class="st1" cx="966.31" cy="364.98" r="250.56"/><circle class="st2" cx="1562.33" cy="364.98" r="250.56"/><ellipse transform="rotate(-45.001 2158.328 365.025)" class="st3" cx="2158.32" cy="365" rx="250.55" ry="250.55"/></svg>