<svg id="Шар_1" xmlns="http://www.w3.org/2000/svg" viewBox="0 0 730 730"><style>.st0{fill:#05aced}.st1{fill:#ea008a}.st2{fill:#fdf002}.st3{fill:#231f20}.st4,.st5{fill:none}.st5{stroke:#000;stroke-width:2;stroke-miterlimit:10}.st6{fill:#10aced}.st7{fill:#eb008a}.st8{fill:none;stroke:#000;stroke-miterlimit:10}</style><circle class="st0" cx="130.11" cy="115.67" r="65.83"/><circle class="st1" cx="286.7" cy="115.67" r="65.83"/><circle class="st2" cx="443.3" cy="115.67" r="65.83"/><circle class="st3" cx="599.89" cy="115.67" r="65.83"/><path d="M271.7 665.61h5.32v3.52h-5.32v7.22h6.69v3.52h-10.57v-24.66h10.57v3.52h-6.69v6.88zm14.16 4.44l-1.2 2.25v7.57h-3.88v-24.66h3.88v10.75l5.07-10.75h3.88l-5.39 10.99 5.39 13.67h-3.98l-3.77-9.82zm8.95-8.91c0-3.95 2.08-6.2 5.88-6.2 3.81 0 5.88 2.25 5.88 6.2v12.82c0 3.95-2.08 6.2-5.88 6.2s-5.88-2.25-5.88-6.2v-12.82zm3.87 13.07c0 1.76.77 2.43 2.01 2.43 1.23 0 2.01-.67 2.01-2.43v-13.32c0-1.76-.77-2.43-2.01-2.43-1.23 0-2.01.67-2.01 2.43v13.32zm21.99-13.32v.88c0 2.54-.77 4.16-2.5 4.97 2.08.81 2.89 2.68 2.89 5.28v2.01c0 3.8-2.01 5.85-5.88 5.85h-6.09v-24.66h5.85c4 0 5.73 1.87 5.73 5.67zm-7.72-2.15v6.52h1.52c1.44 0 2.33-.63 2.33-2.61v-1.37c0-1.76-.6-2.54-1.97-2.54h-1.88zm0 10.04v7.57h2.22c1.3 0 2.01-.6 2.01-2.43v-2.15c0-2.29-.74-2.99-2.5-2.99h-1.73zm10.43-13.56h3.88v24.66h-3.88v-24.66zm6.69 0h3.88v21.14h6.38v3.52h-10.25v-24.66zm17.16-.28c3.77 0 5.71 2.25 5.71 6.2v.78h-3.66v-1.02c0-1.76-.7-2.43-1.94-2.43-1.23 0-1.94.67-1.94 2.43 0 5.07 7.57 6.02 7.57 13.07 0 3.95-1.97 6.2-5.78 6.2-3.8 0-5.78-2.25-5.78-6.2v-1.52h3.66v1.76c0 1.76.78 2.4 2.01 2.4 1.23 0 2.01-.63 2.01-2.4 0-5.07-7.57-6.02-7.57-13.07 0-3.95 1.94-6.2 5.71-6.2zm13.03 15.11l-1.2 2.25v7.57h-3.88v-24.66h3.88v10.75l5.07-10.75h3.88l-5.39 10.99 5.39 13.67h-3.98l-3.77-9.82zm13.39-4.44h5.32v3.52h-5.32v7.22h6.69v3.52h-10.57v-24.66h10.57v3.52h-6.69v6.88zm12.82 10.54v3.73h-3.73v-3.73h3.73zm2.15-15.01c0-3.95 2.08-6.2 5.88-6.2 3.81 0 5.88 2.25 5.88 6.2v12.82c0 3.95-2.08 6.2-5.88 6.2s-5.88-2.25-5.88-6.2v-12.82zm3.88 13.07c0 1.76.77 2.43 2.01 2.43 1.23 0 2.01-.67 2.01-2.43v-13.32c0-1.76-.77-2.43-2.01-2.43-1.23 0-2.01.67-2.01 2.43v13.32zm13.84-12.19v17.86h-3.49v-24.66h4.86l3.98 14.76v-14.76h3.45v24.66h-3.98l-4.82-17.86zm11.59-6.8h3.88v21.14h6.38v3.52h-10.25v-24.66zm11.94 0h3.88v24.66h-3.88v-24.66zm10.15 6.8v17.86h-3.49v-24.66h4.86l3.98 14.76v-14.76h3.45v24.66h-3.98l-4.82-17.86zm15.46 3.59h5.32v3.52h-5.32v7.22h6.69v3.52H451.6v-24.66h10.57v3.52h-6.69v6.88z"/><path class="st4" d="M326.43 572.99v29.05h78.13v-58.1h-78.13z"/><path class="st1" d="M365.5 536.09v7.85h39.06v29.05h7.85v-36.9z"/><path class="st2" d="M404.56 602.04H365.5v7.86h46.91v-36.91h-7.85z"/><path class="st0" d="M326.43 543.94h39.07v-7.85h-46.92v36.9h7.85z"/><path class="st3" d="M326.43 602.04v-29.05h-7.85v36.91h46.92v-7.86z"/><path class="st5" d="M380.1 571.66h9.74m-48.68 0h7.43m16.91 13.16V596m0-48.68v10.9"/><path class="st4" d="M365.5 582.78c.05 0 .09.01.14.01 6.61 0 11.96-4.98 11.96-11.13h-12.1v11.12z"/><path class="st6" d="M353.68 571.66h-5.08c0 8.71 7.56 15.78 16.91 15.85v-4.73c-6.55-.07-11.83-5.02-11.83-11.12z"/><path class="st7" d="M365.5 560.54v-4.73c-9.35.07-16.91 7.14-16.91 15.85h5.08c.01-6.1 5.29-11.05 11.83-11.12z"/><path class="st2" d="M365.64 555.81h-.14v4.73c.05 0 .09-.01.14-.01 6.61 0 11.96 4.98 11.96 11.13h5.08c0-8.76-7.63-15.85-17.04-15.85z"/><path d="M365.64 582.79c-.05 0-.09-.01-.14-.01v4.73h.14c9.41 0 17.04-7.1 17.04-15.86h-5.08c0 6.16-5.36 11.14-11.96 11.14z"/><path class="st8" d="M370.09 571.66h2.92m-14.74 0h2.91m4.46 4.45v2.92m0-14.74v2.92"/><path d="M365.32 571.34v-4.12c-2.2.16-3.96 1.91-4.12 4.12h4.12zm.64 0h4.12a4.455 4.455 0 0 0-4.12-4.12v4.12zm0 .64v4.12c2.2-.16 3.96-1.91 4.12-4.12h-4.12zm-.64 0h-4.12c.16 2.2 1.91 3.96 4.12 4.12v-4.12z"/><path class="st6" d="M346.31 596c-1.42 0-2.64-.5-3.64-1.51s-1.51-2.22-1.51-3.64c0-1.43.5-2.64 1.51-3.64 1.01-1.01 2.22-1.51 3.64-1.51s2.64.51 3.64 1.51c.21.21.32.47.32.76 0 .3-.11.55-.32.76-.21.22-.47.32-.76.32-.3 0-.56-.11-.77-.32-.58-.58-1.29-.87-2.11-.87a2.9 2.9 0 0 0-2.11.87c-.58.58-.87 1.29-.87 2.11 0 .82.29 1.52.87 2.11s1.29.87 2.11.87a2.9 2.9 0 0 0 2.11-.87c.21-.21.47-.32.77-.32.3 0 .55.11.76.32.21.21.32.47.32.76 0 .3-.11.56-.32.77-1 1.02-2.22 1.52-3.64 1.52z"/><path class="st7" d="M346.31 550.94l3.31-3.3c.16-.16.34-.26.55-.3.22-.04.42-.02.63.06a1.1 1.1 0 0 1 .68 1.01v8.13c0 .3-.11.56-.32.77-.21.21-.47.32-.76.32-.3 0-.55-.11-.76-.32s-.32-.47-.32-.77v-5.52l-2.22 2.22c-.21.21-.47.32-.77.32-.3 0-.55-.11-.76-.32l-2.22-2.22v5.52c0 .3-.11.56-.32.77s-.47.32-.76.32c-.3 0-.56-.11-.77-.32-.21-.21-.32-.47-.32-.77v-8.13c0-.22.06-.42.19-.61.12-.18.28-.31.48-.4.2-.08.41-.1.63-.06.22.05.4.15.56.3l3.27 3.3z"/><path d="M389.36 585.88c.25.17.4.39.46.69.06.29 0 .56-.17.81l-2.31 3.47 2.31 3.46c.17.25.22.52.17.81-.06.29-.21.53-.46.7-.18.12-.39.18-.61.18-.39 0-.69-.16-.9-.48l-2.39-3.59h-2.4v2.98c0 .3-.11.56-.32.77-.21.21-.47.32-.76.32-.3 0-.56-.11-.77-.32-.21-.21-.32-.47-.32-.77v-8.13c0-.3.11-.55.32-.76.21-.22.47-.32.77-.32.3 0 .55.11.76.32.21.21.32.47.32.76v2.98h2.4l2.39-3.58c.17-.25.39-.41.69-.47.29-.05.56 0 .82.17z"/><path class="st2" d="M389.32 547.49c.25.16.41.39.48.67.07.29.02.57-.14.82l-3.22 5.16v2.4c0 .3-.11.56-.32.77-.22.21-.47.32-.77.32s-.55-.11-.76-.32-.32-.47-.32-.77v-2.4l-3.23-5.16a1.074 1.074 0 0 1 .34-1.49c.26-.16.53-.2.82-.14.29.07.52.23.67.48l2.47 3.95 2.47-3.95c.16-.25.38-.41.67-.48.32-.06.59-.02.84.14z"/><path d="M163.94 248.07v73.51H64.28v-73.51h20.48v57.03h19.22v-57.03h20.48v57.03h19.01v-57.03h20.47zm79.24 41.59c2.27 2.94 3.41 6.58 3.41 10.92 0 6.51-2.54 11.64-7.61 15.39-5.08 3.75-12.27 5.62-21.58 5.62h-37.7v-73.51h35.71c8.82 0 15.66 1.66 20.53 4.99 4.87 3.33 7.3 8.03 7.3 14.13 0 3.57-.86 6.72-2.57 9.45-1.72 2.73-4.18 4.9-7.4 6.51 4.32 1.39 7.63 3.56 9.91 6.5zm-43.01-12.19h13.23c5.88 0 8.82-2.42 8.82-7.25s-2.94-7.25-8.82-7.25h-13.23v14.5zM225.59 299c0-4.97-3.01-7.46-9.03-7.46h-16.38v15.12h16.38c6.02.01 9.03-2.55 9.03-7.66zm32.24-50.93h20.48v43.16l30.35-43.16h19.53v73.51h-20.48v-43.06l-30.25 43.06h-19.64v-73.51zm164.88 57.02v31.3H403.7v-14.81h-47.05v14.81h-19.11v-31.3h2.63c4.34-.07 7.4-3.05 9.19-8.93 1.79-5.88 2.89-14.35 3.31-25.41l.84-22.68h59.23v57.03h9.97zm-53.77-12.6c-.98 5.46-2.49 9.66-4.52 12.6h27.83v-40.54h-21.11l-.32 7.98c-.27 7.85-.9 14.5-1.88 19.96zm93.46.95h-9.45v28.15h-20.69v-73.51h20.69v28.57h9.98l17.54-28.57h21.84l-23 35.5 23.21 38.02H479.1l-16.7-28.16zm46.84-45.37h20.48v43.16l30.35-43.16h19.53v73.51h-20.48v-43.06l-30.25 43.06h-19.64v-73.51zm86.12 0h20.48v43.16l30.35-43.16h19.53v73.51h-20.48v-43.06L615 321.58h-19.64v-73.51zm18.75-8.72c-3.47-2.87-5.2-7.14-5.2-12.81h13.97c.07 2.45.7 4.27 1.89 5.46 1.19 1.19 3.08 1.79 5.67 1.79s4.52-.59 5.78-1.79c1.26-1.19 1.92-3.01 1.99-5.46h13.97c0 5.67-1.75 9.94-5.25 12.81-3.5 2.87-9 4.31-16.49 4.31-7.43 0-12.87-1.44-16.33-4.31zM269.27 449.58v41.46h-25.18v-19.62h-62.33v19.62h-25.32v-41.46h3.48c5.75-.09 9.81-4.03 12.17-11.83 2.37-7.79 3.83-19.01 4.38-33.67l1.11-30.05h78.48v75.55h13.21zm-71.24-16.7c-1.3 7.24-3.29 12.8-5.98 16.7h36.87v-53.71h-27.97l-.42 10.57c-.37 10.4-1.2 19.21-2.5 26.44zm151.94-54.47c6.49 2.92 11.5 7.1 15.03 12.52 3.52 5.43 5.29 11.81 5.29 19.13 0 7.33-1.76 13.68-5.29 19.06-3.53 5.38-8.54 9.53-15.03 12.45s-14.15 4.38-22.96 4.38h-16.97v25.46h-27.55v-97.4h44.52c8.81.02 16.47 1.48 22.96 4.4zm-11.83 42.16c2.87-2.46 4.31-5.96 4.31-10.51 0-4.54-1.44-8.07-4.31-10.57-2.88-2.5-7.14-3.76-12.8-3.76h-15.31v28.52h15.31c5.66.01 9.93-1.22 12.8-3.68zm134.97-46.54l-40.35 75.28c-4.27 8.07-9.49 14.19-15.65 18.37-6.17 4.17-12.92 6.26-20.24 6.26-5.38 0-11.13-1.21-17.25-3.62l6.54-20.31c3.8 1.11 7.05 1.67 9.74 1.67 2.69 0 5.08-.6 7.17-1.81s4.01-3.11 5.77-5.71l-37.85-70.13h29.08l22.68 47.03 23.51-47.03h26.85zm48.14 60.11h-12.52v37.29h-27.41v-97.4h27.41v37.85h13.22l23.24-37.85h28.94l-30.47 47.03 30.75 50.37h-31.03l-22.13-37.29z"/></svg>