<svg id="Шар_1" xmlns="http://www.w3.org/2000/svg" viewBox="0 0 341.2 341.2"><style>.st0{fill:#282828}.st1{fill:#fff}.st2{fill:#272425}.st3{fill:#263238}.st4{fill:#f8ef39}.st5{fill:#c70085}.st6{fill:#61a9e9}</style><path class="st0" d="M302.3 13.5H38.9c-1 0-1.9.8-1.9 1.9v310.5c0 1 .8 1.9 1.9 1.9h263.4c1 0 1.9-.9 1.9-1.9V15.3c-.1-1-.9-1.8-1.9-1.8zm-1.9 267.7H40.8v-264h259.6v264z"/><path class="st1" d="M74.5 301.6H80v3.6h-5.5v7.4h6.9v3.6H70.6v-25.4h10.9v3.6h-6.9v7.2zm14.6 4.5l-1.2 2.3v7.8h-4v-25.4h4v11.1l5.2-11.1h4l-5.6 11.3 5.6 14.1H93l-3.9-10.1zm9.2-9.1c0-4.1 2.1-6.4 6.1-6.4 3.9 0 6.1 2.3 6.1 6.4v13.2c0 4.1-2.1 6.4-6.1 6.4s-6.1-2.3-6.1-6.4V297zm4 13.4c0 1.8.8 2.5 2.1 2.5s2.1-.7 2.1-2.5v-13.7c0-1.8-.8-2.5-2.1-2.5s-2.1.7-2.1 2.5v13.7zm22.6-13.7v.9c0 2.6-.8 4.3-2.6 5.1 2.1.8 3 2.8 3 5.4v2.1c0 3.9-2.1 6-6.1 6H113v-25.4h6c4.2.1 5.9 2 5.9 5.9zm-7.9-2.2v6.7h1.6c1.5 0 2.4-.6 2.4-2.7v-1.4c0-1.8-.6-2.6-2-2.6h-2zm0 10.3v7.8h2.3c1.3 0 2.1-.6 2.1-2.5v-2.2c0-2.4-.8-3.1-2.6-3.1H117zm10.7-13.9h4v25.4h-4v-25.4zm6.9 0h4v21.8h6.6v3.6h-10.6v-25.4zm17.7-.3c3.9 0 5.9 2.3 5.9 6.4v.8h-3.8v-1c0-1.8-.7-2.5-2-2.5s-2 .7-2 2.5c0 5.2 7.8 6.2 7.8 13.5 0 4.1-2 6.4-5.9 6.4-3.9 0-5.9-2.3-5.9-6.4v-1.6h3.8v1.8c0 1.8.8 2.5 2.1 2.5s2.1-.6 2.1-2.5c0-5.2-7.8-6.2-7.8-13.5-.2-4.1 1.8-6.4 5.7-6.4zm13.4 15.5l-1.2 2.3v7.8h-4v-25.4h4v11.1l5.2-11.1h4l-5.6 11.3 5.6 14.1h-4.1l-3.9-10.1zm13.8-4.5h5.5v3.6h-5.5v7.4h6.9v3.6h-10.9v-25.4h10.9v3.6h-6.9v7.2zm13.2 10.8v3.8h-3.8v-3.8h3.8zm2.2-15.4c0-4.1 2.1-6.4 6.1-6.4 3.9 0 6.1 2.3 6.1 6.4v13.2c0 4.1-2.1 6.4-6.1 6.4s-6.1-2.3-6.1-6.4V297zm4 13.4c0 1.8.8 2.5 2.1 2.5s2.1-.7 2.1-2.5v-13.7c0-1.8-.8-2.5-2.1-2.5s-2.1.7-2.1 2.5v13.7zm14.2-12.5v18.4h-3.6v-25.4h5l4.1 15.2v-15.2h3.6v25.4h-4.1l-5-18.4zm12-7h4v21.8h6.6v3.6h-10.6v-25.4zm12.3 0h4v25.4h-4v-25.4zm10.4 7v18.4h-3.6v-25.4h5l4.1 15.2v-15.2h3.5v25.4h-4.1l-4.9-18.4zm15.9 3.7h5.5v3.6h-5.5v7.4h6.9v3.6h-10.9v-25.4h10.9v3.6h-6.9v7.2z"/><path class="st2" d="M172.6 80.5c-31.1 0-56.3 25.2-56.3 56.3 0 31.1 25.2 56.3 56.3 56.3 31.1 0 56.3-25.2 56.3-56.3 0-31.1-25.2-56.3-56.3-56.3zM154.8 166l-10.4-23.9v-.3L168 86.4c.1-.1.2-.2.3-.2h3.7c.2 0 .4.2.4.4v49c0 .2-.1.3-.3.4-2.4.4-4.2 2.4-4.2 4.9s1.8 4.5 4.2 4.8c.2 0 .3.2.3.4V166c0 .2-.2.4-.4.4h-16.9c-.1-.1-.2-.2-.3-.4zm36.4 14.5c0 .2-.2.4-.4.4h-35.4c-.2 0-.4-.2-.4-.4v-12c0-.2.2-.4.4-.4h35.4c.2 0 .4.2.4.4v12zm10.4-38.3l-10.4 23.9c0 .1-.2.2-.3.2H174c-.2 0-.4-.2-.4-.4v-20c0-.2.1-.3.3-.4 2.2-.5 3.8-2.5 3.8-4.8s-1.5-4.3-3.8-4.8c-.2 0-.3-.2-.3-.4v-49c0-.2.2-.4.4-.4h3.7c.1 0 .3.1.3.2l23.6 55.4c.1.2.1.4 0 .5z"/><path class="st3" d="M254.8 136.8h-3c0-43.7-35.5-79.2-79.2-79.2s-79.2 35.5-79.2 79.2h-3c0-45.3 36.9-82.2 82.2-82.2s82.2 36.9 82.2 82.2z"/><path class="st3" d="M123.1 54.6h99v3h-99z"/><circle class="st1" cx="172.6" cy="56.1" r="5.3"/><path class="st3" d="M172.6 62.9c-3.8 0-6.8-3.1-6.8-6.8s3.1-6.8 6.8-6.8 6.8 3.1 6.8 6.8-3.1 6.8-6.8 6.8zm0-10.6c-2.1 0-3.8 1.7-3.8 3.8s1.7 3.8 3.8 3.8 3.8-1.7 3.8-3.8c0-2.1-1.7-3.8-3.8-3.8z"/><circle class="st1" cx="123.7" cy="56.1" r="5.3"/><path class="st3" d="M123.7 62.9c-3.8 0-6.8-3.1-6.8-6.8s3.1-6.8 6.8-6.8 6.8 3.1 6.8 6.8-3 6.8-6.8 6.8zm0-10.6c-2.1 0-3.8 1.7-3.8 3.8s1.7 3.8 3.8 3.8 3.8-1.7 3.8-3.8-1.7-3.8-3.8-3.8z"/><circle class="st1" cx="221.4" cy="56.1" r="5.3"/><path class="st3" d="M221.4 62.9c-3.8 0-6.8-3.1-6.8-6.8s3.1-6.8 6.8-6.8 6.8 3.1 6.8 6.8-3 6.8-6.8 6.8zm0-10.6c-2.1 0-3.8 1.7-3.8 3.8s1.7 3.8 3.8 3.8 3.8-1.7 3.8-3.8-1.7-3.8-3.8-3.8z"/><ellipse class="st2" cx="259.7" cy="152.2" rx="24.4" ry="24.4"/><path class="st1" d="M255.6 171.4c-.6 0-1.1-.4-1.1-1l-2.3-33.2c0-.5.3-.9.7-1.1.4-.2 1-.1 1.3.3l21 24.9c.4.5.3 1.2-.1 1.6-.5.4-1.2.3-1.6-.1l-18.8-22.3 2.1 29.8c0 .5-.5 1-1.2 1.1.1 0 .1 0 0 0z"/><ellipse class="st4" cx="220.6" cy="215" rx="24.4" ry="24.4"/><path class="st1" d="M234.4 214.7l7-7 5.9 5.9-4.8 12-27.8 11.2-1.3-1.3 17.2-17.2c1 .8 2.5.7 3.4-.3 1.1-.8 1.2-2.3.4-3.3zm-22.9 18.9l1.3 1.3 17.2-17.2c-.6-1-.5-2.4.4-3.2s2.2-1 3.2-.4l7-7-5.9-5.9-12 4.8-11.2 27.6z"/><path class="st3" d="M214.8 237.3c-.1 0-.2 0-.3-.1l-1.3-1.3c-.1-.1-.1-.4 0-.5l17.2-17.2c.1-.1.3-.1.5 0 .9.7 2.1.6 2.9-.2.8-.8.9-2 .2-2.9-.1-.1-.1-.4 0-.5l7-7c.1-.1.4-.1.5 0l5.9 5.9c.1.1.1.3.1.4l-4.8 12c0 .1-.1.2-.2.2l-27.8 11.2c.2-.1.2 0 .1 0zm-.7-1.7l.9.9 27.4-11 4.6-11.7-5.5-5.5-6.5 6.5c.7 1.2.5 2.6-.5 3.6s-2.4 1.1-3.6.5l-16.8 16.7zm-1.3-.3c-.1 0-.2 0-.3-.1l-1.3-1.3c-.1-.1-.1-.3-.1-.4l11.2-27.8c0-.1.1-.2.2-.2l12-4.8c.1-.1.3 0 .4.1l5.9 5.9c.1.1.1.4 0 .5l-7 7c-.1.1-.3.1-.5.1-.9-.6-2-.4-2.8.3-.7.7-.9 1.9-.3 2.8.1.1.1.3-.1.5l-17.2 17.2c.1.1 0 .2-.1.2zm-.8-1.8l.9.9 16.8-16.8c-.6-1.1-.3-2.5.6-3.4.9-.9 2.3-1.1 3.4-.6l6.6-6.6-5.5-5.5-11.7 4.6-11.1 27.4z"/><path transform="rotate(-45.001 244.046 204.294)" class="st3" d="M241.1 195.5h5.9v17.6h-5.9z"/><path class="st3" d="M248.2 213c-.1 0-.2 0-.3-.1l-12.5-12.5c-.1-.1-.1-.2-.1-.3s0-.2.1-.3l4.2-4.2c.1-.1.4-.1.5 0l12.5 12.5c.1.1.1.4 0 .5l-4.2 4.2c0 .2-.1.2-.2.2zm-11.9-12.8l11.9 11.9 3.7-3.7-11.9-11.9-3.7 3.7z"/><path class="st5" d="M210.4 238.5c-.1 0-.2 0-.3-.1-.1 0-10.5-3.3-9.3-13 .5-4.5 2.9-7.2 5.1-9.8 2.4-2.8 4.7-5.4 4.8-10.3.3-9-7-11-7.3-11.1-.6-.1-.9-.8-.8-1.4s.8-1 1.4-.8c.1 0 9.4 2.5 9 13.3-.2 5.7-2.8 8.7-5.4 11.6-2.1 2.4-4.1 4.7-4.6 8.6-.9 7.9 7.4 10.5 7.8 10.6.6.2.9.8.7 1.4-.2.7-.7 1-1.1 1z"/><ellipse class="st5" cx="122.8" cy="216" rx="24.4" ry="24.4"/><path class="st1" d="M134.1 215.1l7-7 5.9 5.9-4.8 12-27.8 11.2-1.3-1.3 17.2-17.2c1 .8 2.5.7 3.4-.3 1.1-.8 1.2-2.2.4-3.3zM111.3 234l1.3 1.3 17.2-17.2c-.6-1-.5-2.4.4-3.2s2.2-1 3.2-.4l7-7-5.9-5.9-12 4.8-11.2 27.6z"/><path class="st3" d="M114.6 237.7c-.1 0-.2 0-.3-.1l-1.3-1.3c-.2-.1-.2-.4 0-.5l17.2-17.2c.1-.1.3-.1.5 0 .9.7 2.1.6 2.9-.2.8-.8.9-2 .2-2.9-.1-.1-.1-.4 0-.5l7-7c.1-.1.4-.1.5 0l5.9 5.9c.1.1.1.3.1.4l-4.8 12c0 .1-.1.2-.2.2l-27.8 11.2h.1zm-.8-1.7l.8.9 27.4-11 4.6-11.7-5.5-5.5-6.5 6.5c.7 1.2.5 2.6-.5 3.6s-2.4 1.2-3.6.5L113.8 236zm-1.2-.3c-.1 0-.2 0-.3-.1l-1.3-1.3c-.1-.1-.1-.3-.1-.4l11.2-27.8c0-.1.1-.2.2-.2l12-4.8c.1-.1.3 0 .4.1l5.9 5.9c.1.1.1.4 0 .5l-7 7c-.1.1-.3.1-.5.1-.9-.6-2-.4-2.8.3-.7.7-.9 1.9-.3 2.8.1.1.1.3-.1.5l-17.2 17.2c.1.1 0 .2-.1.2zm-.9-1.8l.8.9 16.8-16.8c-.6-1.1-.3-2.5.6-3.4.9-.9 2.3-1.1 3.4-.6l6.6-6.6-5.5-5.5-11.7 4.6-11 27.4z"/><path transform="rotate(-45.001 143.802 204.723)" class="st3" d="M140.8 195.9h5.9v17.6h-5.9z"/><path class="st3" d="M147.9 213.4c-.1 0-.2 0-.3-.1l-12.5-12.5c-.1-.1-.1-.4 0-.5l4.2-4.2c.1-.1.4-.1.5 0l12.5 12.5c.1.1.1.4 0 .5l-4.2 4.2c0 .1-.1.1-.2.1zM136 200.6l11.9 11.9 3.7-3.7-11.9-11.9-3.7 3.7z"/><path class="st4" d="M102.7 204.2h3v21.6h-3z"/><path class="st4" d="M93.3 213.5h21.6v3H93.3z"/><ellipse class="st6" cx="81.4" cy="150.7" rx="24.4" ry="24.4"/><path class="st1" d="M91.7 147.8l7-7 5.9 5.9-4.8 12L72.1 170l-1.3-1.3L88 151.5c1 .8 2.5.7 3.4-.3 1-.9 1.1-2.4.3-3.4zm-22.9 18.9l1.3 1.3 17.2-17.2c-.6-1-.5-2.4.4-3.2s2.2-1 3.2-.4l7-7-5.9-5.9-12 4.8-11.2 27.6z"/><path class="st3" d="M72.1 170.4c-.1 0-.2 0-.3-.1l-1.3-1.3c-.1-.1-.1-.2-.1-.3s0-.2.1-.3l17.2-17.2c.1-.1.3-.1.5 0 .9.7 2.1.6 2.9-.2.8-.8.9-2 .2-2.9-.1-.1-.1-.4 0-.5l7-7c.2-.1.4-.1.5 0l5.9 5.9c.1.1.1.3.1.4l-4.8 12c0 .1-.1.2-.2.2L72 170.3c.2.1.2.1.1.1zm-.7-1.7l.8.9 27.4-11 4.6-11.7-5.5-5.5-6.5 6.5c.7 1.2.5 2.6-.5 3.6s-2.4 1.2-3.6.5l-16.7 16.7zm-1.3-.3c-.1 0-.2 0-.3-.1l-1.3-1.3c-.1-.1-.1-.3-.1-.4l11.2-27.8c0-.1.1-.2.2-.2l12-4.8c.1-.1.3 0 .4.1l5.9 5.9c.2.1.2.4 0 .5l-7 7c-.1.1-.3.1-.5.1-.9-.6-2-.4-2.8.3-.7.7-.9 1.9-.3 2.8.1.1.1.3-.1.5l-17.2 17.2c.1.1 0 .2-.1.2zm-.8-1.8l.8.9 16.8-16.8c-.6-1.1-.3-2.5.6-3.4.9-.9 2.3-1.1 3.4-.6l6.6-6.6-5.5-5.5-11.7 4.6-11 27.4z"/><path transform="rotate(-45.001 101.378 137.399)" class="st3" d="M98.4 128.6h5.9v17.6h-5.9z"/><path class="st3" d="M105.5 146.1c-.1 0-.2 0-.3-.1l-12.5-12.5c-.2-.1-.2-.4 0-.5l4.2-4.2c.2-.1.4-.1.5 0l12.5 12.5c.2.1.2.4 0 .5l-4.2 4.2c0 .1-.1.1-.2.1zm-11.9-12.8l11.9 11.9 3.7-3.7-11.9-11.9-3.7 3.7zm-35 12.9h13.9v3H58.6z"/></svg>