<svg xmlns="http://www.w3.org/2000/svg" viewBox="0 0 386.1 386.1"><path d="M308.9 55.05H22.4C9.9 55.05 0 65.55 0 77.95v176.2c.1 12.2 10.2 22 22.4 21.9H34v-143.7c0-23.5 19.2-42.3 42.7-42.3h254.4v-12.1c0-12.4-9.7-22.9-22.2-22.9zm31.2 207c-6.8-5.7-16.9-4.8-22.6 2-.5.6-1 1.1-1.5 1.5-4.3 3.5-10.6 2.8-14.1-1.5-3-3.7-7.6-5.9-12.4-5.9-9 0-16.2 7.2-16.1 16.2 0 8.9 7.3 16.1 16.2 16.1 4.8.1 9.4-2.1 12.4-5.8 1.9-2.3 4.7-3.6 7.7-3.6 2.9-.1 5.8 1.2 7.7 3.5.7.8 1.3 1.5 2.1 2.1 6.8 5.7 16.9 4.8 22.6-2 5.7-6.8 4.8-16.9-2-22.6z"/><path d="M363.3 110.05H76.7c-12.5-.1-22.6 9.9-22.7 22.3v14.7h332.1v-14.7c0-12.5-10.3-22.3-22.8-22.3zm-309.3 57h332v26H54zm0 46v95.1c0 12.6 10.1 22.8 22.7 22.9h286.5c12.6-.1 22.7-10.3 22.8-22.9v-95.1H54zm305.9 81.4c-11.2 16.5-33.7 20.9-50.2 9.7-6 4.1-13 6.2-20.2 6.2-20 0-36.1-16.3-36.1-36.2 0-19.9 16.1-36.1 36.1-36.1 7.2 0 14.2 2.1 20.2 6.2 12.3-8.3 28.3-8.3 40.5 0 16.5 11.2 20.9 33.7 9.7 50.2z"/></svg>