<svg height="512" viewBox="0 0 512 512" width="512" xmlns="http://www.w3.org/2000/svg"><path d="M0 30v452h512V30zm482 422H30V60h452z"/><path d="M452 90H60v332h392zm-30 30v211.777c-76.975-2.313-117.019-22.441-159.262-43.678-43.54-21.89-88.489-44.481-172.738-46.884V120zM90 392V271.223c76.975 2.313 117.019 22.441 159.262 43.678 43.54 21.89 88.489 44.481 172.738 46.884V392z"/><path d="M331.5 271c33.359 0 60.5-27.141 60.5-60.5S364.859 150 331.5 150 271 177.141 271 210.5s27.141 60.5 60.5 60.5zm0-91c16.817 0 30.5 13.683 30.5 30.5S348.317 241 331.5 241 301 227.317 301 210.5s13.683-30.5 30.5-30.5z"/></svg>