<svg data-name="Шар 1" xmlns="http://www.w3.org/2000/svg" viewBox="0 0 600 600"><path d="M386.18 217.06H373v-36.3a15.45 15.45 0 0 0-15.43-15.43H179.09a15.45 15.45 0 0 0-15.44 15.43v217.33a36.62 36.62 0 0 0 36.59 36.58H336.4a36.62 36.62 0 0 0 36.6-36.58v-15.75h13.2a50.23 50.23 0 0 0 50.17-50.17v-64.94a50.23 50.23 0 0 0-50.19-50.17zm-29.2 181a20.6 20.6 0 0 1-20.58 20.58H200.24a20.61 20.61 0 0 1-20.59-20.58V181.33H357v216.76zm16-142.16h13.2a11.31 11.31 0 0 1 11.3 11.3v64.94a11.31 11.31 0 0 1-11.3 11.3H373zm47.37 76.24a34.21 34.21 0 0 1-34.17 34.17H373v-6.87h13.2a27.34 27.34 0 0 0 27.3-27.3v-64.91a27.34 27.34 0 0 0-27.3-27.3H373v-6.87h13.2a34.21 34.21 0 0 1 34.17 34.17z"/></svg>