<svg data-name="Шар 1" xmlns="http://www.w3.org/2000/svg" viewBox="0 0 600 600"><path d="M437.25 125h-164.7a6.86 6.86 0 0 0-6.86 6.86v54.9H162.75a6.87 6.87 0 0 0-6.87 6.87v274.51a6.86 6.86 0 0 0 6.87 6.86h164.7a6.86 6.86 0 0 0 6.86-6.86v-54.9h102.94a6.87 6.87 0 0 0 6.87-6.87V131.86a6.86 6.86 0 0 0-6.87-6.86zm-157.84 24.91L302 175.3l10.16 11.46h-32.75zm53.19 39.19l-18.87-21.28v-1.64h75.49v68.62h-54.91v-41.17a7.88 7.88 0 0 0-1.71-4.53zm-12 272.17h-151V200.49h151zm109.8-61.76h-96.09v-27.45h75.49a6.87 6.87 0 1 0 0-13.73h-75.49v-27.45h75.49a6.86 6.86 0 1 0 0-13.72h-75.49v-27.45h75.49a6.87 6.87 0 1 0 0-13.73h-75.49v-27.45h61.77a6.86 6.86 0 0 0 6.86-6.86v-82.36a6.86 6.86 0 0 0-6.86-6.86h-89.22a6.88 6.88 0 0 0-4.94 2.13l-14.07-15.85h142.54z"/><path d="M272.55 317.16h-54.9a6.86 6.86 0 1 0 0 13.72h54.9a6.86 6.86 0 1 0 0-13.72zm-75.49-13.73h96.08a6.86 6.86 0 0 0 0-13.72h-7.48a41.18 41.18 0 0 0-81.12 0h-7.48a6.86 6.86 0 0 0 0 13.72zm48-34.31a27.45 27.45 0 0 1 26.56 20.59h-53.08a27.45 27.45 0 0 1 26.56-20.59zm-39.15-15.72a6.89 6.89 0 0 0 9.75-9.74l-13.73-13.73a6.89 6.89 0 0 0-9.74 9.75zm39.19-4.87a6.86 6.86 0 0 0 6.86-6.86v-20.59a6.86 6.86 0 0 0-13.72 0v20.59a6.86 6.86 0 0 0 6.86 6.86zm39.18 4.87L298 239.68a6.89 6.89 0 0 0-9.75-9.75l-13.72 13.73a6.89 6.89 0 1 0 9.74 9.74zm-11.73 146.11h-54.9a6.87 6.87 0 1 0 0 13.73h54.9a6.87 6.87 0 0 0 0-13.73zM300 427H190.2a6.87 6.87 0 1 0 0 13.73H300a6.87 6.87 0 0 0 0-13.73z"/></svg>