<svg data-name="Шар 1" xmlns="http://www.w3.org/2000/svg" viewBox="0 0 600 600"><path d="M493.56 231.07h-41.28l-11.59-87.42a21.66 21.66 0 0 0-24.19-18.47l-312.9 41.46a21.55 21.55 0 0 0-14.27 8.3 21.32 21.32 0 0 0-4.21 15.91L111.52 390a21.52 21.52 0 0 0 21.35 18.73 21.24 21.24 0 0 0 2.77-.19l20.73-2.73v47.71A21.53 21.53 0 0 0 177.89 475h315.67a21.52 21.52 0 0 0 21.52-21.52V252.6a21.52 21.52 0 0 0-21.52-21.53zm-55.75 0h-56l55-7.29zM99.32 188.91a7 7 0 0 1 1.42-5.26 7.24 7.24 0 0 1 4.78-2.8l312.83-41.45a7.28 7.28 0 0 1 8.12 6.17l2.83 21.37-327.15 43.38zm57.05 202.39l-22.57 3a7.18 7.18 0 0 1-8.06-6.17l-16-120.95 46.63-6.18zm.95-144.89l-49.5 6.52-3.77-28.38 327.15-43.39 2.15 16.45 1.59 11.94-162.35 21.52h-94.7a21.53 21.53 0 0 0-20.57 15.34zm343.42 207.07a7.18 7.18 0 0 1-7.18 7.17H177.89a7.17 7.17 0 0 1-7.17-7.17V252.6a7.18 7.18 0 0 1 7.17-7.18h315.67a7.19 7.19 0 0 1 7.18 7.18z"/><path d="M399.91 338.85a35.65 35.65 0 0 0 7.56-7.56 35.87 35.87 0 1 0 0-42.6 35.87 35.87 0 1 0-7.56 50.16zm36.26-50.38A21.52 21.52 0 1 1 414.64 310a21.52 21.52 0 0 1 21.53-21.53zm-57.4 0A21.52 21.52 0 1 1 357.25 310a21.52 21.52 0 0 1 21.52-21.53zm-179.35-7.18h14.35v14.35h-14.35zm28.69 0h86.09v14.35h-86.09zm-28.69 28.7h114.79v14.35H199.42zm265.44 64.57H206.59a7.17 7.17 0 0 0-7.17 7.17v43a7.17 7.17 0 0 0 7.17 7.17h258.27a7.17 7.17 0 0 0 7.18-7.17v-43a7.17 7.17 0 0 0-7.18-7.17zm-7.17 43.05H213.76v-28.7h243.93z"/></svg>