<svg id="Шар_1" xmlns="http://www.w3.org/2000/svg" viewBox="0 0 600 600"><style>.st0{fill:#1e0e00}.st1{fill:#eee}.st2{fill:#807f7d}.st3{fill:#2f2000}.st4{fill:#0094e1}.st5{fill:#00b0f5}.st6{fill:#ffd800}.st7{fill:#d753f1}.st8{fill:#fff000}.st9{fill:#f5008b}.st10{fill:#ff0093}</style><path transform="rotate(-61.928 268.49 171.696)" class="st0" d="M236.6 67.8h63.8v207.8h-63.8z"/><path class="st1" d="M198.1 134.2c-8.3 15.5-24.4 23.1-36 16.9-11.6-6.2-14.3-23.8-6-39.3 8.3-15.5 24.4-23.1 36-16.9 11.6 6.1 14.3 23.7 6 39.3z"/><path class="st2" d="M179.3 124.1c-1.6 3-4.4 4.5-6.4 3.5-1.9-1-2.2-4.3-.7-7.2 1.6-3 4.4-4.5 6.4-3.5s2.3 4.3.7 7.2z"/><path class="st3" d="M161.8 150.9l-58.9 110.4c-2.1 3.9-.6 8.7 3.3 10.8 3.9 2.1 8.7.6 10.8-3.3l8.3-15.5c2.1-3.9 6.9-5.4 10.8-3.3 3.9 2.1 5.3 6.9 3.3 10.8l-8.3 15.5-8.3 15.5c-2.1 3.9-.6 8.7 3.3 10.8 3.9 2.1 8.7.6 10.8-3.3l8.3-15.5c3.8-7.2 12.8-9.9 20-6.1 7.2 3.8 9.9 12.8 6.1 20l-19.5 36.6c-3.8 7.2-1.1 16.1 6.1 20 7.2 3.8 16.1 1.1 20-6.1l19.5-36.6 19.7-36.9c2.1-3.9 6.9-5.4 10.8-3.3 3.9 2.1 5.4 6.9 3.3 10.8l-2.9 5.5-16.8 31.5-7.5 14.1c-2.1 3.9-.6 8.7 3.3 10.8 3.9 2.1 8.7.6 10.8-3.3l7.5-14.1 7.4-14c2.5-4.7 8.4-6.5 13.1-4 4.7 2.5 6.5 8.4 4 13.1l-7.4 14-2.2 4.2c-2.1 3.9-.6 8.7 3.3 10.8 3.9 2.1 8.7.6 10.8-3.3l10.6-19.8c2.1-3.8 6.9-5.3 10.7-3.2 3.9 2.1 5.4 6.9 3.3 10.8l-8.3 15.5-6.5 12.3c-2.1 3.9-.2 8.9 4.1 11.2 4.3 2.3 9.6 1 11.6-2.8l6.5-12.3 17.8-33.3 41.2-77.2-183.8-97.8z"/><path transform="rotate(-61.823 341.344 139.008)" class="st4" d="M309.5 35.1h63.8v207.8h-63.8z"/><path class="st1" d="M271 101.3c-8.3 15.5-24.5 23.1-36.1 16.9-11.6-6.2-14.3-23.8-5.9-39.4 8.3-15.5 24.5-23.1 36.1-16.9 11.6 6.3 14.2 23.9 5.9 39.4z"/><path class="st4" d="M453.9 199.3c-8.3 15.5-24.5 23.1-36.1 16.9-11.6-6.2-14.2-23.8-5.9-39.4 8.3-15.5 24.5-23.1 36.1-16.9 11.6 6.3 14.3 23.9 5.9 39.4z"/><path class="st2" d="M252.2 91.3c-1.6 3-4.4 4.5-6.4 3.5-1.9-1-2.2-4.3-.6-7.2 1.6-3 4.4-4.5 6.4-3.5 1.9 1 2.2 4.2.6 7.2z"/><path class="st5" d="M234.7 118.1L88.6 392.9l11.1 5.9-11.1-5.9L69 429.5c-3.8 7.2-1.2 16.1 6 20 7.2 3.8 16.1 1.1 20-6.1l19.6-36.5 11.3-21.2c2.8-5.3 8.3-7.9 12.2-5.9 3.8 2 4.7 7.8 2 13.1l-18.7 34.9c-2.1 3.9-.6 8.7 3.3 10.8 3.9 2.1 8.7.6 10.8-3.3l7.2-13.4 23.4-43.8c2.8-5.3 8.3-7.9 12.2-5.9 3.9 2.1 4.7 8.1 1.9 13.4l-12 22.3-24.4 45.5c-2.1 3.9-.2 8.9 4.1 11.2 4.3 2.3 9.6 1.1 11.6-2.8l19.2-35.8c5.3-9.7 15.3-14.5 22.4-10.7 6.6 3.6 8.4 13.3 4.5 22.5l-11.3 21.1c-3.8 7.2-1.2 16.1 6 20 7.2 3.8 16.1 1.1 20-6.1l19.6-36.5 9.8-18.2c5.3-9.8 15.4-14.7 22.6-10.9 7.2 3.8 8.7 15 3.4 24.8l-25.4 47.4-3 5.6c-2.8 5.3-.3 12.1 5.6 15.3 5.9 3.2 13 1.4 15.8-3.8l3-5.5 146.1-274.9-183.1-98z"/><path transform="rotate(-61.928 346.831 213.717)" class="st6" d="M315 109.8h63.8v207.8H315z"/><path class="st1" d="M276.4 176.2c-8.3 15.5-24.4 23.1-36 16.9-11.6-6.2-14.3-23.8-6-39.3 8.3-15.5 24.4-23.1 36-16.9 11.6 6.1 14.3 23.7 6 39.3z"/><path class="st7" d="M459.5 273.8c-8.3 15.5-24.4 23.1-36 16.9-11.6-6.2-14.3-23.8-6-39.3 8.3-15.5 24.4-23.1 36-16.9 11.6 6.2 14.3 23.8 6 39.3z"/><path class="st2" d="M257.6 166.1c-1.6 3-4.4 4.5-6.4 3.5-1.9-1-2.2-4.3-.7-7.2 1.6-3 4.4-4.5 6.4-3.5s2.3 4.3.7 7.2z"/><path class="st8" d="M240.2 193l-84.4 158.3-19.5 36.6c-3.8 7.2-1.1 16.1 6.1 20 7.2 3.8 16.1 1.1 19.9-6.1l19.5-36.6 8.3-15.5c2.1-3.9 6.9-5.3 10.8-3.3 3.8 2.1 5.3 6.8 3.3 10.7l-15.4 29c-2.1 3.9-.6 8.7 3.3 10.8 3.9 2.1 8.7.6 10.8-3.3l7.1-13.4 17-32c2.1-3.9 6.9-5.4 10.8-3.3 3.9 2.1 5.4 6.9 3.3 10.8l-5.6 10.5-24.3 45.5c-2.1 3.9-.2 8.9 4.1 11.2 4.3 2.3 9.6 1.1 11.6-2.8l17.4-32.6c3.8-7.1 12.7-9.8 19.9-6 6.8 3.6 9.5 11.9 6.5 18.8l-9 16.9c-3.8 7.2-1.1 16.1 6.1 20 7.2 3.8 16.1 1.1 19.9-6.1l19.5-36.6 2.9-5.4c3.8-7.2 12.8-9.9 20-6.1 7.2 3.8 9.9 12.8 6 20l-18.5 34.6-3 5.6c-2.8 5.3-.3 12.1 5.6 15.2 5.9 3.1 13 1.4 15.8-3.8l3-5.6 84.4-158.3L240.2 193z"/><path class="st9" d="M527.9 237.2c-8.3 15.5-24.4 23.1-36 16.9-11.6-6.2-14.3-23.8-6-39.3 8.3-15.5 24.4-23.1 36-16.9 11.6 6.2 14.3 23.8 6 39.3z"/><path transform="rotate(-61.928 415.218 177.125)" class="st9" d="M383.3 73.2h63.8V281h-63.8z"/><path class="st1" d="M344.8 139.6c-8.3 15.5-24.4 23.1-36 16.9-11.6-6.2-14.3-23.8-6-39.3 8.3-15.5 24.4-23.1 36-16.9 11.6 6.1 14.3 23.7 6 39.3z"/><path class="st2" d="M326 129.5c-1.6 3-4.4 4.5-6.4 3.5-1.9-1-2.2-4.3-.7-7.2 1.6-3 4.4-4.5 6.4-3.5s2.3 4.3.7 7.2z"/><path class="st10" d="M308.5 156.4l-58.9 110.4c-2.1 3.9-.6 8.7 3.3 10.8 3.9 2.1 8.7.6 10.8-3.3l8.3-15.5c2.1-3.9 6.9-5.4 10.8-3.3 3.9 2.1 5.3 6.9 3.3 10.8l-8.3 15.5-8.3 15.5c-2.1 3.9-.6 8.7 3.3 10.8 3.9 2.1 8.7.6 10.8-3.3l8.3-15.5c3.8-7.2 12.8-9.9 20-6.1 7.2 3.8 9.9 12.8 6.1 20l-19.5 36.6c-3.8 7.2-1.1 16.1 6.1 20 7.2 3.8 16.1 1.1 20-6.1l19.5-36.6 19.7-36.9c2.1-3.9 6.9-5.4 10.8-3.3 3.9 2.1 5.4 6.9 3.3 10.8l-2.9 5.5-16.8 31.5-7.5 14.1c-2.1 3.9-.6 8.7 3.3 10.8 3.9 2.1 8.7.6 10.8-3.3l7.5-14.1 7.4-14c2.5-4.7 8.4-6.5 13.1-4 4.7 2.5 6.5 8.4 4 13.1l-7.4 14-2.3 4.2c-2.1 3.9-.6 8.7 3.3 10.8 3.9 2.1 8.7.6 10.8-3.3l10.6-19.8c2.1-3.8 6.9-5.3 10.7-3.2 3.9 2.1 5.4 6.9 3.3 10.8l-8.3 15.5-6.5 12.3c-2.1 3.9-.2 8.9 4.1 11.2 4.3 2.3 9.6 1.1 11.6-2.8l6.5-12.3 17.7-33.3 41.2-77.2-183.6-97.8zm77.6 272.4c-2.6 5-7.4 7.5-10.8 5.8-3.4-1.8-4.1-7.2-1.5-12.2 2.6-5 13.4-14.2 14.8-13.5 1.2.7.1 15-2.5 19.9zM264.5 339c-2.6 5-7.4 7.5-10.8 5.8-3.4-1.8-4.1-7.2-1.5-12.2 2.6-5 13.4-14.2 14.8-13.5 1.2.7 0 14.9-2.5 19.9z"/><path class="st5" d="M245.4 533.9c-2.6 5-7.4 7.5-10.8 5.8-3.4-1.8-4.1-7.2-1.5-12.2 2.6-5 13.4-14.2 14.8-13.5 1.3.7.1 14.9-2.5 19.9zm-129.6-67.1c-2.6 5-7.4 7.5-10.8 5.8-3.4-1.8-4.1-7.2-1.5-12.2 2.6-5 13.4-14.2 14.8-13.5 1.2.7.1 14.9-2.5 19.9z"/><path class="st3" d="M96.4 304.3c-2.6 5-7.4 7.5-10.8 5.8-3.4-1.8-4.1-7.2-1.5-12.2 2.6-5 13.4-14.2 14.8-13.5 1.2.7 0 14.9-2.5 19.9z"/></svg>