<svg id="Шар_1" xmlns="http://www.w3.org/2000/svg" viewBox="0 0 600 600"><style>.st0{stroke:#000;stroke-width:3;stroke-miterlimit:10}</style><path class="st0" d="M314 89h-28c-5.7 0-10.3 4.6-10.3 10.3v6.1h-67.5c-6.1 0-11.1 5-11.1 11.1v287.8c0 6.1 5 11.1 11.1 11.1h15.5v6.1c0 5.7 4.6 10.3 10.3 10.3h18.7l-32.2 55.8c-2.3 3.9-.9 9 3 11.2l6.7 3.9c3.9 2.3 9 .9 11.2-3l39.2-67.9h7.4v70.9c0 4.5 3.7 8.2 8.2 8.2h7.7c4.5 0 8.2-3.7 8.2-8.2v-70.9h7.4l39.2 67.9c2.3 3.9 7.3 5.3 11.2 3l6.7-3.9c3.9-2.3 5.3-7.3 3-11.2l-32.2-55.8h18.7c5.7 0 10.3-4.6 10.3-10.3v-6.1h15.5c6.1 0 11.1-5 11.1-11.1v-82.2c0-2.2-1.7-3.9-3.9-3.9s-3.9 1.7-3.9 3.9v44.6l-22.3-22.2c-5.3-5.2-13.8-5-18.8.5l-18.5 20.6c-2 2.2-5.5 2.3-7.6.1l-18.4-19c-1.5-1.5-4-1.6-5.5-.1s-1.6 4-.1 5.5l18.4 19c5.2 5.4 13.9 5.3 19-.4l18.5-20.6c2-2.2 5.4-2.3 7.5-.2l27.8 27.7v26.6c0 1.8-1.5 3.3-3.3 3.3H208.2c-1.8 0-3.3-1.5-3.3-3.3V370l55.4-55.4c2.1-2.1 5.4-2 7.4.1l23.6 24.4c1.5 1.5 4 1.6 5.5.1s1.6-4 .1-5.5l-23.6-24.4c-5-5.2-13.4-5.3-18.5-.1l-49.9 49.9V116.5c0-1.8 1.5-3.3 3.3-3.3h183.7c1.8 0 3.3 1.5 3.3 3.3v187.4c0 2.2 1.7 3.9 3.9 3.9s3.9-1.7 3.9-3.9V116.5c0-6.1-5-11.1-11.1-11.1h-67.5v-6.1c-.1-5.7-4.7-10.3-10.4-10.3zm-79.4 406.8c-.1.1-.1.2-.3.2h-.3l-6.7-3.9c-.2-.1-.3-.4-.2-.6l34.5-59.7h9.9l-36.9 64zm69.7 6.9c0 .2-.2.4-.4.4h-7.7c-.2 0-.4-.2-.4-.4v-70.9h8.6v70.9zm68.5-11.2c.1.2 0 .5-.2.6l-6.7 3.9c-.1.1-.2.1-.3 0-.1 0-.2-.1-.3-.2l-36.9-64h9.9l34.5 59.7zm-4.2-76.1v6.1c0 1.4-1.1 2.5-2.5 2.5H234c-1.4 0-2.5-1.1-2.5-2.5v-6.1h137.1zM283.5 99.3c0-1.4 1.1-2.5 2.5-2.5h28c1.4 0 2.5 1.1 2.5 2.5v6.1h-33.1v-6.1z"/></svg>